SplineFontDB: 3.2
FontName: linja_laso
FullName: linja laso
FamilyName: linja laso
Weight: Regular
Copyright: Copyright (c) 2024, mute ante

StartChar: .notdef
Encoding: 1114112 -1 0
Width: 1100
GlyphClass: 1
Flags: MW
LayerCount: 2
Fore
SplineSet
130 65 m 1,0,-1
 970 65 l 1,1,-1
 970 668 l 1,2,-1
 130 668 l 1,3,-1
 130 65 l 1,0,-1
65 0 m 1,4,-1
 65 733 l 1,5,-1
 1035 733 l 1,6,-1
 1035 0 l 1,7,-1
 65 0 l 1,4,-1
EndSplineSet
EndChar

StartChar: a
Encoding: 97 97 6
Width: 1100
GlyphClass: 1
Flags: MW
LayerCount: 2
Fore
SplineSet
600 900 m 1,0,-1
 702 900 l 1,1,-1
 602 375 l 1,2,-1
 500 375 l 1,3,-1
 600 900 l 1,0,-1
550 200 m 128,-1,5
 529 200 529 200 514.5 185.5 c 128,-1,6
 500 171 500 171 500 150 c 128,-1,7
 500 129 500 129 514.5 114.5 c 128,-1,8
 529 100 529 100 550 100 c 128,-1,9
 571 100 571 100 585.5 114.5 c 128,-1,10
 600 129 600 129 600 150 c 128,-1,11
 600 171 600 171 585.5 185.5 c 128,-1,4
 571 200 571 200 550 200 c 128,-1,5
550 300 m 0,12,13
 601 300 601 300 640.5 269.5 c 128,-1,14
 680 239 680 239 694 192 c 2,15,-1
 750 0 l 1,16,-1
 650 0 l 1,17,-1
 640 30 l 1,18,19
 600 0 600 0 550 0 c 0,20,21
 488 0 488 0 444 44 c 128,-1,22
 400 88 400 88 400 150 c 128,-1,23
 400 212 400 212 444 256 c 128,-1,24
 488 300 488 300 550 300 c 0,12,13
EndSplineSet
Substitution2: "cartouched sitelen" cart.a
EndChar

StartChar: e
Encoding: 101 101 7
Width: 1100
GlyphClass: 1
Flags: MW
LayerCount: 2
Fore
SplineSet
570 871 m 1,0,-1
 1000 450 l 1,1,-1
 570 29 l 1,2,-1
 500 100 l 1,3,-1
 857 450 l 1,4,-1
 500 800 l 1,5,-1
 570 871 l 1,0,-1
170 871 m 1,6,-1
 600 450 l 1,7,-1
 170 29 l 1,8,-1
 100 100 l 1,9,-1
 457 450 l 1,10,-1
 100 800 l 1,11,-1
 170 871 l 1,6,-1
EndSplineSet
Substitution2: "cartouched sitelen" cart.e
EndChar

StartChar: i
Encoding: 105 105 8
Width: 1100
GlyphClass: 1
Flags: MW
LayerCount: 2
Fore
SplineSet
600 779.5 m 128,-1,1
 579 759 579 759 550 759 c 128,-1,2
 521 759 521 759 500 779.5 c 128,-1,3
 479 800 479 800 479 829.5 c 128,-1,4
 479 859 479 859 500 879.5 c 128,-1,5
 521 900 521 900 550 900 c 128,-1,6
 579 900 579 900 600 879.5 c 128,-1,7
 621 859 621 859 621 829.5 c 128,-1,0
 621 800 621 800 600 779.5 c 128,-1,1
500 700 m 1,8,-1
 600 700 l 1,9,-1
 600 0 l 1,10,-1
 500 0 l 1,11,-1
 500 700 l 1,8,-1
EndSplineSet
EndChar

StartChar: j
Encoding: 106 106 9
Width: 1100
GlyphClass: 1
Flags: MW
LayerCount: 2
Fore
SplineSet
600 779.5 m 128,-1,1
 579 759 579 759 550 759 c 128,-1,2
 521 759 521 759 500 779.5 c 128,-1,3
 479 800 479 800 479 829.5 c 128,-1,4
 479 859 479 859 500 879.5 c 128,-1,5
 521 900 521 900 550 900 c 128,-1,6
 579 900 579 900 600 879.5 c 128,-1,7
 621 859 621 859 621 829.5 c 128,-1,0
 621 800 621 800 600 779.5 c 128,-1,1
500 700 m 1,8,-1
 600 700 l 1,9,-1
 600 0 l 2,10,11
 600 -83 600 -83 541.5 -141.5 c 128,-1,12
 483 -200 483 -200 400 -200 c 128,-1,13
 317 -200 317 -200 259 -141 c 1,14,-1
 329 -71 l 1,15,16
 359 -100 359 -100 400 -100 c 128,-1,17
 441 -100 441 -100 470.5 -70.5 c 128,-1,18
 500 -41 500 -41 500 0 c 2,19,-1
 500 700 l 1,8,-1
EndSplineSet
EndChar

StartChar: k
Encoding: 107 107 10
Width: 1100
GlyphClass: 1
Flags: MW
LayerCount: 2
Fore
SplineSet
300 1000 m 1,0,-1
 400 1000 l 1,1,-1
 400 441 l 1,2,-1
 659 700 l 1,3,-1
 800 700 l 1,4,-1
 450 350 l 1,5,-1
 800 0 l 1,6,-1
 659 0 l 1,7,-1
 400 259 l 1,8,-1
 400 0 l 1,9,-1
 300 0 l 1,10,-1
 300 1000 l 1,0,-1
EndSplineSet
EndChar

StartChar: l
Encoding: 108 108 11
Width: 1100
GlyphClass: 1
Flags: MW
LayerCount: 2
Fore
SplineSet
475 1000 m 1,0,-1
 575 1000 l 1,1,-1
 575 999 l 1,2,-1
 575 998 l 1,3,-1
 575 997 l 1,4,-1
 575 996 l 1,5,-1
 575 995 l 1,6,-1
 575 994 l 1,7,-1
 575 993 l 1,8,-1
 575 992 l 1,9,-1
 575 991 l 1,10,-1
 575 990 l 1,11,-1
 575 989 l 1,12,-1
 575 988 l 1,13,-1
 575 987 l 1,14,-1
 575 986 l 1,15,-1
 575 985 l 1,16,-1
 575 984 l 1,17,-1
 575 983 l 1,18,-1
 575 982 l 1,19,-1
 575 981 l 1,20,-1
 575 980 l 1,21,-1
 575 979 l 1,22,-1
 575 978 l 1,23,-1
 575 977 l 1,24,-1
 575 976 l 1,25,-1
 575 975 l 1,26,-1
 575 974 l 1,27,-1
 575 973 l 1,28,-1
 575 972 l 1,29,-1
 575 971 l 1,30,-1
 575 970 l 1,31,-1
 575 969 l 1,32,-1
 575 968 l 1,33,-1
 575 967 l 1,34,-1
 575 966 l 1,35,-1
 575 965 l 1,36,-1
 575 964 l 1,37,-1
 575 963 l 1,38,-1
 575 962 l 1,39,-1
 575 961 l 1,40,-1
 575 960 l 1,41,-1
 575 959 l 1,42,-1
 575 958 l 1,43,-1
 575 957 l 1,44,-1
 575 956 l 1,45,-1
 575 955 l 1,46,-1
 575 954 l 1,47,-1
 575 953 l 1,48,-1
 575 952 l 1,49,-1
 575 951 l 1,50,-1
 575 950 l 1,51,-1
 575 949 l 1,52,-1
 575 948 l 1,53,-1
 575 947 l 1,54,-1
 575 946 l 1,55,-1
 575 945 l 1,56,-1
 575 944 l 1,57,-1
 575 943 l 1,58,-1
 575 942 l 1,59,-1
 575 941 l 1,60,-1
 575 940 l 1,61,-1
 575 939 l 1,62,-1
 575 938 l 1,63,-1
 575 937 l 1,64,-1
 575 936 l 1,65,-1
 575 935 l 1,66,-1
 575 934 l 1,67,-1
 575 933 l 1,68,-1
 575 932 l 1,69,-1
 575 931 l 1,70,-1
 575 930 l 1,71,-1
 575 929 l 1,72,-1
 575 928 l 1,73,-1
 575 927 l 1,74,-1
 575 926 l 1,75,-1
 575 925 l 1,76,-1
 575 924 l 1,77,-1
 575 923 l 1,78,-1
 575 922 l 1,79,-1
 575 921 l 1,80,-1
 575 920 l 1,81,-1
 575 919 l 1,82,-1
 575 918 l 1,83,-1
 575 917 l 1,84,-1
 575 916 l 1,85,-1
 575 915 l 1,86,-1
 575 914 l 1,87,-1
 575 913 l 1,88,-1
 575 912 l 1,89,-1
 575 911 l 1,90,-1
 575 910 l 1,91,-1
 575 909 l 1,92,-1
 575 908 l 1,93,-1
 575 907 l 1,94,-1
 575 906 l 1,95,-1
 575 905 l 1,96,-1
 575 904 l 1,97,-1
 575 903 l 1,98,-1
 575 902 l 1,99,-1
 575 901 l 1,100,-1
 575 900 l 1,101,-1
 575 899 l 1,102,-1
 575 898 l 1,103,-1
 575 897 l 1,104,-1
 575 896 l 1,105,-1
 575 895 l 1,106,-1
 575 894 l 1,107,-1
 575 893 l 1,108,-1
 575 892 l 1,109,-1
 575 891 l 1,110,-1
 575 890 l 1,111,-1
 575 889 l 1,112,-1
 575 888 l 1,113,-1
 575 887 l 1,114,-1
 575 886 l 1,115,-1
 575 885 l 1,116,-1
 575 884 l 1,117,-1
 575 883 l 1,118,-1
 575 882 l 1,119,-1
 575 881 l 1,120,-1
 575 880 l 1,121,-1
 575 879 l 1,122,-1
 575 878 l 1,123,-1
 575 877 l 1,124,-1
 575 876 l 1,125,-1
 575 875 l 1,126,-1
 575 874 l 1,127,-1
 575 873 l 1,128,-1
 575 872 l 1,129,-1
 575 871 l 1,130,-1
 575 870 l 1,131,-1
 575 869 l 1,132,-1
 575 868 l 1,133,-1
 575 867 l 1,134,-1
 575 866 l 1,135,-1
 575 865 l 1,136,-1
 575 864 l 1,137,-1
 575 863 l 1,138,-1
 575 862 l 1,139,-1
 575 861 l 1,140,-1
 575 860 l 1,141,-1
 575 859 l 1,142,-1
 575 858 l 1,143,-1
 575 857 l 1,144,-1
 575 856 l 1,145,-1
 575 855 l 1,146,-1
 575 854 l 1,147,-1
 575 853 l 1,148,-1
 575 852 l 1,149,-1
 575 851 l 1,150,-1
 575 850 l 1,151,-1
 575 849 l 1,152,-1
 575 848 l 1,153,-1
 575 847 l 1,154,-1
 575 846 l 1,155,-1
 575 845 l 1,156,-1
 575 844 l 1,157,-1
 575 843 l 1,158,-1
 575 841 l 1,159,-1
 575 840 l 1,160,-1
 575 839 l 1,161,-1
 575 838 l 1,162,-1
 575 837 l 1,163,-1
 575 836 l 1,164,-1
 575 835 l 1,165,-1
 575 834 l 1,166,-1
 575 833 l 1,167,-1
 575 832 l 1,168,-1
 575 831 l 1,169,-1
 575 830 l 1,170,-1
 575 829 l 1,171,-1
 575 827 l 1,172,-1
 575 826 l 1,173,-1
 575 825 l 1,174,-1
 575 824 l 1,175,-1
 575 823 l 1,176,-1
 575 822 l 1,177,-1
 575 821 l 1,178,-1
 575 820 l 1,179,-1
 575 819 l 1,180,-1
 575 817 l 1,181,-1
 575 816 l 1,182,-1
 575 815 l 1,183,-1
 575 814 l 1,184,-1
 575 813 l 1,185,-1
 575 812 l 1,186,-1
 575 811 l 1,187,-1
 575 809 l 1,188,-1
 575 808 l 1,189,-1
 575 807 l 1,190,-1
 575 806 l 1,191,-1
 575 805 l 1,192,-1
 575 804 l 1,193,-1
 575 803 l 1,194,-1
 575 801 l 1,195,-1
 575 800 l 1,196,-1
 575 799 l 1,197,-1
 575 798 l 1,198,-1
 575 797 l 1,199,-1
 575 796 l 1,200,-1
 575 794 l 1,201,-1
 575 793 l 1,202,-1
 575 792 l 1,203,-1
 575 791 l 1,204,-1
 575 790 l 1,205,-1
 575 789 l 1,206,-1
 575 787 l 1,207,-1
 575 786 l 1,208,-1
 575 785 l 1,209,-1
 575 784 l 1,210,-1
 575 783 l 1,211,-1
 575 781 l 1,212,-1
 575 780 l 1,213,-1
 575 779 l 1,214,-1
 575 778 l 1,215,-1
 575 777 l 1,216,-1
 575 775 l 1,217,-1
 575 774 l 1,218,-1
 575 773 l 1,219,-1
 575 772 l 1,220,-1
 575 771 l 1,221,-1
 575 769 l 1,222,-1
 575 768 l 1,223,-1
 575 767 l 1,224,-1
 575 766 l 1,225,-1
 575 764 l 1,226,-1
 575 763 l 1,227,-1
 575 762 l 1,228,-1
 575 761 l 1,229,-1
 575 760 l 1,230,-1
 575 758 l 1,231,-1
 575 757 l 1,232,-1
 575 756 l 1,233,-1
 575 755 l 1,234,-1
 575 753 l 1,235,-1
 575 752 l 1,236,-1
 575 751 l 1,237,-1
 575 750 l 1,238,-1
 575 748 l 1,239,-1
 575 747 l 1,240,-1
 575 746 l 1,241,-1
 575 745 l 1,242,-1
 575 743 l 1,243,-1
 575 742 l 1,244,-1
 575 741 l 1,245,-1
 575 739 l 1,246,-1
 575 738 l 1,247,-1
 575 737 l 1,248,-1
 575 736 l 1,249,-1
 575 734 l 1,250,-1
 575 733 l 1,251,-1
 575 732 l 1,252,-1
 575 731 l 1,253,-1
 575 729 l 1,254,-1
 575 728 l 1,255,-1
 575 727 l 1,256,-1
 575 725 l 1,257,-1
 575 724 l 1,258,-1
 575 723 l 1,259,-1
 575 721 l 1,260,-1
 575 720 l 1,261,-1
 575 719 l 1,262,-1
 575 718 l 1,263,-1
 575 716 l 1,264,-1
 575 715 l 1,265,-1
 575 714 l 1,266,-1
 575 712 l 1,267,-1
 575 711 l 1,268,-1
 575 710 l 1,269,-1
 575 708 l 1,270,-1
 575 707 l 1,271,-1
 575 706 l 1,272,-1
 575 704 l 1,273,-1
 575 703 l 1,274,-1
 575 702 l 1,275,-1
 575 700 l 1,276,-1
 575 699 l 1,277,-1
 575 698 l 1,278,-1
 575 696 l 1,279,-1
 575 695 l 1,280,-1
 575 694 l 1,281,-1
 575 692 l 1,282,-1
 575 691 l 1,283,-1
 575 690 l 1,284,-1
 575 688 l 1,285,-1
 575 687 l 1,286,-1
 575 686 l 1,287,-1
 575 684 l 1,288,-1
 575 683 l 1,289,-1
 575 682 l 1,290,-1
 575 680 l 1,291,-1
 575 679 l 1,292,-1
 575 677 l 1,293,-1
 575 676 l 1,294,-1
 575 675 l 1,295,-1
 575 673 l 1,296,-1
 575 672 l 1,297,-1
 575 671 l 1,298,-1
 575 669 l 1,299,-1
 575 668 l 1,300,-1
 575 666 l 1,301,-1
 575 665 l 1,302,-1
 575 664 l 1,303,-1
 575 662 l 1,304,-1
 575 661 l 1,305,-1
 575 659 l 1,306,-1
 575 658 l 1,307,-1
 575 657 l 1,308,-1
 575 655 l 1,309,-1
 575 654 l 1,310,-1
 575 653 l 1,311,-1
 575 651 l 1,312,-1
 575 650 l 1,313,-1
 575 648 l 1,314,-1
 575 647 l 1,315,-1
 575 645 l 1,316,-1
 575 644 l 1,317,-1
 575 643 l 1,318,-1
 575 641 l 1,319,-1
 575 640 l 1,320,-1
 575 638 l 1,321,-1
 575 637 l 1,322,-1
 575 636 l 1,323,-1
 575 634 l 1,324,-1
 575 633 l 1,325,-1
 575 631 l 1,326,-1
 575 630 l 1,327,-1
 575 628 l 1,328,-1
 575 627 l 1,329,-1
 575 626 l 1,330,-1
 575 624 l 1,331,-1
 575 623 l 1,332,-1
 575 621 l 1,333,-1
 575 620 l 1,334,-1
 575 618 l 1,335,-1
 575 617 l 1,336,-1
 575 615 l 1,337,-1
 575 614 l 1,338,-1
 575 613 l 1,339,-1
 575 611 l 1,340,-1
 575 610 l 1,341,-1
 575 608 l 1,342,-1
 575 607 l 1,343,-1
 575 605 l 1,344,-1
 575 604 l 1,345,-1
 575 602 l 1,346,-1
 575 601 l 1,347,-1
 575 599 l 1,348,-1
 575 598 l 1,349,-1
 575 596 l 1,350,-1
 575 595 l 1,351,-1
 575 593 l 1,352,-1
 575 592 l 1,353,-1
 575 591 l 1,354,-1
 575 589 l 1,355,-1
 575 588 l 1,356,-1
 575 586 l 1,357,-1
 575 585 l 1,358,-1
 575 583 l 1,359,-1
 575 582 l 1,360,-1
 575 580 l 1,361,-1
 575 579 l 1,362,-1
 575 577 l 1,363,-1
 575 576 l 1,364,-1
 575 574 l 1,365,-1
 575 573 l 1,366,-1
 575 571 l 1,367,-1
 575 570 l 1,368,-1
 575 568 l 1,369,-1
 575 567 l 1,370,-1
 575 565 l 1,371,-1
 575 564 l 1,372,-1
 575 562 l 1,373,-1
 575 561 l 1,374,-1
 575 559 l 1,375,-1
 575 558 l 1,376,-1
 575 556 l 1,377,-1
 575 554 l 1,378,-1
 575 553 l 1,379,-1
 575 551 l 1,380,-1
 575 550 l 1,381,-1
 575 548 l 1,382,-1
 575 547 l 1,383,-1
 575 545 l 1,384,-1
 575 544 l 1,385,-1
 575 542 l 1,386,-1
 575 541 l 1,387,-1
 575 539 l 1,388,-1
 575 538 l 1,389,-1
 575 536 l 1,390,-1
 575 535 l 1,391,-1
 575 533 l 1,392,-1
 575 531 l 1,393,-1
 575 530 l 1,394,-1
 575 528 l 1,395,-1
 575 527 l 1,396,-1
 575 525 l 1,397,-1
 575 524 l 1,398,-1
 575 522 l 1,399,-1
 575 521 l 1,400,-1
 575 519 l 1,401,-1
 575 517 l 1,402,-1
 575 516 l 1,403,-1
 575 514 l 1,404,-1
 575 513 l 1,405,-1
 575 511 l 1,406,-1
 575 510 l 1,407,-1
 575 508 l 1,408,-1
 575 506 l 1,409,-1
 575 505 l 1,410,-1
 575 503 l 1,411,-1
 575 502 l 1,412,-1
 575 500 l 1,413,-1
 575 499 l 1,414,-1
 575 497 l 1,415,-1
 575 495 l 1,416,-1
 575 494 l 1,417,-1
 575 492 l 1,418,-1
 575 491 l 1,419,-1
 575 489 l 1,420,-1
 575 487 l 1,421,-1
 575 486 l 1,422,-1
 575 484 l 1,423,-1
 575 483 l 1,424,-1
 575 481 l 1,425,-1
 575 479 l 1,426,-1
 575 478 l 1,427,-1
 575 476 l 1,428,-1
 575 475 l 1,429,-1
 575 473 l 1,430,-1
 575 471 l 1,431,-1
 575 470 l 1,432,-1
 575 468 l 1,433,-1
 575 467 l 1,434,-1
 575 465 l 1,435,-1
 575 463 l 1,436,-1
 575 462 l 1,437,-1
 575 460 l 1,438,-1
 575 458 l 1,439,-1
 575 457 l 1,440,-1
 575 455 l 1,441,-1
 575 454 l 1,442,-1
 575 452 l 1,443,-1
 575 450 l 1,444,-1
 575 449 l 1,445,-1
 575 447 l 1,446,-1
 575 445 l 1,447,-1
 575 444 l 1,448,-1
 575 442 l 1,449,-1
 575 440 l 1,450,-1
 575 439 l 1,451,-1
 575 437 l 1,452,-1
 575 436 l 1,453,-1
 575 434 l 1,454,-1
 575 432 l 1,455,-1
 575 431 l 1,456,-1
 575 429 l 1,457,-1
 575 427 l 1,458,-1
 575 426 l 1,459,-1
 575 424 l 1,460,-1
 575 422 l 1,461,-1
 575 421 l 1,462,-1
 575 419 l 1,463,-1
 575 417 l 1,464,-1
 575 416 l 1,465,-1
 575 414 l 1,466,-1
 575 412 l 1,467,-1
 575 411 l 1,468,-1
 575 409 l 1,469,-1
 575 407 l 1,470,-1
 575 406 l 1,471,-1
 575 404 l 1,472,-1
 575 402 l 1,473,-1
 575 401 l 1,474,-1
 575 399 l 1,475,-1
 575 397 l 1,476,-1
 575 395 l 1,477,-1
 575 394 l 1,478,-1
 575 392 l 1,479,-1
 575 390 l 1,480,-1
 575 389 l 1,481,-1
 575 387 l 1,482,-1
 575 385 l 1,483,-1
 575 384 l 1,484,-1
 575 382 l 1,485,-1
 575 380 l 1,486,-1
 575 379 l 1,487,-1
 575 377 l 1,488,-1
 575 375 l 1,489,-1
 575 373 l 1,490,-1
 575 372 l 1,491,-1
 575 370 l 1,492,-1
 575 368 l 1,493,-1
 575 367 l 1,494,-1
 575 365 l 1,495,-1
 575 363 l 1,496,-1
 575 361 l 1,497,-1
 575 360 l 1,498,-1
 575 358 l 1,499,-1
 575 356 l 1,500,-1
 575 355 l 1,501,-1
 575 353 l 1,502,-1
 575 351 l 1,503,-1
 575 349 l 1,504,-1
 575 348 l 1,505,-1
 575 346 l 1,506,-1
 575 344 l 1,507,-1
 575 342 l 1,508,-1
 575 341 l 1,509,-1
 575 339 l 1,510,-1
 575 337 l 1,511,-1
 575 335 l 1,512,-1
 575 334 l 1,513,-1
 575 332 l 1,514,-1
 575 330 l 1,515,-1
 575 328 l 1,516,-1
 575 327 l 1,517,-1
 575 325 l 1,518,-1
 575 323 l 1,519,-1
 575 321 l 1,520,-1
 575 320 l 1,521,-1
 575 318 l 1,522,-1
 575 316 l 1,523,-1
 575 314 l 1,524,-1
 575 313 l 1,525,-1
 575 311 l 1,526,-1
 575 309 l 1,527,-1
 575 307 l 1,528,-1
 575 306 l 1,529,-1
 575 304 l 1,530,-1
 575 302 l 1,531,-1
 575 300 l 1,532,-1
 575 298 l 1,533,-1
 575 297 l 1,534,-1
 575 295 l 1,535,-1
 575 293 l 1,536,-1
 575 291 l 1,537,-1
 575 290 l 1,538,-1
 575 288 l 1,539,-1
 575 286 l 1,540,-1
 575 284 l 1,541,-1
 575 282 l 1,542,-1
 575 281 l 1,543,-1
 575 279 l 1,544,-1
 575 277 l 1,545,-1
 575 275 l 1,546,-1
 575 273 l 1,547,-1
 575 272 l 1,548,-1
 575 270 l 1,549,-1
 575 268 l 1,550,-1
 575 266 l 1,551,-1
 575 264 l 1,552,-1
 575 262 l 1,553,-1
 575 261 l 1,554,-1
 575 259 l 1,555,-1
 575 257 l 1,556,-1
 575 255 l 1,557,-1
 575 253 l 1,558,-1
 575 252 l 1,559,-1
 575 250 l 1,560,-1
 575 248 l 1,561,-1
 575 246 l 1,562,-1
 575 244 l 1,563,-1
 575 242 l 1,564,-1
 575 241 l 1,565,-1
 575 239 l 1,566,-1
 575 237 l 1,567,-1
 575 235 l 1,568,-1
 575 233 l 1,569,-1
 575 231 l 1,570,-1
 575 230 l 1,571,-1
 575 228 l 1,572,-1
 575 226 l 1,573,-1
 575 224 l 1,574,-1
 575 222 l 1,575,-1
 575 220 l 1,576,-1
 575 218 l 1,577,-1
 575 217 l 1,578,-1
 575 215 l 1,579,-1
 575 213 l 1,580,-1
 575 211 l 1,581,-1
 575 209 l 1,582,-1
 575 207 l 1,583,-1
 575 205 l 1,584,-1
 575 204 l 1,585,-1
 575 202 l 1,586,-1
 575 200 l 1,587,-1
 575 198 l 1,588,-1
 575 196 l 1,589,-1
 575 194 l 1,590,-1
 575 192 l 1,591,-1
 575 190 l 1,592,-1
 575 189 l 1,593,-1
 575 187 l 1,594,-1
 575 185 l 1,595,-1
 575 183 l 1,596,-1
 575 181 l 1,597,-1
 575 179 l 1,598,-1
 575 177 l 1,599,-1
 575 175 l 1,600,-1
 575 173 l 1,601,-1
 575 171 l 1,602,-1
 575 170 l 1,603,-1
 575 168 l 1,604,-1
 575 166 l 1,605,-1
 575 164 l 1,606,-1
 575 162 l 1,607,-1
 575 160 l 1,608,-1
 575 158 l 1,609,-1
 575 150 l 2,610,611
 575 129 575 129 589.5 114.5 c 128,-1,612
 604 100 604 100 625 100 c 1,613,-1
 625 0 l 1,614,615
 563 0 563 0 519 44 c 128,-1,616
 475 88 475 88 475 150 c 2,617,-1
 475 1000 l 1,0,-1
EndSplineSet
EndChar

StartChar: m
Encoding: 109 109 12
Width: 1100
GlyphClass: 1
Flags: MW
LayerCount: 2
Fore
SplineSet
100 700 m 1,0,-1
 200 700 l 1,1,-1
 200 650 l 1,2,3
 267 700 267 700 350 700 c 0,4,5
 410 700 410 700 462.5 673 c 128,-1,6
 515 646 515 646 550 600 c 1,7,8
 585 646 585 646 637.5 673 c 128,-1,9
 690 700 690 700 750 700 c 0,10,11
 853 700 853 700 926.5 626.5 c 128,-1,12
 1000 553 1000 553 1000 450 c 2,13,-1
 1000 0 l 1,14,-1
 900 0 l 1,15,-1
 900 450 l 2,16,17
 900 512 900 512 856 556 c 128,-1,18
 812 600 812 600 750 600 c 128,-1,19
 688 600 688 600 644 556 c 128,-1,20
 600 512 600 512 600 450 c 2,21,-1
 600 0 l 1,22,-1
 500 0 l 1,23,-1
 500 450 l 2,24,25
 500 512 500 512 456 556 c 128,-1,26
 412 600 412 600 350 600 c 128,-1,27
 288 600 288 600 244 556 c 128,-1,28
 200 512 200 512 200 450 c 2,29,-1
 200 0 l 1,30,-1
 100 0 l 1,31,-1
 100 700 l 1,0,-1
EndSplineSet
EndChar

StartChar: n
Encoding: 110 110 13
Width: 1100
GlyphClass: 1
Flags: MW
LayerCount: 2
Fore
SplineSet
400 300 m 1,0,-1
 500 300 l 1,1,-1
 500 291 l 1,2,3
 524 300 524 300 550 300 c 0,4,5
 612 300 612 300 656 256 c 128,-1,6
 700 212 700 212 700 150 c 2,7,-1
 700 0 l 1,8,-1
 600 0 l 1,9,-1
 600 150 l 2,10,11
 600 171 600 171 585.5 185.5 c 128,-1,12
 571 200 571 200 550 200 c 128,-1,13
 529 200 529 200 514.5 185.5 c 128,-1,14
 500 171 500 171 500 150 c 2,15,-1
 500 0 l 1,16,-1
 400 0 l 1,17,-1
 400 150 l 1,18,-1
 400 300 l 1,0,-1
600 900 m 1,19,-1
 702 900 l 1,20,-1
 602 375 l 1,21,-1
 500 375 l 1,22,-1
 600 900 l 1,19,-1
EndSplineSet
Substitution2: "cartouched sitelen" cart.n
EndChar

StartChar: o
Encoding: 111 111 14
Width: 1100
GlyphClass: 1
Flags: MW
LayerCount: 2
Fore
SplineSet
599 900 m 1,0,-1
 701 900 l 1,1,-1
 601 375 l 1,2,-1
 499 375 l 1,3,-1
 599 900 l 1,0,-1
550 200 m 128,-1,5
 529 200 529 200 514.5 185.5 c 128,-1,6
 500 171 500 171 500 150 c 128,-1,7
 500 129 500 129 514.5 114.5 c 128,-1,8
 529 100 529 100 550 100 c 128,-1,9
 571 100 571 100 585.5 114.5 c 128,-1,10
 600 129 600 129 600 150 c 128,-1,11
 600 171 600 171 585.5 185.5 c 128,-1,4
 571 200 571 200 550 200 c 128,-1,5
550 300 m 128,-1,13
 612 300 612 300 656 256 c 128,-1,14
 700 212 700 212 700 150 c 128,-1,15
 700 88 700 88 656 44 c 128,-1,16
 612 0 612 0 550 0 c 128,-1,17
 488 0 488 0 444 44 c 128,-1,18
 400 88 400 88 400 150 c 128,-1,19
 400 212 400 212 444 256 c 128,-1,12
 488 300 488 300 550 300 c 128,-1,13
EndSplineSet
Substitution2: "cartouched sitelen" cart.o
EndChar

StartChar: p
Encoding: 112 112 15
Width: 1100
GlyphClass: 1
Flags: MW
LayerCount: 2
Fore
SplineSet
750 300 m 2,0,-1
 750 400 l 2,1,2
 750 483 750 483 691.5 541.5 c 128,-1,3
 633 600 633 600 550 600 c 128,-1,4
 467 600 467 600 408.5 541.5 c 128,-1,5
 350 483 350 483 350 400 c 2,6,-1
 350 300 l 2,7,8
 350 217 350 217 408.5 158.5 c 128,-1,9
 467 100 467 100 550 100 c 128,-1,10
 633 100 633 100 691.5 158.5 c 128,-1,11
 750 217 750 217 750 300 c 2,0,-1
350 623.439092706 m 1,12,13
 434.339814417 700 434.339814417 700 550 700 c 0,14,15
 674 700 674 700 762 612 c 128,-1,16
 850 524 850 524 850 400 c 2,17,-1
 850 300 l 2,18,19
 850 176 850 176 762 88 c 128,-1,20
 674 0 674 0 550 0 c 0,21,22
 434.339814417 0 434.339814417 0 350 76.5609072944 c 1,23,-1
 350 -200 l 1,24,-1
 250 -200 l 1,25,-1
 250 300 l 1,26,-1
 250 400 l 1,27,-1
 250 700 l 1,28,-1
 350 700 l 1,29,-1
 350 623.439092706 l 1,12,13
EndSplineSet
EndChar

StartChar: s
Encoding: 115 115 16
Width: 1100
GlyphClass: 1
Flags: MW
LayerCount: 2
Fore
SplineSet
550 700 m 128,-1,1
 633 700 633 700 691.5 641.5 c 128,-1,2
 750 583 750 583 750 500 c 1,3,-1
 749 500 l 1,4,-1
 748 500 l 1,5,-1
 747 500 l 1,6,-1
 746 500 l 1,7,-1
 745 500 l 1,8,-1
 744 500 l 1,9,-1
 743 500 l 1,10,-1
 742 500 l 1,11,-1
 741 500 l 1,12,-1
 740 500 l 1,13,-1
 739 500 l 1,14,-1
 738 500 l 1,15,-1
 737 500 l 1,16,-1
 736 500 l 1,17,-1
 735 500 l 1,18,-1
 734 500 l 1,19,-1
 733 500 l 1,20,-1
 732 500 l 1,21,-1
 731 500 l 1,22,-1
 730 500 l 1,23,-1
 729 500 l 1,24,-1
 728 500 l 1,25,-1
 727 500 l 1,26,-1
 726 500 l 1,27,-1
 725 500 l 1,28,-1
 723 500 l 1,29,-1
 722 500 l 1,30,-1
 721 500 l 1,31,-1
 720 500 l 1,32,-1
 718 500 l 1,33,-1
 717 500 l 1,34,-1
 716 500 l 1,35,-1
 714 500 l 1,36,-1
 713 500 l 1,37,-1
 712 500 l 1,38,-1
 710 500 l 1,39,-1
 709 500 l 1,40,-1
 708 500 l 1,41,-1
 706 500 l 1,42,-1
 705 500 l 1,43,-1
 703 500 l 1,44,-1
 702 500 l 1,45,-1
 700 500 l 1,46,-1
 699 500 l 1,47,-1
 697 500 l 1,48,-1
 696 500 l 1,49,-1
 694 500 l 1,50,-1
 693 500 l 1,51,-1
 691 500 l 1,52,-1
 689 500 l 1,53,-1
 688 500 l 1,54,-1
 686 500 l 1,55,-1
 685 500 l 1,56,-1
 683 500 l 1,57,-1
 681 500 l 1,58,-1
 680 500 l 1,59,-1
 678 500 l 1,60,-1
 676 500 l 1,61,-1
 675 500 l 1,62,-1
 673 500 l 1,63,-1
 671 500 l 1,64,-1
 670 500 l 1,65,-1
 668 500 l 1,66,-1
 666 500 l 1,67,-1
 664 500 l 1,68,-1
 662 500 l 1,69,-1
 661 500 l 1,70,-1
 659 500 l 1,71,-1
 650 500 l 1,72,73
 650 541 650 541 620.5 570.5 c 128,-1,74
 591 600 591 600 550 600 c 128,-1,75
 509 600 509 600 479.5 570.5 c 128,-1,76
 450 541 450 541 450 500 c 128,-1,77
 450 459 450 459 479.5 429.5 c 128,-1,78
 509 400 509 400 550 400 c 0,79,80
 633 400 633 400 691.5 341.5 c 128,-1,81
 750 283 750 283 750 200 c 128,-1,82
 750 117 750 117 691.5 58.5 c 128,-1,83
 633 0 633 0 550 0 c 128,-1,84
 467 0 467 0 408.5 58.5 c 128,-1,85
 350 117 350 117 350 200 c 1,86,-1
 351 200 l 1,87,-1
 352 200 l 1,88,-1
 353 200 l 1,89,-1
 354 200 l 1,90,-1
 355 200 l 1,91,-1
 356 200 l 1,92,-1
 357 200 l 1,93,-1
 358 200 l 1,94,-1
 359 200 l 1,95,-1
 360 200 l 1,96,-1
 361 200 l 1,97,-1
 362 200 l 1,98,-1
 363 200 l 1,99,-1
 364 200 l 1,100,-1
 365 200 l 1,101,-1
 366 200 l 1,102,-1
 367 200 l 1,103,-1
 368 200 l 1,104,-1
 369 200 l 1,105,-1
 370 200 l 1,106,-1
 371 200 l 1,107,-1
 372 200 l 1,108,-1
 373 200 l 1,109,-1
 374 200 l 1,110,-1
 375 200 l 1,111,-1
 377 200 l 1,112,-1
 378 200 l 1,113,-1
 379 200 l 1,114,-1
 380 200 l 1,115,-1
 382 200 l 1,116,-1
 383 200 l 1,117,-1
 384 200 l 1,118,-1
 386 200 l 1,119,-1
 387 200 l 1,120,-1
 388 200 l 1,121,-1
 390 200 l 1,122,-1
 391 200 l 1,123,-1
 392 200 l 1,124,-1
 394 200 l 1,125,-1
 395 200 l 1,126,-1
 397 200 l 1,127,-1
 398 200 l 1,128,-1
 400 200 l 1,129,-1
 401 200 l 1,130,-1
 403 200 l 1,131,-1
 404 200 l 1,132,-1
 406 200 l 1,133,-1
 407 200 l 1,134,-1
 409 200 l 1,135,-1
 411 200 l 1,136,-1
 412 200 l 1,137,-1
 414 200 l 1,138,-1
 415 200 l 1,139,-1
 417 200 l 1,140,-1
 419 200 l 1,141,-1
 420 200 l 1,142,-1
 422 200 l 1,143,-1
 424 200 l 1,144,-1
 425 200 l 1,145,-1
 427 200 l 1,146,-1
 429 200 l 1,147,-1
 430 200 l 1,148,-1
 432 200 l 1,149,-1
 434 200 l 1,150,-1
 436 200 l 1,151,-1
 437 200 l 1,152,-1
 439 200 l 1,153,-1
 441 200 l 1,154,-1
 450 200 l 1,155,156
 450 159 450 159 479.5 129.5 c 128,-1,157
 509 100 509 100 550 100 c 128,-1,158
 591 100 591 100 620.5 129.5 c 128,-1,159
 650 159 650 159 650 200 c 128,-1,160
 650 241 650 241 620.5 270.5 c 128,-1,161
 591 300 591 300 550 300 c 0,162,163
 467 300 467 300 408.5 358.5 c 128,-1,164
 350 417 350 417 350 500 c 128,-1,165
 350 583 350 583 408.5 641.5 c 128,-1,0
 467 700 467 700 550 700 c 128,-1,1
EndSplineSet
EndChar

StartChar: t
Encoding: 116 116 17
Width: 1100
GlyphClass: 1
Flags: MW
LayerCount: 2
Fore
SplineSet
350 700 m 1,0,-1
 350 800 l 1,1,-1
 450 800 l 1,2,-1
 450 1000 l 1,3,-1
 550 1000 l 1,4,-1
 550 800 l 1,5,-1
 750 800 l 1,6,-1
 750 700 l 1,7,-1
 550 700 l 1,8,-1
 550 300 l 2,9,10
 550 217 550 217 608.5 158.5 c 128,-1,11
 667 100 667 100 750 100 c 1,12,-1
 750 0 l 1,13,14
 626 0 626 0 538 88 c 128,-1,15
 450 176 450 176 450 300 c 2,16,-1
 450 700 l 1,17,-1
 350 700 l 1,0,-1
EndSplineSet
EndChar

StartChar: u
Encoding: 117 117 18
Width: 1100
GlyphClass: 1
Flags: MW
LayerCount: 2
Fore
SplineSet
300 700 m 1,0,-1
 400 700 l 1,1,-1
 400 250 l 2,2,3
 400 188 400 188 444 144 c 128,-1,4
 488 100 488 100 550 100 c 128,-1,5
 612 100 612 100 656 144 c 128,-1,6
 700 188 700 188 700 250 c 2,7,-1
 700 700 l 1,8,-1
 800 700 l 1,9,-1
 800 250 l 1,10,-1
 800 0 l 1,11,-1
 700 0 l 1,12,-1
 700 50 l 1,13,14
 633 0 633 0 550 0 c 0,15,16
 447 0 447 0 373.5 73.5 c 128,-1,17
 300 147 300 147 300 250 c 2,18,-1
 300 700 l 1,0,-1
EndSplineSet
EndChar

StartChar: w
Encoding: 119 119 19
Width: 1100
GlyphClass: 1
Flags: MW
LayerCount: 2
Fore
SplineSet
100 700 m 1,0,-1
 205 700 l 1,1,-1
 377.521437321 163.266639445 l 1,2,-1
 500 544 l 1,3,-1
 600 544 l 1,4,-1
 722.478562679 163.266639445 l 1,5,-1
 895 700 l 1,6,-1
 1000 700 l 1,7,-1
 775 0 l 1,8,-1
 670 0 l 1,9,-1
 550 373 l 1,10,-1
 430 0 l 1,11,-1
 325 0 l 1,12,-1
 100 700 l 1,0,-1
EndSplineSet
EndChar

StartChar: a.t
Encoding: 989440 989440 20
Width: 1100
GlyphClass: 1
Flags: MW
LayerCount: 2
Fore
SplineSet
600 900 m 1,0,-1
 702 900 l 1,1,-1
 602 375 l 1,2,-1
 500 375 l 1,3,-1
 600 900 l 1,0,-1
550 200 m 128,-1,5
 529 200 529 200 514.5 185.5 c 128,-1,6
 500 171 500 171 500 150 c 128,-1,7
 500 129 500 129 514.5 114.5 c 128,-1,8
 529 100 529 100 550 100 c 128,-1,9
 571 100 571 100 585.5 114.5 c 128,-1,10
 600 129 600 129 600 150 c 128,-1,11
 600 171 600 171 585.5 185.5 c 128,-1,4
 571 200 571 200 550 200 c 128,-1,5
550 300 m 0,12,13
 601 300 601 300 640.5 269.5 c 128,-1,14
 680 239 680 239 694 192 c 2,15,-1
 750 0 l 1,16,-1
 650 0 l 1,17,-1
 640 30 l 1,18,19
 600 0 600 0 550 0 c 0,20,21
 488 0 488 0 444 44 c 128,-1,22
 400 88 400 88 400 150 c 128,-1,23
 400 212 400 212 444 256 c 128,-1,24
 488 300 488 300 550 300 c 0,12,13
EndSplineSet
Ligature2: "sitelen+-space" a space
Substitution2: "cartouched sitelen" cart.a
EndChar

StartChar: akesi.t
Encoding: 989441 989441 21
Width: 1100
GlyphClass: 1
Flags: MW
LayerCount: 2
Fore
SplineSet
475 538 m 1,0,-1
 625 538 l 1,1,-1
 625 575 l 2,2,3
 625 606 625 606 603 628 c 128,-1,4
 581 650 581 650 550 650 c 128,-1,5
 519 650 519 650 497 628 c 128,-1,6
 475 606 475 606 475 575 c 2,7,-1
 475 538 l 1,0,-1
475 313 m 1,8,-1
 625 313 l 1,9,-1
 625 438 l 1,10,-1
 475 438 l 1,11,-1
 475 313 l 1,8,-1
475 175 m 2,12,13
 475 144 475 144 497 122 c 128,-1,14
 519 100 519 100 550 100 c 128,-1,15
 581 100 581 100 603 122 c 128,-1,16
 625 144 625 144 625 175 c 2,17,-1
 625 213 l 1,18,-1
 475 213 l 1,19,-1
 475 175 l 2,12,13
425 759 m 128,-1,21
 396 759 396 759 375 779.5 c 128,-1,22
 354 800 354 800 354 829.5 c 128,-1,23
 354 859 354 859 375 879.5 c 128,-1,24
 396 900 396 900 425 900 c 128,-1,25
 454 900 454 900 475 879.5 c 128,-1,26
 496 859 496 859 496 829.5 c 128,-1,27
 496 800 496 800 475 779.5 c 128,-1,20
 454 759 454 759 425 759 c 128,-1,21
675 759 m 128,-1,29
 646 759 646 759 625 779.5 c 128,-1,30
 604 800 604 800 604 829.5 c 128,-1,31
 604 859 604 859 625 879.5 c 128,-1,32
 646 900 646 900 675 900 c 128,-1,33
 704 900 704 900 725 879.5 c 128,-1,34
 746 859 746 859 746 829.5 c 128,-1,35
 746 800 746 800 725 779.5 c 128,-1,28
 704 759 704 759 675 759 c 128,-1,29
550 750 m 128,-1,37
 622 750 622 750 673.5 698.5 c 128,-1,38
 725 647 725 647 725 575 c 2,39,-1
 725 538 l 1,40,-1
 825 538 l 1,41,-1
 825 438 l 1,42,-1
 725 438 l 1,43,-1
 725 313 l 1,44,-1
 825 313 l 1,45,-1
 825 213 l 1,46,-1
 725 213 l 1,47,-1
 725 175 l 2,48,49
 725 103 725 103 673.5 51.5 c 128,-1,50
 622 0 622 0 550 0 c 128,-1,51
 478 0 478 0 426.5 51.5 c 128,-1,52
 375 103 375 103 375 175 c 2,53,-1
 375 213 l 1,54,-1
 275 213 l 1,55,-1
 275 313 l 1,56,-1
 375 313 l 1,57,-1
 375 438 l 1,58,-1
 275 438 l 1,59,-1
 275 538 l 1,60,-1
 375 538 l 1,61,-1
 375 575 l 2,62,63
 375 647 375 647 426.5 698.5 c 128,-1,36
 478 750 478 750 550 750 c 128,-1,37
EndSplineSet
LCarets2: 5 0 0 0 0 0
Ligature2: "sitelen+-space" a k e s i space
Substitution2: "cartouched sitelen" cart.akesi
Ligature2: "sitelen" a k e s i
EndChar

StartChar: ala.t
Encoding: 989442 989442 22
Width: 1100
GlyphClass: 1
Flags: MW
LayerCount: 2
Fore
SplineSet
171 900 m 1,0,-1
 550 521 l 1,1,-1
 929 900 l 1,2,-1
 1000 829 l 1,3,-1
 621 450 l 1,4,-1
 1000 71 l 1,5,-1
 929 0 l 1,6,-1
 550 379 l 1,7,-1
 171 0 l 1,8,-1
 100 71 l 1,9,-1
 479 450 l 1,10,-1
 100 829 l 1,11,-1
 171 900 l 1,0,-1
EndSplineSet
LCarets2: 3 0 0 0
Ligature2: "sitelen+-space" a l a space
Substitution2: "cartouched sitelen" cart.ala
Ligature2: "sitelen" a l a
EndChar

StartChar: alasa.t
Encoding: 989443 989443 23
Width: 1100
GlyphClass: 1
Flags: MW
LayerCount: 2
Fore
SplineSet
200 900 m 1,0,1
 282 890 282 890 356.5 851.5 c 128,-1,2
 431 813 431 813 485.5 751.5 c 128,-1,3
 540 690 540 690 570 611 c 0,4,5
 590.802072025 556.221210334 590.802072025 556.221210334 597.179937366 500 c 1,6,-1
 809 500 l 1,7,-1
 699 609 l 1,8,-1
 770 680 l 1,9,-1
 1000 450 l 1,10,-1
 770 220 l 1,11,-1
 699 291 l 1,12,-1
 809 400 l 1,13,-1
 597.179937366 400 l 1,14,15
 590.802072025 343.778789666 590.802072025 343.778789666 570 289 c 0,16,17
 540 210 540 210 485.5 148.5 c 128,-1,18
 431 87 431 87 356.5 48.5 c 128,-1,19
 282 10 282 10 200 0 c 1,20,-1
 200 50 l 1,21,-1
 200 101 l 1,22,-1
 200 400 l 1,23,-1
 100 400 l 1,24,-1
 100 500 l 1,25,-1
 200 500 l 1,26,-1
 200 799 l 1,27,-1
 200 850 l 1,28,-1
 200 900 l 1,0,1
300 500 m 1,29,-1
 496.358402943 500 l 1,30,31
 490.749187557 538.209572988 490.749187557 538.209572988 476.5 575.5 c 0,32,33
 453 637 453 637 411 685 c 0,34,35
 364 737 364 737 300 768 c 1,36,-1
 300 500 l 1,29,-1
300 400 m 1,37,-1
 300 132 l 1,38,39
 364 163 364 163 411 215 c 0,40,41
 453 263 453 263 476.5 324.5 c 0,42,43
 490.749187557 361.790427012 490.749187557 361.790427012 496.358402943 400 c 1,44,-1
 300 400 l 1,37,-1
EndSplineSet
Ligature2: "sitelen+-space" a l a s a space
Substitution2: "cartouched sitelen" cart.alasa
Ligature2: "sitelen" a l a s a
EndChar

StartChar: ale.t
Encoding: 989444 989444 24
Width: 1100
GlyphClass: 1
Flags: MW
LayerCount: 2
Fore
SplineSet
775 575 m 0,0,1
 713 575 713 575 675 525 c 2,2,-1
 614 450 l 1,3,4
 622 441 622 441 634 426 c 128,-1,5
 646 411 646 411 656 399 c 128,-1,6
 666 387 666 387 675 375 c 0,7,8
 693 353 693 353 720 339 c 128,-1,9
 747 325 747 325 775 325 c 0,10,11
 827 325 827 325 863.5 361.5 c 128,-1,12
 900 398 900 398 900 450 c 128,-1,13
 900 502 900 502 863.5 538.5 c 128,-1,14
 827 575 827 575 775 575 c 0,0,1
325 575 m 0,15,16
 273 575 273 575 236.5 538.5 c 128,-1,17
 200 502 200 502 200 450 c 128,-1,18
 200 398 200 398 236.5 361.5 c 128,-1,19
 273 325 273 325 325 325 c 0,20,21
 353 325 353 325 380 339 c 128,-1,22
 407 353 407 353 425 375 c 0,23,24
 436 389 436 389 456 413.5 c 128,-1,25
 476 438 476 438 486 450 c 1,26,-1
 425 525 l 2,27,28
 387 575 387 575 325 575 c 0,15,16
325 675 m 0,29,30
 428 675 428 675 500 591 c 2,31,-1
 550 530 l 1,32,-1
 600 591 l 2,33,34
 632 630 632 630 677.5 652.5 c 128,-1,35
 723 675 723 675 775 675 c 0,36,37
 868 675 868 675 934 609 c 128,-1,38
 1000 543 1000 543 1000 450 c 128,-1,39
 1000 357 1000 357 934 291 c 128,-1,40
 868 225 868 225 775 225 c 0,41,42
 751 225 751 225 729 229.5 c 128,-1,43
 707 234 707 234 690 241.5 c 128,-1,44
 673 249 673 249 658 258 c 128,-1,45
 643 267 643 267 633 276 c 128,-1,46
 623 285 623 285 615.5 292 c 128,-1,47
 608 299 608 299 604 304 c 2,48,-1
 600 309 l 1,49,-1
 550 370 l 1,50,51
 525 339 525 339 500 309 c 0,52,53
 468 270 468 270 422.5 247.5 c 128,-1,54
 377 225 377 225 325 225 c 0,55,56
 232 225 232 225 166 291 c 128,-1,57
 100 357 100 357 100 450 c 128,-1,58
 100 543 100 543 166 609 c 128,-1,59
 232 675 232 675 325 675 c 0,29,30
EndSplineSet
Ligature2: "sitelen+-space" a l i space
Ligature2: "sitelen+-space" a l e space
Substitution2: "cartouched sitelen" cart.ale
Ligature2: "sitelen" a l e
Ligature2: "sitelen" a l i
EndChar

StartChar: anpa.t
Encoding: 989445 989445 25
Width: 1100
GlyphClass: 1
Flags: MW
LayerCount: 2
Fore
SplineSet
603.033203125 146.966796875 m 128,-1,1
 581.065673828 125 581.065673828 125 549.999633789 125 c 128,-1,2
 518.93359375 125 518.93359375 125 496.966796875 146.966796875 c 128,-1,3
 475 168.934326172 475 168.934326172 475 200.000366211 c 128,-1,4
 475 231.06640625 475 231.06640625 496.966796875 253.033203125 c 128,-1,5
 518.93359375 275 518.93359375 275 549.999633789 275 c 128,-1,6
 581.065673828 275 581.065673828 275 603.033203125 253.033203125 c 128,-1,7
 625 231.06640625 625 231.06640625 625 200.000366211 c 128,-1,0
 625 168.934326172 625 168.934326172 603.033203125 146.966796875 c 128,-1,1
99.9990234375 725 m 1,8,-1
 199.998046875 725 l 1,9,-1
 199.998046875 425.002929688 l 1,10,-1
 900.001953125 425.002929688 l 1,11,-1
 900.001953125 725 l 1,12,-1
 1000.00097656 725 l 1,13,-1
 1000.00097656 324.998046875 l 1,14,-1
 99.9990234375 324.998046875 l 1,15,-1
 99.9990234375 725 l 1,8,-1
EndSplineSet
Ligature2: "sitelen+-space" a n p a space
Substitution2: "cartouched sitelen" cart.anpa
Ligature2: "sitelen" a n p a
EndChar

StartChar: ante.t
Encoding: 989446 989446 26
Width: 1100
GlyphClass: 1
Flags: MW
LayerCount: 2
Fore
SplineSet
156 0 m 1,0,-1
 100 83 l 1,1,-1
 550 400 l 1,2,-1
 1000 83 l 1,3,-1
 944 0 l 1,4,-1
 550 278 l 1,5,-1
 156 0 l 1,0,-1
156 900 m 1,6,-1
 550 622 l 1,7,-1
 944 900 l 1,8,-1
 1000 817 l 1,9,-1
 550 500 l 1,10,-1
 100 817 l 1,11,-1
 156 900 l 1,6,-1
EndSplineSet
Ligature2: "sitelen+-space" a n t e space
Substitution2: "cartouched sitelen" cart.ante
Ligature2: "sitelen" a n t e
EndChar

StartChar: anu.t
Encoding: 989447 989447 27
Width: 1100
GlyphClass: 1
Flags: MW
LayerCount: 2
Fore
SplineSet
171 900 m 1,0,-1
 550 521 l 1,1,-1
 929 900 l 1,2,-1
 1000 829 l 1,3,-1
 600 429 l 1,4,-1
 600 0 l 1,5,-1
 500 0 l 1,6,-1
 500 429 l 1,7,-1
 100 829 l 1,8,-1
 171 900 l 1,0,-1
EndSplineSet
Ligature2: "sitelen+-space" a n u space
Substitution2: "cartouched sitelen" cart.anu
Ligature2: "sitelen" a n u
EndChar

StartChar: awen.t
Encoding: 989448 989448 28
Width: 1100
GlyphClass: 1
Flags: MW
LayerCount: 2
Fore
SplineSet
100 0 m 1,0,-1
 100 100 l 1,1,-1
 277.474645354 100 l 1,2,3
 503.091529359 761.189219532 503.091529359 761.189219532 550 900 c 1,4,5
 574.026241596 826.960225549 574.026241596 826.960225549 822.491282085 100 c 1,6,-1
 1000 100 l 1,7,-1
 1000 0 l 1,8,-1
 750 0 l 1,9,-1
 550 588 l 1,10,-1
 350 0 l 1,11,-1
 100 0 l 1,0,-1
EndSplineSet
Ligature2: "sitelen+-space" a w e n space
Substitution2: "cartouched sitelen" cart.awen
Ligature2: "sitelen" a w e n
EndChar

StartChar: e.t
Encoding: 989449 989449 29
Width: 1100
GlyphClass: 1
Flags: MW
LayerCount: 2
Fore
SplineSet
570 871 m 1,0,-1
 1000 450 l 1,1,-1
 570 29 l 1,2,-1
 500 100 l 1,3,-1
 857 450 l 1,4,-1
 500 800 l 1,5,-1
 570 871 l 1,0,-1
170 871 m 1,6,-1
 600 450 l 1,7,-1
 170 29 l 1,8,-1
 100 100 l 1,9,-1
 457 450 l 1,10,-1
 100 800 l 1,11,-1
 170 871 l 1,6,-1
EndSplineSet
Ligature2: "sitelen+-space" e space
Substitution2: "cartouched sitelen" cart.e
EndChar

StartChar: en.t
Encoding: 989450 989450 30
Width: 1100
GlyphClass: 1
Flags: MW
LayerCount: 2
Fore
SplineSet
500 800 m 1,0,-1
 600 800 l 1,1,-1
 600 500 l 1,2,-1
 900 500 l 1,3,-1
 900 400 l 1,4,-1
 600 400 l 1,5,-1
 600 100 l 1,6,-1
 500 100 l 1,7,-1
 500 400 l 1,8,-1
 200 400 l 1,9,-1
 200 500 l 1,10,-1
 500 500 l 1,11,-1
 500 800 l 1,0,-1
EndSplineSet
Ligature2: "sitelen+-space" e n space
Substitution2: "cartouched sitelen" cart.en
Ligature2: "sitelen" e n
EndChar

StartChar: esun.t
Encoding: 989451 989451 31
Width: 1100
GlyphClass: 1
Flags: MW
LayerCount: 2
Fore
SplineSet
325 350 m 0,0,1
 273 350 273 350 236.5 313.5 c 128,-1,2
 200 277 200 277 200 225 c 128,-1,3
 200 173 200 173 236.5 136.5 c 128,-1,4
 273 100 273 100 325 100 c 0,5,6
 369 100 369 100 403.5 128.5 c 128,-1,7
 438 157 438 157 447 201 c 2,8,-1
 465 289 l 1,9,-1
 387 334 l 2,10,11
 359 350 359 350 325 350 c 0,0,1
775 800 m 0,12,13
 730 800 730 800 696 772 c 128,-1,14
 662 744 662 744 653 700 c 0,15,16
 649 684 649 684 643 653 c 128,-1,17
 637 622 637 622 634 611 c 1,18,-1
 713 567 l 2,19,20
 742 550 742 550 775 550 c 0,21,22
 827 550 827 550 863.5 586.5 c 128,-1,23
 900 623 900 623 900 675 c 128,-1,24
 900 727 900 727 863.5 763.5 c 128,-1,25
 827 800 827 800 775 800 c 0,12,13
775 900 m 0,26,27
 868 900 868 900 934 834 c 128,-1,28
 1000 768 1000 768 1000 675 c 128,-1,29
 1000 582 1000 582 934 516 c 128,-1,30
 868 450 868 450 775 450 c 0,31,32
 714 450 714 450 664 479 c 2,33,-1
 613 508 l 1,34,-1
 578 340 l 1,35,-1
 1000 100 l 1,36,-1
 951 13 l 1,37,-1
 557 237 l 1,38,-1
 545 180 l 2,39,40
 529 101 529 101 467 50.5 c 128,-1,41
 405 0 405 0 325 0 c 0,42,43
 232 0 232 0 166 66 c 128,-1,44
 100 132 100 132 100 225 c 128,-1,45
 100 318 100 318 166 384 c 128,-1,46
 232 450 232 450 325 450 c 0,47,48
 386 450 386 450 436 421 c 2,49,-1
 487 392 l 1,50,-1
 521 560 l 1,51,-1
 100 800 l 1,52,-1
 149 887 l 1,53,-1
 543 663 l 1,54,-1
 555 720 l 2,55,56
 571 799 571 799 633 849.5 c 128,-1,57
 695 900 695 900 775 900 c 0,26,27
EndSplineSet
Ligature2: "sitelen+-space" e s u n space
Substitution2: "cartouched sitelen" cart.esun
Ligature2: "sitelen" e s u n
EndChar

StartChar: ijo.t
Encoding: 989452 989452 32
Width: 1100
GlyphClass: 1
Flags: MW
LayerCount: 2
Fore
SplineSet
550 800 m 128,-1,1
 455 800 455 800 374.5 753 c 128,-1,2
 294 706 294 706 247 625.5 c 128,-1,3
 200 545 200 545 200 450 c 128,-1,4
 200 355 200 355 247 274.5 c 128,-1,5
 294 194 294 194 374.5 147 c 128,-1,6
 455 100 455 100 550 100 c 128,-1,7
 645 100 645 100 725.5 147 c 128,-1,8
 806 194 806 194 853 274.5 c 128,-1,9
 900 355 900 355 900 450 c 128,-1,10
 900 545 900 545 853 625.5 c 128,-1,11
 806 706 806 706 725.5 753 c 128,-1,0
 645 800 645 800 550 800 c 128,-1,1
550 900 m 128,-1,13
 641 900 641 900 724.5 864.5 c 128,-1,14
 808 829 808 829 868.5 768.5 c 128,-1,15
 929 708 929 708 964.5 624.5 c 128,-1,16
 1000 541 1000 541 1000 450 c 128,-1,17
 1000 359 1000 359 964.5 275.5 c 128,-1,18
 929 192 929 192 868.5 131.5 c 128,-1,19
 808 71 808 71 724.5 35.5 c 128,-1,20
 641 0 641 0 550 0 c 128,-1,21
 459 0 459 0 375.5 35.5 c 128,-1,22
 292 71 292 71 231.5 131.5 c 128,-1,23
 171 192 171 192 135.5 275.5 c 128,-1,24
 100 359 100 359 100 450 c 128,-1,25
 100 541 100 541 135.5 624.5 c 128,-1,26
 171 708 171 708 231.5 768.5 c 128,-1,27
 292 829 292 829 375.5 864.5 c 128,-1,12
 459 900 459 900 550 900 c 128,-1,13
EndSplineSet
Ligature2: "sitelen+-space" i j o space
Substitution2: "cartouched sitelen" cart.ijo
Ligature2: "sitelen" i j o
EndChar

StartChar: ike.t
Encoding: 989453 989453 33
Width: 1100
GlyphClass: 1
Flags: MW
LayerCount: 2
Fore
SplineSet
550 675 m 128,-1,1
 641 675 641 675 724.5 639.5 c 128,-1,2
 808 604 808 604 868.5 543.5 c 128,-1,3
 929 483 929 483 964.5 399.5 c 128,-1,4
 1000 316 1000 316 1000 225 c 1,5,-1
 999 225 l 1,6,-1
 998 225 l 1,7,-1
 997 225 l 1,8,-1
 996 225 l 1,9,-1
 995 225 l 1,10,-1
 994 225 l 1,11,-1
 993 225 l 1,12,-1
 992 225 l 1,13,-1
 991 225 l 1,14,-1
 990 225 l 1,15,-1
 989 225 l 1,16,-1
 988 225 l 1,17,-1
 987 225 l 1,18,-1
 986 225 l 1,19,-1
 985 225 l 1,20,-1
 984 225 l 1,21,-1
 983 225 l 1,22,-1
 982 225 l 1,23,-1
 981 225 l 1,24,-1
 980 225 l 1,25,-1
 979 225 l 1,26,-1
 978 225 l 1,27,-1
 977 225 l 1,28,-1
 976 225 l 1,29,-1
 975 225 l 1,30,-1
 973 225 l 1,31,-1
 972 225 l 1,32,-1
 971 225 l 1,33,-1
 970 225 l 1,34,-1
 968 225 l 1,35,-1
 967 225 l 1,36,-1
 966 225 l 1,37,-1
 964 225 l 1,38,-1
 963 225 l 1,39,-1
 962 225 l 1,40,-1
 960 225 l 1,41,-1
 959 225 l 1,42,-1
 958 225 l 1,43,-1
 956 225 l 1,44,-1
 955 225 l 1,45,-1
 953 225 l 1,46,-1
 952 225 l 1,47,-1
 950 225 l 1,48,-1
 949 225 l 1,49,-1
 947 225 l 1,50,-1
 946 225 l 1,51,-1
 944 225 l 1,52,-1
 943 225 l 1,53,-1
 941 225 l 1,54,-1
 939 225 l 1,55,-1
 938 225 l 1,56,-1
 936 225 l 1,57,-1
 935 225 l 1,58,-1
 933 225 l 1,59,-1
 931 225 l 1,60,-1
 930 225 l 1,61,-1
 928 225 l 1,62,-1
 926 225 l 1,63,-1
 925 225 l 1,64,-1
 923 225 l 1,65,-1
 921 225 l 1,66,-1
 920 225 l 1,67,-1
 918 225 l 1,68,-1
 916 225 l 1,69,-1
 914 225 l 1,70,-1
 912 225 l 1,71,-1
 911 225 l 1,72,-1
 909 225 l 1,73,-1
 900 225 l 1,74,75
 900 320 900 320 853 400.5 c 128,-1,76
 806 481 806 481 725.5 528 c 128,-1,77
 645 575 645 575 550 575 c 128,-1,78
 455 575 455 575 374.5 528 c 128,-1,79
 294 481 294 481 247 400.5 c 128,-1,80
 200 320 200 320 200 225 c 1,81,-1
 100 225 l 1,82,83
 100 316 100 316 135.5 399.5 c 128,-1,84
 171 483 171 483 231.5 543.5 c 128,-1,85
 292 604 292 604 375.5 639.5 c 128,-1,0
 459 675 459 675 550 675 c 128,-1,1
EndSplineSet
Ligature2: "sitelen+-space" i k e space
Substitution2: "cartouched sitelen" cart.ike
Ligature2: "sitelen" i k e
EndChar

StartChar: ilo.t
Encoding: 989454 989454 34
Width: 1100
GlyphClass: 1
Flags: MW
LayerCount: 2
Fore
SplineSet
600 800 m 1,0,-1
 600 500 l 1,1,-1
 900 500 l 1,2,-1
 900 800 l 1,3,-1
 600 800 l 1,0,-1
200 800 m 1,4,-1
 200 500 l 1,5,-1
 500 500 l 1,6,-1
 500 800 l 1,7,-1
 200 800 l 1,4,-1
100 900 m 1,8,-1
 1000 900 l 1,9,-1
 1000 400 l 1,10,-1
 600 400 l 1,11,-1
 600 0 l 1,12,-1
 500 0 l 1,13,-1
 500 400 l 1,14,-1
 100 400 l 1,15,-1
 100 900 l 1,8,-1
EndSplineSet
Ligature2: "sitelen+-space" i l o space
Substitution2: "cartouched sitelen" cart.ilo
Ligature2: "sitelen" i l o
EndChar

StartChar: insa.t
Encoding: 989455 989455 35
Width: 1100
GlyphClass: 1
Flags: MW
LayerCount: 2
Fore
SplineSet
475 525 m 128,-1,1
 475 556 475 556 497 578 c 128,-1,2
 519 600 519 600 550 600 c 128,-1,3
 581 600 581 600 603 578 c 128,-1,4
 625 556 625 556 625 525 c 128,-1,5
 625 494 625 494 603 472 c 128,-1,6
 581 450 581 450 550 450 c 128,-1,7
 519 450 519 450 497 472 c 128,-1,0
 475 494 475 494 475 525 c 128,-1,1
99.9990234375 650.001953125 m 1,8,-1
 199.998046875 650.001953125 l 1,9,-1
 199.998046875 349.999023438 l 1,10,-1
 900.001953125 349.999023438 l 1,11,-1
 900.001953125 650.001953125 l 1,12,-1
 1000.00097656 650.001953125 l 1,13,-1
 1000.00097656 349.999023438 l 1,14,-1
 1000.00097656 250 l 1,15,-1
 199.998046875 250 l 1,16,-1
 99.9990234375 250 l 1,17,-1
 99.9990234375 349.999023438 l 1,18,-1
 99.9990234375 650.001953125 l 1,8,-1
EndSplineSet
Ligature2: "sitelen+-space" i n s a space
Substitution2: "cartouched sitelen" cart.insa
Ligature2: "sitelen" i n s a
EndChar

StartChar: jaki.t
Encoding: 989456 989456 36
Width: 1100
GlyphClass: 1
Flags: MW
LayerCount: 2
Fore
SplineSet
299 267 m 1,0,1
 275 233 275 233 266 199 c 0,2,3
 256 158 256 158 269 129 c 0,4,5
 275 116 275 116 286 108 c 0,6,7
 295 102 295 102 305 103 c 0,8,9
 316 103 316 103 325 113 c 0,10,11
 335 124 335 124 339 141 c 0,12,13
 347 177 347 177 325 223 c 0,14,15
 316 242 316 242 299 267 c 1,0,1
838 505 m 1,16,17
 836 480 836 480 829 462 c 0,18,19
 812 414 812 414 767 380 c 0,20,21
 738 358 738 358 692 340 c 0,22,23
 688 338 688 338 663.5 329 c 128,-1,24
 639 320 639 320 627 315 c 0,25,26
 598 301 598 301 582 285 c 0,27,28
 561 263 561 263 555.5 231.5 c 128,-1,29
 550 200 550 200 562.5 170 c 128,-1,30
 575 140 575 140 601 122 c 128,-1,31
 627 104 627 104 658 103 c 0,32,33
 701 101 701 101 741 131 c 0,34,35
 778 159 778 159 802 209 c 0,36,37
 839 283 839 283 849 436 c 0,38,39
 851 463 851 463 849 474 c 0,40,41
 848 489 848 489 838 505 c 1,16,17
610 900 m 1,42,-1
 633 799 l 1,43,-1
 434 747 l 2,44,45
 368 730 368 730 337 713 c 0,46,47
 294 689 294 689 272 651 c 0,48,49
 248 612 248 612 250 564 c 0,50,51
 251 519 251 519 276 471 c 0,52,53
 287 450 287 450 310 419 c 1,54,55
 331 436 331 436 354.5 452.5 c 128,-1,56
 378 469 378 469 406 487.5 c 128,-1,57
 434 506 434 506 448 516 c 0,58,59
 457 523 457 523 495 550.5 c 128,-1,60
 533 578 533 578 556 593 c 0,61,62
 582 610 582 610 612 625 c 1,63,64
 552 630 552 630 499 608 c 0,65,66
 431 580 431 580 388 516 c 1,67,-1
 310 578 l 1,68,69
 370 666 370 666 464.5 705 c 128,-1,70
 559 744 559 744 658 723 c 0,71,72
 735 706 735 706 785 653 c 1,73,74
 819 647 819 647 844 633 c 0,75,76
 884 612 884 612 910 576 c 0,77,78
 939 536 939 536 945 488 c 0,79,80
 948 466 948 466 945 429 c 0,81,82
 940 346 940 346 928 282 c 128,-1,83
 916 218 916 218 887 160 c 0,84,85
 852 88 852 88 796 46 c 0,86,87
 730 -4 730 -4 656 -1 c 0,88,89
 597 1 597 1 549 35 c 0,90,91
 499 70 499 70 475 127 c 0,92,93
 450 187 450 187 461 250 c 0,94,95
 472 315 472 315 515 360 c 0,96,97
 544 390 544 390 590 411 c 0,98,99
 601 416 601 416 613 420.5 c 128,-1,100
 625 425 625 425 639 430 c 128,-1,101
 653 435 653 435 659 438 c 0,102,103
 694 451 694 451 712 465 c 0,104,105
 733 481 733 481 739 500 c 0,106,107
 746 517 746 517 741 537 c 0,108,109
 740 542 740 542 736 552 c 1,110,111
 711 551 711 551 707 550 c 0,112,113
 662 541 662 541 605 504 c 0,114,115
 586 491 586 491 549.5 464.5 c 128,-1,116
 513 438 513 438 500 429 c 0,117,118
 484 417 484 417 457 399 c 128,-1,119
 430 381 430 381 409 366.5 c 128,-1,120
 388 352 388 352 370 338 c 1,121,122
 395 302 395 302 410 271 c 0,123,124
 449 190 449 190 432 116 c 0,125,126
 422 70 422 70 392 38 c 0,127,128
 357 2 357 2 310 -1 c 0,129,130
 269 -4 269 -4 233 21 c 0,131,132
 201 44 201 44 183 82 c 0,133,134
 153 147 153 147 174 227 c 0,135,136
 190 290 190 290 237 349 c 1,137,138
 208 388 208 388 192 420 c 0,139,140
 156 490 156 490 154 560 c 0,141,142
 151 640 151 640 190 707 c 0,143,144
 227 769 227 769 293 806 c 0,145,146
 334 828 334 828 412 848 c 2,147,-1
 610 900 l 1,42,-1
EndSplineSet
Ligature2: "sitelen+-space" j a k i space
Substitution2: "cartouched sitelen" cart.jaki
Ligature2: "sitelen" j a k i
EndChar

StartChar: jan.t
Encoding: 989457 989457 37
Width: 1100
GlyphClass: 1
Flags: MW
LayerCount: 2
Fore
SplineSet
550 800 m 128,-1,1
 426 800 426 800 338 712 c 128,-1,2
 250 624 250 624 250 500 c 0,3,4
 250 418 250 418 292.5 348.5 c 128,-1,5
 335 279 335 279 404 239.5 c 128,-1,6
 473 200 473 200 550 200 c 128,-1,7
 627 200 627 200 696 239.5 c 128,-1,8
 765 279 765 279 807.5 348.5 c 128,-1,9
 850 418 850 418 850 500 c 0,10,11
 850 624 850 624 762 712 c 128,-1,0
 674 800 674 800 550 800 c 128,-1,1
550 900 m 128,-1,13
 659 900 659 900 751 846.5 c 128,-1,14
 843 793 843 793 896.5 701 c 128,-1,15
 950 609 950 609 950 500 c 0,16,17
 950 349 950 349 850 235 c 1,18,-1
 1000 67 l 1,19,-1
 925 0 l 1,20,-1
 775 169 l 1,21,22
 673 100 673 100 550 100 c 128,-1,23
 427 100 427 100 326 169 c 1,24,-1
 175 0 l 1,25,-1
 100 67 l 1,26,-1
 250 236 l 1,27,28
 150 349 150 349 150 500 c 0,29,30
 150 609 150 609 203.5 701 c 128,-1,31
 257 793 257 793 349 846.5 c 128,-1,12
 441 900 441 900 550 900 c 128,-1,13
EndSplineSet
Ligature2: "sitelen+-space" j a n space
Substitution2: "cartouched sitelen" cart.jan
Ligature2: "sitelen" j a n
EndChar

StartChar: jelo.t
Encoding: 989458 989458 38
Width: 1100
GlyphClass: 1
Flags: MW
LayerCount: 2
Fore
SplineSet
850 650 m 1,0,-1
 850 550 l 1,1,-1
 743.897537731 550 l 1,2,3
 736.135384553 519.432820416 736.135384553 519.432820416 718.5 492 c 0,4,5
 687 443 687 443 634 418 c 1,6,-1
 900 0 l 1,7,-1
 781 0 l 1,8,-1
 319 0 l 1,9,-1
 200 0 l 1,10,-1
 466 418 l 1,11,12
 413 443 413 443 381.5 492 c 0,13,14
 363.864615447 519.432820416 363.864615447 519.432820416 356.102462269 550 c 1,15,-1
 250 550 l 1,16,-1
 250 650 l 1,17,-1
 355.839235848 650 l 1,18,19
 368.482296857 701.482296857 368.482296857 701.482296857 408.5 741.5 c 128,-1,20
 448.517703143 781.517703143 448.517703143 781.517703143 500 794.160764152 c 1,21,-1
 500 900 l 1,22,-1
 600 900 l 1,23,-1
 600 794.160764152 l 1,24,25
 651.482296857 781.517703143 651.482296857 781.517703143 691.5 741.5 c 128,-1,26
 731.517703143 701.482296857 731.517703143 701.482296857 744.160764152 650 c 1,27,-1
 850 650 l 1,0,-1
550 364 m 1,28,-1
 382 100 l 1,29,-1
 718 100 l 1,30,-1
 550 364 l 1,28,-1
550 700 m 128,-1,32
 509 700 509 700 479.5 670.5 c 128,-1,33
 450 641 450 641 450 600 c 128,-1,34
 450 559 450 559 479.5 529.5 c 128,-1,35
 509 500 509 500 550 500 c 128,-1,36
 591 500 591 500 620.5 529.5 c 128,-1,37
 650 559 650 559 650 600 c 128,-1,38
 650 641 650 641 620.5 670.5 c 128,-1,31
 591 700 591 700 550 700 c 128,-1,32
EndSplineSet
Ligature2: "sitelen+-space" j e l o space
Substitution2: "cartouched sitelen" cart.jelo
Ligature2: "sitelen" j e l o
EndChar

StartChar: jo.t
Encoding: 989459 989459 39
Width: 1100
GlyphClass: 1
Flags: MW
LayerCount: 2
Fore
SplineSet
550 750 m 128,-1,1
 519 750 519 750 497 728 c 128,-1,2
 475 706 475 706 475 675 c 128,-1,3
 475 644 475 644 497 622 c 128,-1,4
 519 600 519 600 550 600 c 128,-1,5
 581 600 581 600 603 622 c 128,-1,6
 625 644 625 644 625 675 c 128,-1,7
 625 706 625 706 603 728 c 128,-1,0
 581 750 581 750 550 750 c 128,-1,1
550 850 m 128,-1,9
 622 850 622 850 673.5 798.5 c 128,-1,10
 725 747 725 747 725 675 c 128,-1,11
 725 603 725 603 673.5 551.5 c 128,-1,12
 622 500 622 500 550 500 c 128,-1,13
 478 500 478 500 426.5 551.5 c 0,14,15
 414.982891291 563.017108709 414.982891291 563.017108709 406.041390214 575.55945929 c 1,16,17
 373.615941274 550.944443287 373.615941274 550.944443287 350.5 515.5 c 0,18,19
 313 458 313 458 312 387 c 0,20,21
 312 289 312 289 382 219.5 c 128,-1,22
 452 150 452 150 550 150 c 128,-1,23
 648 150 648 150 718 219.5 c 0,24,25
 764.732570047 265.898765975 764.732570047 265.898765975 780.266095763 325 c 1,26,-1
 500 325 l 1,27,-1
 500 375 l 1,28,-1
 500 425 l 1,29,-1
 784 425 l 1,30,-1
 885 425 l 1,31,-1
 887 425 l 1,32,-1
 887 402.74011537 l 2,33,34
 887.585786438 394.870057685 887.585786438 394.870057685 888 387 c 0,35,36
 888 296 888 296 842.5 218 c 128,-1,37
 797 140 797 140 719.5 95 c 128,-1,38
 642 50 642 50 550 50 c 128,-1,39
 458 50 458 50 380.5 95 c 128,-1,40
 303 140 303 140 257.5 218 c 128,-1,41
 212 296 212 296 212 387 c 0,42,43
 213 500 213 500 279.5 588.5 c 0,44,45
 320.22023181 642.691586695 320.22023181 642.691586695 375.001212776 675.69831133 c 1,46,47
 375.24991594 747.24991594 375.24991594 747.24991594 426.5 798.5 c 0,48,8
 478 850 478 850 550 850 c 128,-1,9
EndSplineSet
Ligature2: "sitelen+-space" j o space
Substitution2: "cartouched sitelen" cart.jo
Ligature2: "sitelen" j o
EndChar

StartChar: kala.t
Encoding: 989460 989460 40
Width: 1100
GlyphClass: 1
Flags: MW
LayerCount: 2
Fore
SplineSet
700 650 m 0,0,1
 612 650 612 650 554 587 c 2,2,-1
 425 450 l 1,3,-1
 554 313 l 2,4,5
 612 250 612 250 700 250 c 0,6,7
 783 250 783 250 841.5 308.5 c 128,-1,8
 900 367 900 367 900 450 c 128,-1,9
 900 533 900 533 841.5 591.5 c 128,-1,10
 783 650 783 650 700 650 c 0,0,1
700 750 m 0,11,12
 824 750 824 750 912 662 c 128,-1,13
 1000 574 1000 574 1000 450 c 128,-1,14
 1000 326 1000 326 912 238 c 128,-1,15
 824 150 824 150 700 150 c 0,16,17
 637 150 637 150 580 175 c 128,-1,18
 523 200 523 200 481 244 c 2,19,-1
 357 377 l 1,20,-1
 173 181 l 1,21,-1
 100 250 l 1,22,-1
 288 450 l 1,23,-1
 100 650 l 1,24,-1
 173 719 l 1,25,-1
 357 523 l 1,26,-1
 481 656 l 2,27,28
 523 700 523 700 580 725 c 128,-1,29
 637 750 637 750 700 750 c 0,11,12
EndSplineSet
Ligature2: "sitelen+-space" k a l a space
Substitution2: "cartouched sitelen" cart.kala
Ligature2: "sitelen" k a l a
EndChar

StartChar: kalama.t
Encoding: 989461 989461 41
Width: 1100
GlyphClass: 1
Flags: MW
LayerCount: 2
Fore
SplineSet
350 800 m 1,0,-1
 425 575 l 1,1,-1
 320 575 l 1,2,-1
 245 800 l 1,3,-1
 350 800 l 1,0,-1
750 800 m 1,4,-1
 855 800 l 1,5,-1
 780 575 l 1,6,-1
 675 575 l 1,7,-1
 750 800 l 1,4,-1
500 800 m 1,8,-1
 600 800 l 1,9,-1
 600 575 l 1,10,-1
 500 575 l 1,11,-1
 500 800 l 1,8,-1
306 400 m 1,12,13
 323 314 323 314 391.5 257 c 128,-1,14
 460 200 460 200 550 200 c 128,-1,15
 640 200 640 200 708.5 257 c 128,-1,16
 777 314 777 314 795 400 c 1,17,-1
 306 400 l 1,12,13
200 500 m 1,18,-1
 900 500 l 1,19,-1
 900 450 l 2,20,21
 900 355 900 355 853 274.5 c 128,-1,22
 806 194 806 194 725.5 147 c 128,-1,23
 645 100 645 100 550 100 c 128,-1,24
 455 100 455 100 374.5 147 c 128,-1,25
 294 194 294 194 247 274.5 c 128,-1,26
 200 355 200 355 200 450 c 2,27,-1
 200 500 l 1,18,-1
EndSplineSet
Ligature2: "sitelen+-space" k a l a m a space
Substitution2: "cartouched sitelen" cart.kalama
Ligature2: "sitelen" k a l a m a
EndChar

StartChar: kama.t
Encoding: 989462 989462 42
Width: 1100
GlyphClass: 1
Flags: MW
LayerCount: 2
Fore
SplineSet
550 900 m 1,0,-1
 950 189 l 1,1,-1
 1000 100 l 1,2,-1
 903 68 l 1,3,-1
 700 0 l 1,4,-1
 668 95 l 1,5,-1
 853 157 l 1,6,-1
 580 642 l 1,7,-1
 427 96 l 1,8,-1
 400 0 l 1,9,-1
 303 32 l 1,10,-1
 100 100 l 1,11,-1
 132 195 l 1,12,-1
 330 129 l 1,13,-1
 550 900 l 1,0,-1
EndSplineSet
Ligature2: "sitelen+-space" k a m a space
Substitution2: "cartouched sitelen" cart.kama
Ligature2: "sitelen" k a m a
EndChar

StartChar: kasi.t
Encoding: 989463 989463 43
Width: 1100
GlyphClass: 1
Flags: MW
LayerCount: 2
Fore
SplineSet
900 800 m 1,0,1
 776 800 776 800 688 712 c 128,-1,2
 600 624 600 624 600 500 c 1,3,4
 724 500 724 500 812 588 c 128,-1,5
 900 676 900 676 900 800 c 1,0,1
200 800 m 1,6,7
 200 676 200 676 288 588 c 128,-1,8
 376 500 376 500 500 500 c 1,9,10
 500 624 500 624 412 712 c 128,-1,11
 324 800 324 800 200 800 c 1,6,7
100 900 m 1,12,-1
 200 900 l 2,13,14
 311 900 311 900 404.5 843.5 c 128,-1,15
 498 787 498 787 550 693 c 1,16,17
 602 787 602 787 695.5 843.5 c 128,-1,18
 789 900 789 900 900 900 c 2,19,-1
 1000 900 l 1,20,21
 1000 894 1000 894 1000 883.5 c 128,-1,22
 1000 873 1000 873 1000 851 c 128,-1,23
 1000 829 1000 829 1000 814.5 c 2,24,-1
 1000 800 l 2,25,26
 1000 691 1000 691 946.5 599 c 128,-1,27
 893 507 893 507 801 453.5 c 128,-1,28
 709 400 709 400 600 400 c 1,29,-1
 600 0 l 1,30,-1
 500 0 l 1,31,-1
 500 400 l 1,32,33
 391 400 391 400 299 453.5 c 128,-1,34
 207 507 207 507 153.5 599 c 128,-1,35
 100 691 100 691 100 800 c 2,36,-1
 100 900 l 1,12,-1
EndSplineSet
Ligature2: "sitelen+-space" k a s i space
Substitution2: "cartouched sitelen" cart.kasi
Ligature2: "sitelen" k a s i
EndChar

StartChar: ken.t
Encoding: 989464 989464 44
Width: 1100
GlyphClass: 1
Flags: MW
LayerCount: 2
Fore
SplineSet
250 900.001953125 m 1,0,-1
 349.999023438 900.001953125 l 1,1,2
 350.000972733 500.001949295 350.000972733 500.001949295 349.999023438 500 c 1,3,4
 458.580676161 500 458.580676161 500 550.733222426 553.557377079 c 128,-1,5
 642.88576869 607.114754158 642.88576869 607.114754158 696.442884345 699.267492713 c 128,-1,6
 750 791.420231267 750 791.420231267 750 900.001953125 c 1,7,8
 756.353745718 900.019705636 756.353745718 900.019705636 766.746905211 900.042997814 c 128,-1,9
 777.140064704 900.066289993 777.140064704 900.066289993 799.117779848 900.105927967 c 128,-1,10
 821.095494992 900.145565941 821.095494992 900.145565941 835.627642515 900.122099377 c 2,11,-1
 850 900.001953125 l 1,12,13
 849.99350529 753.656663136 849.99350529 753.656663136 772.642716667 632.669657186 c 128,-1,14
 695.291928044 511.682651236 695.291928044 511.682651236 567.892578125 449.998046875 c 1,15,16
 695.290417409 388.314941737 695.290417409 388.314941737 772.641239715 267.32940512 c 128,-1,17
 849.99206202 146.343868503 849.99206202 146.343868503 850 0 c 1,18,19
 844 0 844 0 833.5 0 c 128,-1,20
 823 0 823 0 801 0 c 128,-1,21
 779 0 779 0 764.5 0 c 2,22,-1
 750 0 l 1,23,24
 750 108.581696312 750 108.581696312 696.442873448 200.734209885 c 128,-1,25
 642.885746896 292.886723458 642.885746896 292.886723458 550.733233323 346.44385001 c 128,-1,26
 458.58071975 400.000976562 458.58071975 400.000976562 349.999023438 400.000976562 c 1,27,-1
 349.999023438 0 l 1,28,-1
 250 0 l 1,29,-1
 250 900.001953125 l 1,0,-1
EndSplineSet
Ligature2: "sitelen+-space" k e n space
Substitution2: "cartouched sitelen" cart.ken
Ligature2: "sitelen" k e n
EndChar

StartChar: kepeken.t
Encoding: 989465 989465 45
Width: 1100
GlyphClass: 1
Flags: MW
LayerCount: 2
Fore
SplineSet
150 260 m 1,0,-1
 237 310 l 1,1,-1
 300 200 l 1,2,-1
 300 250 l 2,3,4
 300 353 300 353 373.5 426.5 c 0,5,6
 428.49285551 481.49285551 428.49285551 481.49285551 500 495.339940175 c 1,7,-1
 500 600 l 1,8,-1
 250 600 l 1,9,-1
 250 900 l 1,10,-1
 850 900 l 1,11,-1
 850 600 l 1,12,-1
 600 600 l 1,13,-1
 600 495.339940175 l 1,14,15
 671.50714449 481.49285551 671.50714449 481.49285551 726.5 426.5 c 0,16,17
 800 353 800 353 800 250 c 2,18,-1
 800 0 l 1,19,-1
 700 0 l 1,20,-1
 700 250 l 2,21,22
 700 312 700 312 656 356 c 128,-1,23
 612 400 612 400 550 400 c 128,-1,24
 488 400 488 400 444 356 c 128,-1,25
 400 312 400 312 400 250 c 2,26,-1
 400 0 l 1,27,-1
 300 0 l 1,28,-1
 150 260 l 1,0,-1
600 800 m 1,29,-1
 600 700 l 1,30,-1
 750 700 l 1,31,-1
 750 800 l 1,32,-1
 600 800 l 1,29,-1
350 800 m 1,33,-1
 350 700 l 1,34,-1
 500 700 l 1,35,-1
 500 800 l 1,36,-1
 350 800 l 1,33,-1
EndSplineSet
Ligature2: "sitelen+-space" k e p e k e n space
Substitution2: "cartouched sitelen" cart.kepeken
Ligature2: "sitelen" k e p e k e n
EndChar

StartChar: kili.t
Encoding: 989466 989466 46
Width: 1100
GlyphClass: 1
Flags: MW
LayerCount: 2
Fore
SplineSet
449 900 m 1,0,-1
 550 900 l 1,1,-1
 591.691033544 653.189081418 l 1,2,3
 618.616013516 669.129362571 618.616013516 669.129362571 648 678 c 0,4,5
 734 704 734 704 818 672 c 0,6,7
 901 640 901 640 951 563 c 0,8,9
 997 491 997 491 1000 402 c 0,10,11
 1003 315 1003 315 963 235 c 0,12,13
 926 159 926 159 858 103 c 0,14,15
 731 0 731 0 550 0 c 128,-1,16
 369 0 369 0 243 103 c 0,17,18
 174 159 174 159 137 235 c 0,19,20
 97 315 97 315 100 402 c 0,21,22
 103 491 103 491 149 563 c 0,23,24
 199 640 199 640 282 672 c 0,25,26
 323 687 323 687 366.5 689 c 128,-1,27
 410 691 410 691 452 678 c 0,28,29
 470.6740991 672.362536121 470.6740991 672.362536121 488.355041981 663.869748114 c 1,30,-1
 449 900 l 1,0,-1
370.5 589 m 128,-1,32
 343 588 343 588 318 578 c 0,33,34
 266 558 266 558 233 508 c 0,35,36
 202 460 202 460 200 398 c 0,37,38
 198 337 198 337 227 279 c 0,39,40
 254 222 254 222 306 181 c 0,41,42
 405 100 405 100 550 100 c 128,-1,43
 695 100 695 100 794 181 c 0,44,45
 846 223 846 223 873 279 c 0,46,47
 902 337 902 337 900 398 c 0,48,49
 898 460 898 460 867 508 c 0,50,51
 835 558 835 558 782 578 c 0,52,53
 730 598 730 598 676.5 582 c 128,-1,54
 623 566 623 566 591 521 c 2,55,-1
 550 464 l 1,56,-1
 509 521 l 2,57,58
 477 566 477 566 423 582 c 0,59,31
 398 590 398 590 370.5 589 c 128,-1,32
EndSplineSet
Ligature2: "sitelen+-space" k i l i space
Substitution2: "cartouched sitelen" cart.kili
Ligature2: "sitelen" k i l i
EndChar

StartChar: kiwen.t
Encoding: 989467 989467 47
Width: 1100
GlyphClass: 1
Flags: MW
LayerCount: 2
Fore
SplineSet
358 700 m 1,0,-1
 230 476 l 1,1,-1
 550 227 l 1,2,-1
 870 476 l 1,3,-1
 742 700 l 1,4,-1
 358 700 l 1,0,-1
300 800 m 1,5,-1
 800 800 l 1,6,-1
 1000 450 l 1,7,-1
 550 100 l 1,8,-1
 100 450 l 1,9,-1
 300 800 l 1,5,-1
EndSplineSet
Ligature2: "sitelen+-space" k i w e n space
Substitution2: "cartouched sitelen" cart.kiwen
Ligature2: "sitelen" k i w e n
EndChar

StartChar: ko.t
Encoding: 989468 989468 48
Width: 1100
GlyphClass: 1
Flags: MW
LayerCount: 2
Fore
SplineSet
434.5 794.5 m 128,-1,1
 416 794 416 794 403 788 c 128,-1,2
 390 782 390 782 383 771 c 0,3,4
 377 762 377 762 378 752 c 0,5,6
 378 748 378 748 395 706 c 0,7,8
 405 681 405 681 407 661 c 0,9,10
 411 629 411 629 398 602 c 0,11,12
 381 567 381 567 341 549 c 0,13,14
 321 541 321 541 287 536 c 0,15,16
 263 532 263 532 255 529 c 0,17,18
 252 528 252 528 250 526.5 c 128,-1,19
 248 525 248 525 247 524 c 128,-1,20
 246 523 246 523 247 521 c 0,21,22
 248 516 248 516 253 510 c 0,23,24
 265 498 265 498 301 487 c 0,25,26
 303 487 303 487 318.5 482.5 c 128,-1,27
 334 478 334 478 341.5 475.5 c 128,-1,28
 349 473 349 473 362.5 467 c 128,-1,29
 376 461 376 461 387 455 c 0,30,31
 414 438 414 438 431 414 c 0,32,33
 453 384 453 384 453 349 c 128,-1,34
 453 314 453 314 433 282 c 0,35,36
 419 261 419 261 395 241 c 0,37,38
 390 236 390 236 381.5 229 c 128,-1,39
 373 222 373 222 368.5 218.5 c 128,-1,40
 364 215 364 215 359 210 c 128,-1,41
 354 205 354 205 351 201.5 c 128,-1,42
 348 198 348 198 346 195 c 0,43,44
 340 186 340 186 340 173 c 0,45,46
 340 161 340 161 345 149 c 0,47,48
 357 123 357 123 388 112 c 0,49,50
 418 101 418 101 455 109 c 0,51,52
 489 116 489 116 525 140 c 0,53,54
 538 148 538 148 562.5 167.5 c 128,-1,55
 587 187 587 187 595 193 c 0,56,57
 645 230 645 230 688 243 c 0,58,59
 709 250 709 250 738.5 254.5 c 128,-1,60
 768 259 768 259 776 261 c 0,61,62
 790 266 790 266 798 272 c 0,63,64
 803 277 803 277 804 281 c 0,65,66
 805 283 805 283 803 287 c 0,67,68
 802 293 802 293 797 299 c 0,69,70
 789 310 789 310 761 331 c 0,71,72
 722 360 722 360 705 382 c 0,73,74
 689 402 689 402 682 425 c 0,75,76
 674 453 674 453 679 480 c 0,77,78
 688 525 688 525 729 555 c 0,79,80
 752 571 752 571 791 585 c 0,81,82
 825 597 825 597 835 602 c 0,83,84
 848 609 848 609 852 617 c 0,85,86
 854 622 854 622 853 628 c 0,87,88
 853 635 853 635 848 642 c 0,89,90
 837 659 837 659 811 669 c 0,91,92
 794 675 794 675 744.5 681.5 c 128,-1,93
 695 688 695 688 664 698 c 0,94,95
 618 711 618 711 556.5 746.5 c 128,-1,96
 495 782 495 782 472 789 c 0,97,0
 453 795 453 795 434.5 794.5 c 128,-1,1
432 895 m 0,98,99
 465 895 465 895 500 885 c 0,100,101
 546 872 546 872 608 836 c 128,-1,102
 670 800 670 800 692 794 c 0,103,104
 704 790 704 790 758 783 c 128,-1,105
 812 776 812 776 847 762 c 0,106,107
 904 740 904 740 932 696 c 0,108,109
 949 669 949 669 953 639 c 0,110,111
 957 604 957 604 942 574 c 0,112,113
 925 537 925 537 883 514 c 0,114,115
 866 505 866 505 824 490 c 0,116,117
 798 482 798 482 788 474 c 0,118,119
 778 467 778 467 777 461 c 0,120,121
 777 459 777 459 778 455 c 0,122,123
 780 449 780 449 784 443 c 0,124,125
 793 432 793 432 821 411 c 0,126,127
 860 382 860 382 877 359 c 0,128,129
 892 338 892 338 899 316 c 0,130,131
 908 288 908 288 902 260 c 0,132,133
 894 222 894 222 862 195 c 0,134,135
 838 176 838 176 805 166 c 0,136,137
 784 159 784 159 754.5 154.5 c 128,-1,138
 725 150 725 150 718 148 c 0,139,140
 691 140 691 140 655 113 c 0,141,142
 652 111 652 111 625 89.5 c 128,-1,143
 598 68 598 68 581 57 c 0,144,145
 529 22 529 22 476 11 c 0,146,147
 410 -3 410 -3 353 18 c 0,148,149
 284 44 284 44 255 107 c 0,150,151
 239 140 239 140 240 176 c 0,152,153
 241 214 241 214 260 246 c 0,154,155
 268 259 268 259 278.5 271 c 128,-1,156
 289 283 289 283 296.5 289.5 c 128,-1,157
 304 296 304 296 315 305 c 128,-1,158
 326 314 326 314 330 317 c 0,159,160
 343 328 343 328 349 336 c 0,161,162
 353 343 353 343 353 348 c 0,163,164
 353 352 353 352 350 357 c 0,165,166
 345 363 345 363 335 369 c 0,167,168
 324 376 324 376 272 391 c 0,169,170
 211 409 211 409 181 441 c 0,171,172
 156 467 156 467 149 499 c 0,173,174
 140 539 140 539 160 573 c 0,175,176
 178 606 178 606 218 622 c 0,177,178
 236 629 236 629 271 634 c 0,179,180
 293 638 293 638 301 641 c 0,181,182
 305 643 305 643 308 645 c 2,183,-1
 308 646 l 2,184,185
 308 648 308 648 308 650 c 0,186,187
 307 657 307 657 303 668 c 0,188,189
 301 671 301 671 296.5 681.5 c 128,-1,190
 292 692 292 692 289 699.5 c 128,-1,191
 286 707 286 707 282.5 719.5 c 128,-1,192
 279 732 279 732 278 745 c 0,193,194
 275 789 275 789 300 827 c 0,195,196
 322 860 322 860 361 878 c 0,197,198
 394 894 394 894 432 895 c 0,98,99
EndSplineSet
Ligature2: "sitelen+-space" k o space
Substitution2: "cartouched sitelen" cart.ko
Ligature2: "sitelen" k o
EndChar

StartChar: kon.t
Encoding: 989469 989469 49
Width: 1100
GlyphClass: 1
Flags: MW
LayerCount: 2
Fore
SplineSet
770 340 m 2,0,-1
 650 500 l 2,1,2
 600 567 600 567 600 650 c 0,3,4
 600 754 600 754 673 827 c 128,-1,5
 746 900 746 900 850 900 c 1,6,-1
 850 800 l 1,7,8
 788 800 788 800 744 756 c 128,-1,9
 700 712 700 712 700 650 c 0,10,11
 700 600 700 600 730 560 c 2,12,-1
 850 400 l 2,13,14
 900 333 900 333 900 250 c 0,15,16
 900 146 900 146 827 73 c 128,-1,17
 754 0 754 0 650 0 c 1,18,-1
 650 100 l 1,19,20
 712 100 712 100 756 144 c 128,-1,21
 800 188 800 188 800 250 c 0,22,23
 800 300 800 300 770 340 c 2,0,-1
370 340 m 2,24,-1
 250 500 l 2,25,26
 200 567 200 567 200 650 c 0,27,28
 200 754 200 754 273 827 c 128,-1,29
 346 900 346 900 450 900 c 1,30,-1
 450 800 l 1,31,32
 388 800 388 800 344 756 c 128,-1,33
 300 712 300 712 300 650 c 0,34,35
 300 600 300 600 330 560 c 2,36,-1
 450 400 l 2,37,38
 500 333 500 333 500 250 c 0,39,40
 500 146 500 146 427 73 c 128,-1,41
 354 0 354 0 250 0 c 1,42,-1
 250 100 l 1,43,44
 312 100 312 100 356 144 c 128,-1,45
 400 188 400 188 400 250 c 0,46,47
 400 300 400 300 370 340 c 2,24,-1
EndSplineSet
Ligature2: "sitelen+-space" k o n space
Substitution2: "cartouched sitelen" cart.kon
Ligature2: "sitelen" k o n
EndChar

StartChar: kule.t
Encoding: 989470 989470 50
Width: 1100
GlyphClass: 1
Flags: MW
LayerCount: 2
Fore
SplineSet
387 350 m 1,0,-1
 262 100 l 1,1,-1
 838 100 l 1,2,-1
 713 350 l 1,3,-1
 387 350 l 1,0,-1
550 676 m 1,4,-1
 437 450 l 1,5,-1
 663 450 l 1,6,-1
 550 676 l 1,4,-1
550 900 m 1,7,-1
 775 450 l 1,8,-1
 1000 450 l 1,9,-1
 1000 350 l 1,10,-1
 825 350 l 1,11,-1
 1000 0 l 1,12,-1
 100 0 l 1,13,-1
 275 350 l 1,14,-1
 100 350 l 1,15,-1
 100 450 l 1,16,-1
 325 450 l 1,17,-1
 550 900 l 1,7,-1
EndSplineSet
Ligature2: "sitelen+-space" k u l e space
Substitution2: "cartouched sitelen" cart.kule
Ligature2: "sitelen" k u l e
EndChar

StartChar: kulupu.t
Encoding: 989471 989471 51
Width: 1100
GlyphClass: 1
Flags: MW
LayerCount: 2
Fore
SplineSet
800 325 m 128,-1,1
 759 325 759 325 729.5 295.5 c 128,-1,2
 700 266 700 266 700 225 c 128,-1,3
 700 184 700 184 729.5 154.5 c 128,-1,4
 759 125 759 125 800 125 c 128,-1,5
 841 125 841 125 870.5 154.5 c 128,-1,6
 900 184 900 184 900 225 c 128,-1,7
 900 266 900 266 870.5 295.5 c 128,-1,0
 841 325 841 325 800 325 c 128,-1,1
800 425 m 128,-1,9
 883 425 883 425 941.5 366.5 c 128,-1,10
 1000 308 1000 308 1000 225 c 128,-1,11
 1000 142 1000 142 941.5 83.5 c 128,-1,12
 883 25 883 25 800 25 c 128,-1,13
 717 25 717 25 658.5 83.5 c 128,-1,14
 600 142 600 142 600 225 c 128,-1,15
 600 308 600 308 658.5 366.5 c 128,-1,8
 717 425 717 425 800 425 c 128,-1,9
300 325 m 128,-1,17
 259 325 259 325 229.5 295.5 c 128,-1,18
 200 266 200 266 200 225 c 128,-1,19
 200 184 200 184 229.5 154.5 c 128,-1,20
 259 125 259 125 300 125 c 128,-1,21
 341 125 341 125 370.5 154.5 c 128,-1,22
 400 184 400 184 400 225 c 128,-1,23
 400 266 400 266 370.5 295.5 c 128,-1,16
 341 325 341 325 300 325 c 128,-1,17
300 425 m 128,-1,25
 383 425 383 425 441.5 366.5 c 128,-1,26
 500 308 500 308 500 225 c 128,-1,27
 500 142 500 142 441.5 83.5 c 128,-1,28
 383 25 383 25 300 25 c 128,-1,29
 217 25 217 25 158.5 83.5 c 128,-1,30
 100 142 100 142 100 225 c 128,-1,31
 100 308 100 308 158.5 366.5 c 128,-1,24
 217 425 217 425 300 425 c 128,-1,25
550 775 m 128,-1,33
 509 775 509 775 479.5 745.5 c 128,-1,34
 450 716 450 716 450 675 c 128,-1,35
 450 634 450 634 479.5 604.5 c 128,-1,36
 509 575 509 575 550 575 c 128,-1,37
 591 575 591 575 620.5 604.5 c 128,-1,38
 650 634 650 634 650 675 c 128,-1,39
 650 716 650 716 620.5 745.5 c 128,-1,32
 591 775 591 775 550 775 c 128,-1,33
550 875 m 128,-1,41
 633 875 633 875 691.5 816.5 c 128,-1,42
 750 758 750 758 750 675 c 128,-1,43
 750 592 750 592 691.5 533.5 c 128,-1,44
 633 475 633 475 550 475 c 128,-1,45
 467 475 467 475 408.5 533.5 c 128,-1,46
 350 592 350 592 350 675 c 128,-1,47
 350 758 350 758 408.5 816.5 c 128,-1,40
 467 875 467 875 550 875 c 128,-1,41
EndSplineSet
Ligature2: "sitelen+-space" k u l u p u space
Substitution2: "cartouched sitelen" cart.kulupu
Ligature2: "sitelen" k u l u p u
EndChar

StartChar: kute.t
Encoding: 989472 989472 52
Width: 1100
GlyphClass: 1
Flags: MW
LayerCount: 2
Fore
SplineSet
581 653 m 1,0,1
 600 616 600 616 600 575 c 0,2,3
 600 503 600 503 548.5 451.5 c 128,-1,4
 497 400 497 400 425 400 c 1,5,6
 425 406 425 406 425 416.5 c 128,-1,7
 425 427 425 427 425 449 c 128,-1,8
 425 471 425 471 425 485.5 c 2,9,-1
 425 500 l 1,10,11
 456 500 456 500 478 522 c 128,-1,12
 500 544 500 544 500 575 c 0,13,14
 500 593 500 593 492 608 c 1,15,-1
 581 653 l 1,0,1
500 900 m 0,16,17
 595 900 595 900 675.5 853 c 128,-1,18
 756 806 756 806 803 725.5 c 128,-1,19
 850 645 850 645 850 550 c 0,20,21
 850 424 850 424 770 328 c 2,22,-1
 500 0 l 1,23,-1
 423 63 l 1,24,25
 440 84 440 84 468 118 c 128,-1,26
 496 152 496 152 555 224 c 128,-1,27
 614 296 614 296 653.5 343.5 c 2,28,-1
 693 391 l 2,29,30
 750 460 750 460 750 550 c 0,31,32
 750 653 750 653 676.5 726.5 c 128,-1,33
 603 800 603 800 500 800 c 0,34,35
 443 800 443 800 392.5 775.5 c 128,-1,36
 342 751 342 751 307 709 c 1,37,-1
 230 772 l 1,38,39
 279 832 279 832 349.5 866 c 128,-1,40
 420 900 420 900 500 900 c 0,16,17
EndSplineSet
Ligature2: "sitelen+-space" k u t e space
Substitution2: "cartouched sitelen" cart.kute
Ligature2: "sitelen" k u t e
EndChar

StartChar: la.t
Encoding: 989473 989473 53
Width: 1100
GlyphClass: 1
Flags: MW
LayerCount: 2
Fore
SplineSet
450 900 m 1,0,1
 586 843 586 843 668 720.5 c 128,-1,2
 750 598 750 598 750 450 c 128,-1,3
 750 302 750 302 668 179.5 c 128,-1,4
 586 57 586 57 450 0 c 1,5,-1
 412 92 l 1,6,7
 520 137 520 137 585 235 c 128,-1,8
 650 333 650 333 650 450 c 128,-1,9
 650 567 650 567 585 665 c 128,-1,10
 520 763 520 763 412 808 c 1,11,-1
 450 900 l 1,0,1
EndSplineSet
Ligature2: "sitelen+-space" l a space
Substitution2: "cartouched sitelen" cart.la
Ligature2: "sitelen" l a
EndChar

StartChar: lape.t
Encoding: 989474 989474 54
Width: 1100
GlyphClass: 1
Flags: MW
LayerCount: 2
Fore
SplineSet
800 550 m 128,-1,1
 759 550 759 550 729.5 520.5 c 128,-1,2
 700 491 700 491 700 450 c 128,-1,3
 700 409 700 409 729.5 379.5 c 128,-1,4
 759 350 759 350 800 350 c 128,-1,5
 841 350 841 350 870.5 379.5 c 128,-1,6
 900 409 900 409 900 450 c 128,-1,7
 900 491 900 491 870.5 520.5 c 128,-1,0
 841 550 841 550 800 550 c 128,-1,1
800 650 m 0,8,9
 883 650 883 650 941.5 591.5 c 128,-1,10
 1000 533 1000 533 1000 450 c 128,-1,11
 1000 367 1000 367 941.5 308.5 c 128,-1,12
 883 250 883 250 800 250 c 0,13,14
 731 250 731 250 677.5 292.5 c 128,-1,15
 624 335 624 335 607 400 c 1,16,-1
 100 400 l 1,17,-1
 100 500 l 1,18,-1
 607 500 l 1,19,20
 624 565 624 565 677.5 607.5 c 128,-1,21
 731 650 731 650 800 650 c 0,8,9
EndSplineSet
Ligature2: "sitelen+-space" l a p e space
Substitution2: "cartouched sitelen" cart.lape
Ligature2: "sitelen" l a p e
EndChar

StartChar: laso.t
Encoding: 989475 989475 55
Width: 1100
GlyphClass: 1
Flags: MW
LayerCount: 2
Fore
SplineSet
750 800 m 1,0,1
 688 800 688 800 644 756 c 128,-1,2
 600 712 600 712 600 650 c 1,3,4
 662 650 662 650 706 694 c 128,-1,5
 750 738 750 738 750 800 c 1,0,1
350 800 m 1,6,7
 350 738 350 738 394 694 c 128,-1,8
 438 650 438 650 500 650 c 1,9,10
 500 712 500 712 456 756 c 128,-1,11
 412 800 412 800 350 800 c 1,6,7
250 900 m 1,12,-1
 350 900 l 2,13,14
 410 900 410 900 462.5 873 c 128,-1,15
 515 846 515 846 550 800 c 1,16,17
 585 846 585 846 637.5 873 c 128,-1,18
 690 900 690 900 750 900 c 2,19,-1
 850 900 l 1,20,-1
 850 800 l 2,21,22
 850 697 850 697 776.5 623.5 c 128,-1,23
 703 550 703 550 600 550 c 1,24,-1
 600 471.428571429 l 1,25,-1
 900 0 l 1,26,-1
 781 0 l 1,27,-1
 319 0 l 1,28,-1
 200 0 l 1,29,-1
 500 471.428571429 l 1,30,-1
 500 550 l 1,31,32
 397 550 397 550 323.5 623.5 c 128,-1,33
 250 697 250 697 250 800 c 2,34,-1
 250 900 l 1,12,-1
550 364 m 1,35,-1
 382 100 l 1,36,-1
 718 100 l 1,37,-1
 550 364 l 1,35,-1
EndSplineSet
Ligature2: "sitelen+-space" l a s o space
Substitution2: "cartouched sitelen" cart.laso
Ligature2: "sitelen" l a s o
EndChar

StartChar: lawa.t
Encoding: 989476 989476 56
Width: 1100
GlyphClass: 1
Flags: MW
LayerCount: 2
Fore
SplineSet
475 725 m 128,-1,1
 361 725 361 725 280.5 644.5 c 0,2,3
 248.411475886 612.411475886 248.411475886 612.411475886 229.113925435 575 c 1,4,-1
 720.886074565 575 l 1,5,6
 701.588524114 612.411475886 701.588524114 612.411475886 669.5 644.5 c 0,7,0
 589 725 589 725 475 725 c 128,-1,1
475 825 m 0,8,9
 577 825 577 825 663.5 775 c 128,-1,10
 750 725 750 725 800 638.5 c 0,11,12
 817.78576114 607.730633228 817.78576114 607.730633228 829.244856293 575 c 1,13,-1
 1000 575 l 1,14,-1
 1000 475 l 1,15,-1
 849.234768647 475 l 1,16,17
 850 462.61861086 850 462.61861086 850 450 c 0,18,19
 850 348 850 348 800 261.5 c 128,-1,20
 750 175 750 175 663.5 125 c 128,-1,21
 577 75 577 75 475 75 c 0,22,23
 320 75 320 75 210 185 c 128,-1,24
 100 295 100 295 100 450 c 128,-1,25
 100 605 100 605 210 715 c 128,-1,26
 320 825 320 825 475 825 c 0,8,9
201.00034687 475 m 1,27,28
 200 462.708146709 200 462.708146709 200 450 c 0,29,30
 200 336 200 336 280.5 255.5 c 128,-1,31
 361 175 361 175 475 175 c 128,-1,32
 589 175 589 175 669.5 255.5 c 128,-1,33
 750 336 750 336 750 450 c 0,34,35
 750 462.708146709 750 462.708146709 748.99965313 475 c 1,36,-1
 201.00034687 475 l 1,27,28
EndSplineSet
Ligature2: "sitelen+-space" l a w a space
Substitution2: "cartouched sitelen" cart.lawa
Ligature2: "sitelen" l a w a
EndChar

StartChar: len.t
Encoding: 989477 989477 57
Width: 1100
GlyphClass: 1
Flags: MW
LayerCount: 2
Fore
SplineSet
300 800 m 1,0,-1
 300 400 l 1,1,-1
 800 400 l 1,2,-1
 800 800 l 1,3,-1
 300 800 l 1,0,-1
200 900 m 1,4,-1
 300 900 l 1,5,-1
 900 900 l 1,6,-1
 900 0 l 1,7,-1
 800 0 l 1,8,-1
 800 300 l 1,9,-1
 600 300 l 1,10,-1
 600 0 l 1,11,-1
 500 0 l 1,12,-1
 500 300 l 1,13,-1
 300 300 l 1,14,-1
 300 0 l 1,15,-1
 200 0 l 1,16,-1
 200 900 l 1,4,-1
EndSplineSet
Ligature2: "sitelen+-space" l e n space
Substitution2: "cartouched sitelen" cart.len
Ligature2: "sitelen" l e n
EndChar

StartChar: lete.t
Encoding: 989478 989478 58
Width: 1100
GlyphClass: 1
Flags: MW
LayerCount: 2
Fore
SplineSet
368 865 m 1,0,-1
 550 550 l 1,1,-1
 732 865 l 1,2,-1
 818 815 l 1,3,-1
 637 500 l 1,4,-1
 1000 500 l 1,5,-1
 1000 400 l 1,6,-1
 637 400 l 1,7,-1
 818 85 l 1,8,-1
 732 35 l 1,9,-1
 550 350 l 1,10,-1
 368 35 l 1,11,-1
 282 85 l 1,12,-1
 463 400 l 1,13,-1
 100 400 l 1,14,-1
 100 500 l 1,15,-1
 463 500 l 1,16,-1
 282 815 l 1,17,-1
 368 865 l 1,0,-1
EndSplineSet
Ligature2: "sitelen+-space" l e t e space
Substitution2: "cartouched sitelen" cart.lete
Ligature2: "sitelen" l e t e
EndChar

StartChar: li.t
Encoding: 989479 989479 59
Width: 1100
GlyphClass: 1
Flags: MW
LayerCount: 2
Fore
SplineSet
395 871 m 1,0,-1
 825 450 l 1,1,-1
 395 29 l 1,2,-1
 325 100 l 1,3,-1
 682 450 l 1,4,-1
 325 800 l 1,5,-1
 395 871 l 1,0,-1
EndSplineSet
Ligature2: "sitelen+-space" l i space
Substitution2: "cartouched sitelen" cart.li
Ligature2: "sitelen" l i
EndChar

StartChar: lili.t
Encoding: 989480 989480 60
Width: 1100
GlyphClass: 1
Flags: MW
LayerCount: 2
Fore
SplineSet
475 600 m 1,0,-1
 550 484 l 1,1,-1
 625 600 l 1,2,-1
 709 546 l 1,3,-1
 550 300 l 1,4,-1
 391 546 l 1,5,-1
 475 600 l 1,0,-1
EndSplineSet
Ligature2: "sitelen+-space" l i l i space
Substitution2: "cartouched sitelen" cart.lili
Ligature2: "sitelen" l i l i
EndChar

StartChar: linja.t
Encoding: 989481 989481 61
Width: 1100
GlyphClass: 1
Flags: MW
LayerCount: 2
Fore
SplineSet
440 430 m 2,0,-1
 600 550 l 2,1,2
 667 600 667 600 750 600 c 0,3,4
 854 600 854 600 927 527 c 128,-1,5
 1000 454 1000 454 1000 350 c 1,6,-1
 900 350 l 1,7,8
 900 412 900 412 856 456 c 128,-1,9
 812 500 812 500 750 500 c 0,10,11
 700 500 700 500 660 470 c 2,12,-1
 500 350 l 2,13,14
 433 300 433 300 350 300 c 0,15,16
 246 300 246 300 173 373 c 128,-1,17
 100 446 100 446 100 550 c 1,18,-1
 200 550 l 1,19,20
 200 488 200 488 244 444 c 128,-1,21
 288 400 288 400 350 400 c 0,22,23
 400 400 400 400 440 430 c 2,0,-1
EndSplineSet
LCarets2: 5 0 0 0 0 0
Ligature2: "sitelen+-space" l i n j a space
Substitution2: "cartouched sitelen" cart.linja
Ligature2: "sitelen" l i n j a
EndChar

StartChar: lipu.t
Encoding: 989482 989482 62
Width: 1100
GlyphClass: 1
Flags: MW
LayerCount: 2
Fore
SplineSet
300 800 m 1,0,-1
 300 100 l 1,1,-1
 800 100 l 1,2,-1
 800 800 l 1,3,-1
 300 800 l 1,0,-1
200 900 m 1,4,-1
 300 900 l 1,5,-1
 900 900 l 1,6,-1
 900 0 l 1,7,-1
 850 0 l 1,8,-1
 800 0 l 1,9,-1
 300 0 l 1,10,-1
 275 0 l 1,11,-1
 200 0 l 1,12,-1
 200 800 l 1,13,-1
 200 900 l 1,4,-1
EndSplineSet
Ligature2: "sitelen+-space" l i p u space
Substitution2: "cartouched sitelen" cart.lipu
Ligature2: "sitelen" l i p u
EndChar

StartChar: loje.t
Encoding: 989483 989483 63
Width: 1100
GlyphClass: 1
Flags: MW
LayerCount: 2
Fore
SplineSet
550 364 m 1,0,-1
 382 100 l 1,1,-1
 718 100 l 1,2,-1
 550 364 l 1,0,-1
550 550 m 128,-1,4
 426 550 426 550 338 638 c 128,-1,5
 250 726 250 726 250 850 c 2,6,-1
 250 900 l 1,7,-1
 350 900 l 1,8,-1
 750 900 l 1,9,-1
 850 900 l 1,10,-1
 850 850 l 2,11,12
 850 726 850 726 762 638 c 128,-1,3
 674 550 674 550 550 550 c 128,-1,4
550 550 m 1,13,-1
 900 0 l 1,14,-1
 781 0 l 1,15,-1
 319 0 l 1,16,-1
 200 0 l 1,17,-1
 550 550 l 1,13,-1
355.839235848 800 m 1,18,19
 368.482296857 748.517703143 368.482296857 748.517703143 408.5 708.5 c 0,20,21
 467 650 467 650 550 650 c 128,-1,22
 633 650 633 650 691.5 708.5 c 0,23,24
 731.517703143 748.517703143 731.517703143 748.517703143 744.160764152 800 c 1,25,-1
 355.839235848 800 l 1,18,19
EndSplineSet
Ligature2: "sitelen+-space" l o j e space
Substitution2: "cartouched sitelen" cart.loje
Ligature2: "sitelen" l o j e
EndChar

StartChar: lon.t
Encoding: 989484 989484 64
Width: 1100
GlyphClass: 1
Flags: MW
LayerCount: 2
Fore
SplineSet
475 575 m 128,-1,1
 475 606 475 606 497 628 c 128,-1,2
 519 650 519 650 550 650 c 128,-1,3
 581 650 581 650 603 628 c 128,-1,4
 625 606 625 606 625 575 c 128,-1,5
 625 544 625 544 603 522 c 128,-1,6
 581 500 581 500 550 500 c 128,-1,7
 519 500 519 500 497 522 c 128,-1,0
 475 544 475 544 475 575 c 128,-1,1
100 325 m 1,8,-1
 100 425 l 1,9,-1
 1000 425 l 1,10,-1
 1000 325 l 1,11,-1
 100 325 l 1,8,-1
EndSplineSet
Ligature2: "sitelen+-space" l o n space
Substitution2: "cartouched sitelen" cart.lon
Ligature2: "sitelen" l o n
EndChar

StartChar: luka.t
Encoding: 989485 989485 65
Width: 1100
GlyphClass: 1
Flags: MW
LayerCount: 2
Fore
SplineSet
650 900 m 128,-1,1
 774 900 774 900 862 812 c 128,-1,2
 950 724 950 724 950 600 c 2,3,-1
 950 0 l 1,4,-1
 850 0 l 1,5,-1
 850 600 l 2,6,7
 850 683 850 683 791.5 741.5 c 128,-1,8
 733 800 733 800 650 800 c 128,-1,9
 567 800 567 800 508.5 741.5 c 128,-1,10
 450 683 450 683 450 600 c 2,11,-1
 450 0 l 1,12,-1
 350 0 l 1,13,-1
 100 300 l 1,14,-1
 177 364 l 1,15,-1
 350 156.4 l 1,16,-1
 350 600 l 2,17,18
 350 724 350 724 438 812 c 128,-1,0
 526 900 526 900 650 900 c 128,-1,1
EndSplineSet
Ligature2: "sitelen+-space" l u k a space
Substitution2: "cartouched sitelen" cart.luka
Ligature2: "sitelen" l u k a
EndChar

StartChar: lukin.t
Encoding: 989486 989486 66
Width: 1100
GlyphClass: 1
Flags: MW
LayerCount: 2
Fore
SplineSet
475 450 m 128,-1,1
 475 481 475 481 497 503 c 128,-1,2
 519 525 519 525 550 525 c 128,-1,3
 581 525 581 525 603 503 c 128,-1,4
 625 481 625 481 625 450 c 128,-1,5
 625 419 625 419 603 397 c 128,-1,6
 581 375 581 375 550 375 c 128,-1,7
 519 375 519 375 497 397 c 128,-1,0
 475 419 475 419 475 450 c 128,-1,1
550.306640625 599.53125 m 128,-1,9
 438.882551723 599.53125 438.882551723 599.53125 341.482421875 545.420898438 c 0,10,11
 274.412733121 508.159310062 274.412733121 508.159310062 223.385742188 448.46484375 c 1,12,13
 274.409128354 388.777589283 274.409128354 388.777589283 341.482421875 351.514648438 c 0,14,15
 438.882551723 297.404296875 438.882551723 297.404296875 550.306640625 297.404296875 c 128,-1,16
 661.735612339 297.404296875 661.735612339 297.404296875 759.135742188 351.514648438 c 0,17,18
 826.210358987 388.779137256 826.210358987 388.779137256 877.232421875 448.46484375 c 1,19,20
 826.202579053 508.160894472 826.202579053 508.160894472 759.135742188 545.420898438 c 0,21,8
 661.735612339 599.53125 661.735612339 599.53125 550.306640625 599.53125 c 128,-1,9
550.306640625 699.530273438 m 128,-1,23
 687.653762387 699.530273438 687.653762387 699.530273438 807.701171875 632.8359375 c 0,24,25
 927.457881938 566.305762107 927.457881938 566.305762107 1000 450 c 0,26,27
 999.484809875 449.264213562 999.484809875 449.264213562 998.919921875 448.46484375 c 0,28,29
 999.48647887 447.66616637 999.48647887 447.66616637 1000 446.935546875 c 0,30,31
 927.457881938 330.629784768 927.457881938 330.629784768 807.701171875 264.099609375 c 0,32,33
 687.653762387 197.405273438 687.653762387 197.405273438 550.306640625 197.405273438 c 128,-1,34
 412.964922113 197.405273438 412.964922113 197.405273438 292.916015625 264.099609375 c 0,35,36
 173.166946699 330.626537349 173.166946699 330.626537349 100.623046875 446.930664062 c 0,37,38
 101.178852309 447.718679314 101.178852309 447.718679314 101.708984375 448.46484375 c 0,39,40
 101.180848836 449.211029887 101.180848836 449.211029887 100.623046875 450.004882812 c 0,41,42
 173.166946699 566.309009526 173.166946699 566.309009526 292.916015625 632.8359375 c 0,43,22
 412.964922113 699.530273438 412.964922113 699.530273438 550.306640625 699.530273438 c 128,-1,23
EndSplineSet
LCarets2: 5 0 0 0 0 0
Ligature2: "sitelen+-space" l u k i n space
Substitution2: "cartouched sitelen" cart.lukin
Ligature2: "sitelen" l u k i n
EndChar

StartChar: lupa.t
Encoding: 989487 989487 67
Width: 1100
GlyphClass: 1
Flags: MW
LayerCount: 2
Fore
SplineSet
550 0 m 128,-1,1
 426 0 426 0 338 88 c 128,-1,2
 250 176 250 176 250 300 c 2,3,-1
 250 900 l 1,4,-1
 350 900 l 1,5,-1
 350 300 l 2,6,7
 350 217 350 217 408.5 158.5 c 128,-1,8
 467 100 467 100 550 100 c 128,-1,9
 633 100 633 100 691.5 158.5 c 128,-1,10
 750 217 750 217 750 300 c 2,11,-1
 750 900 l 1,12,-1
 850 900 l 1,13,-1
 850 300 l 2,14,15
 850 176 850 176 762 88 c 128,-1,0
 674 0 674 0 550 0 c 128,-1,1
EndSplineSet
Ligature2: "sitelen+-space" l u p a space
Substitution2: "cartouched sitelen" cart.lupa
Ligature2: "sitelen" l u p a
EndChar

StartChar: ma.t
Encoding: 989488 989488 68
Width: 1100
GlyphClass: 1
Flags: MW
LayerCount: 2
Fore
SplineSet
600 400 m 1,0,-1
 600 104 l 1,1,2
 715 120 715 120 797.5 202.5 c 128,-1,3
 880 285 880 285 896 400 c 1,4,-1
 600 400 l 1,0,-1
204 400 m 1,5,6
 221 286 221 286 303.5 203.5 c 128,-1,7
 386 121 386 121 500 104 c 1,8,-1
 500 400 l 1,9,-1
 204 400 l 1,5,6
600 796 m 1,10,-1
 600 500 l 1,11,-1
 896 500 l 1,12,13
 879 614 879 614 796.5 696.5 c 128,-1,14
 714 779 714 779 600 796 c 1,10,-1
500 796 m 1,15,16
 386 779 386 779 303.5 696.5 c 128,-1,17
 221 614 221 614 204 500 c 1,18,-1
 500 500 l 1,19,-1
 500 796 l 1,15,16
550 900 m 128,-1,21
 641 900 641 900 724.5 864.5 c 128,-1,22
 808 829 808 829 868.5 768.5 c 128,-1,23
 929 708 929 708 964.5 624.5 c 128,-1,24
 1000 541 1000 541 1000 450 c 128,-1,25
 1000 359 1000 359 964.5 275.5 c 128,-1,26
 929 192 929 192 868.5 131.5 c 128,-1,27
 808 71 808 71 724.5 35.5 c 128,-1,28
 641 0 641 0 550 0 c 128,-1,29
 459 0 459 0 375.5 35.5 c 128,-1,30
 292 71 292 71 231.5 131.5 c 128,-1,31
 171 192 171 192 135.5 275.5 c 128,-1,32
 100 359 100 359 100 450 c 128,-1,33
 100 541 100 541 135.5 624.5 c 128,-1,34
 171 708 171 708 231.5 768.5 c 128,-1,35
 292 829 292 829 375.5 864.5 c 128,-1,20
 459 900 459 900 550 900 c 128,-1,21
EndSplineSet
Ligature2: "sitelen+-space" m a space
Substitution2: "cartouched sitelen" cart.ma
Ligature2: "sitelen" m a
EndChar

StartChar: mama.t
Encoding: 989489 989489 69
Width: 1100
GlyphClass: 1
Flags: MW
LayerCount: 2
Fore
SplineSet
550 800 m 128,-1,1
 457 800 457 800 391 734 c 128,-1,2
 325 668 325 668 325 575 c 128,-1,3
 325 482 325 482 391 416 c 128,-1,4
 457 350 457 350 550 350 c 128,-1,5
 643 350 643 350 709 416 c 128,-1,6
 775 482 775 482 775 575 c 128,-1,7
 775 668 775 668 709 734 c 128,-1,0
 643 800 643 800 550 800 c 128,-1,1
550 900 m 128,-1,9
 638 900 638 900 713 856.5 c 128,-1,10
 788 813 788 813 831.5 738 c 128,-1,11
 875 663 875 663 875 575 c 128,-1,12
 875 487 875 487 831.5 412 c 128,-1,13
 788 337 788 337 713 293.5 c 0,14,15
 701.22135274 286.668384589 701.22135274 286.668384589 689.122069942 280.909665021 c 1,16,17
 725 235.09558558 725 235.09558558 725 175 c 0,18,19
 725 103 725 103 673.5 51.5 c 128,-1,20
 622 0 622 0 550 0 c 128,-1,21
 478 0 478 0 426.5 51.5 c 128,-1,22
 375 103 375 103 375 175 c 0,23,24
 375 235.09558558 375 235.09558558 410.877930058 280.909665021 c 1,25,26
 398.77864726 286.668384589 398.77864726 286.668384589 387 293.5 c 0,27,28
 312 337 312 337 268.5 412 c 128,-1,29
 225 487 225 487 225 575 c 128,-1,30
 225 663 225 663 268.5 738 c 128,-1,31
 312 813 312 813 387 856.5 c 128,-1,8
 462 900 462 900 550 900 c 128,-1,9
550 250 m 128,-1,33
 519 250 519 250 497 228 c 128,-1,34
 475 206 475 206 475 175 c 128,-1,35
 475 144 475 144 497 122 c 128,-1,36
 519 100 519 100 550 100 c 128,-1,37
 581 100 581 100 603 122 c 128,-1,38
 625 144 625 144 625 175 c 128,-1,39
 625 206 625 206 603 228 c 128,-1,32
 581 250 581 250 550 250 c 128,-1,33
EndSplineSet
Ligature2: "sitelen+-space" m a m a space
Substitution2: "cartouched sitelen" cart.mama
Ligature2: "sitelen" m a m a
EndChar

StartChar: mani.t
Encoding: 989490 989490 70
Width: 1100
GlyphClass: 1
Flags: MW
LayerCount: 2
Fore
SplineSet
550 700 m 128,-1,1
 447 700 447 700 373.5 626.5 c 128,-1,2
 300 553 300 553 300 450 c 128,-1,3
 300 347 300 347 373.5 273.5 c 128,-1,4
 447 200 447 200 550 200 c 128,-1,5
 653 200 653 200 726.5 273.5 c 128,-1,6
 800 347 800 347 800 450 c 128,-1,7
 800 553 800 553 726.5 626.5 c 128,-1,0
 653 700 653 700 550 700 c 128,-1,1
550 800 m 128,-1,9
 645 800 645 800 725.5 753 c 0,10,11
 782.976422628 719.442337099 782.976422628 719.442337099 823.375022364 668.806851307 c 1,12,13
 840.766325061 678.766325061 840.766325061 678.766325061 856 694 c 0,14,15
 900 738 900 738 900 800 c 1,16,-1
 1000 800 l 1,17,18
 1000 724 1000 724 958.5 662 c 0,19,20
 924.997657845 611.948308105 924.997657845 611.948308105 874.225010192 582.751324735 c 1,21,22
 900 520.351591646 900 520.351591646 900 450 c 0,23,24
 900 355 900 355 853 274.5 c 128,-1,25
 806 194 806 194 725.5 147 c 128,-1,26
 645 100 645 100 550 100 c 128,-1,27
 455 100 455 100 374.5 147 c 128,-1,28
 294 194 294 194 247 274.5 c 128,-1,29
 200 355 200 355 200 450 c 0,30,31
 200 520.351591646 200 520.351591646 225.774989808 582.751324735 c 1,32,33
 175.002342155 611.948308105 175.002342155 611.948308105 141.5 662 c 0,34,35
 100 724 100 724 100 800 c 1,36,-1
 200 800 l 1,37,38
 200 738 200 738 244 694 c 0,39,40
 259.233674939 678.766325061 259.233674939 678.766325061 276.624977636 668.806851307 c 1,41,42
 317.023577372 719.442337099 317.023577372 719.442337099 374.5 753 c 0,43,8
 455 800 455 800 550 800 c 128,-1,9
EndSplineSet
Ligature2: "sitelen+-space" m a n i space
Substitution2: "cartouched sitelen" cart.mani
Ligature2: "sitelen" m a n i
EndChar

StartChar: meli.t
Encoding: 989491 989491 71
Width: 1100
GlyphClass: 1
Flags: MW
LayerCount: 2
Fore
SplineSet
550 625 m 128,-1,1
 478 625 478 625 426.5 573.5 c 128,-1,2
 375 522 375 522 375 450 c 128,-1,3
 375 378 375 378 426.5 326.5 c 128,-1,4
 478 275 478 275 550 275 c 128,-1,5
 622 275 622 275 673.5 326.5 c 128,-1,6
 725 378 725 378 725 450 c 128,-1,7
 725 522 725 522 673.5 573.5 c 128,-1,0
 622 625 622 625 550 625 c 128,-1,1
550 725 m 128,-1,9
 664 725 664 725 744.5 644.5 c 128,-1,10
 825 564 825 564 825 450 c 128,-1,11
 825 336 825 336 744.5 255.5 c 128,-1,12
 664 175 664 175 550 175 c 128,-1,13
 436 175 436 175 355.5 255.5 c 128,-1,14
 275 336 275 336 275 450 c 128,-1,15
 275 564 275 564 355.5 644.5 c 128,-1,8
 436 725 436 725 550 725 c 128,-1,9
550 900 m 128,-1,17
 641 900 641 900 724.5 864.5 c 128,-1,18
 808 829 808 829 868.5 768.5 c 128,-1,19
 929 708 929 708 964.5 624.5 c 128,-1,20
 1000 541 1000 541 1000 450 c 2,21,-1
 1000 0 l 1,22,-1
 900 0 l 1,23,-1
 900 450 l 2,24,25
 900 545 900 545 853 625.5 c 128,-1,26
 806 706 806 706 725.5 753 c 128,-1,27
 645 800 645 800 550 800 c 128,-1,28
 455 800 455 800 374.5 753 c 128,-1,29
 294 706 294 706 247 625.5 c 128,-1,30
 200 545 200 545 200 450 c 2,31,-1
 200 0 l 1,32,-1
 100 0 l 1,33,-1
 100 450 l 2,34,35
 100 541 100 541 135.5 624.5 c 128,-1,36
 171 708 171 708 231.5 768.5 c 128,-1,37
 292 829 292 829 375.5 864.5 c 128,-1,16
 459 900 459 900 550 900 c 128,-1,17
EndSplineSet
Ligature2: "sitelen+-space" m e l i space
Substitution2: "cartouched sitelen" cart.meli
Ligature2: "sitelen" m e l i
EndChar

StartChar: mi.t
Encoding: 989492 989492 72
Width: 1100
GlyphClass: 1
Flags: MW
LayerCount: 2
Fore
SplineSet
550 800 m 128,-1,1
 509 800 509 800 479.5 770.5 c 128,-1,2
 450 741 450 741 450 700 c 128,-1,3
 450 659 450 659 479.5 629.5 c 128,-1,4
 509 600 509 600 550 600 c 128,-1,5
 591 600 591 600 620.5 629.5 c 128,-1,6
 650 659 650 659 650 700 c 128,-1,7
 650 741 650 741 620.5 770.5 c 128,-1,0
 591 800 591 800 550 800 c 128,-1,1
550 900 m 0,8,9
 633 900 633 900 691.5 841.5 c 128,-1,10
 750 783 750 783 750 700 c 128,-1,11
 750 617 750 617 691.5 558.5 c 128,-1,12
 633 500 633 500 550 500 c 0,13,14
 478 500 478 500 423 546 c 1,15,16
 418 497 418 497 418 450 c 0,17,18
 418 310 418 310 453 175 c 0,19,20
 471 106 471 106 499 38 c 1,21,-1
 406 0 l 1,22,23
 376 74 376 74 356 150 c 0,24,25
 318 298 318 298 318 450 c 128,-1,26
 318 602 318 602 356 750 c 0,27,28
 373 816 373 816 427.5 858 c 128,-1,29
 482 900 482 900 550 900 c 0,8,9
EndSplineSet
Substitution2: "cartouched sitelen" cart.mi
Ligature2: "sitelen" m i
EndChar

StartChar: mije.t
Encoding: 989493 989493 73
Width: 1100
GlyphClass: 1
Flags: MW
LayerCount: 2
Fore
SplineSet
550 800 m 128,-1,1
 436 800 436 800 355.5 719.5 c 128,-1,2
 275 639 275 639 275 525 c 128,-1,3
 275 411 275 411 355.5 330.5 c 0,4,5
 372.557112298 313.442887702 372.557112298 313.442887702 391.118280794 300 c 1,6,-1
 393 300 l 1,7,8
 464 250 464 250 550 250 c 128,-1,9
 636 250 636 250 707 300 c 1,10,-1
 708.881719206 300 l 1,11,12
 727.442887702 313.442887702 727.442887702 313.442887702 744.5 330.5 c 0,13,14
 825 411 825 411 825 525 c 128,-1,15
 825 639 825 639 744.5 719.5 c 128,-1,0
 664 800 664 800 550 800 c 128,-1,1
550 900 m 128,-1,17
 652 900 652 900 738.5 850 c 128,-1,18
 825 800 825 800 875 713.5 c 128,-1,19
 925 627 925 627 925 525 c 128,-1,20
 925 423 925 423 875 336.5 c 0,21,22
 863.934158502 317.356094209 863.934158502 317.356094209 851.080505423 300 c 1,23,-1
 1000 300 l 1,24,-1
 1000 0 l 1,25,-1
 900 0 l 1,26,-1
 900 200 l 1,27,-1
 738.5 200 l 1,28,29
 652 150 652 150 550 150 c 128,-1,30
 448 150 448 150 361.5 200 c 1,31,-1
 200 200 l 1,32,-1
 200 0 l 1,33,-1
 100 0 l 1,34,-1
 100 200 l 1,35,-1
 100 300 l 1,36,-1
 200 300 l 2,37,38
 212 300 212 300 232 300 c 2,39,-1
 248.919494577 300 l 1,40,41
 236.065841498 317.356094209 236.065841498 317.356094209 225 336.5 c 0,42,43
 175 423 175 423 175 525 c 128,-1,44
 175 627 175 627 225 713.5 c 128,-1,45
 275 800 275 800 361.5 850 c 128,-1,16
 448 900 448 900 550 900 c 128,-1,17
EndSplineSet
Ligature2: "sitelen+-space" m i j e space
Substitution2: "cartouched sitelen" cart.mije
Ligature2: "sitelen" m i j e
EndChar

StartChar: moku.t
Encoding: 989494 989494 74
Width: 1100
GlyphClass: 1
Flags: MW
LayerCount: 2
Fore
SplineSet
150 260 m 1,0,-1
 237 310 l 1,1,-1
 300 200.8 l 1,2,-1
 300 300 l 2,3,4
 300 403 300 403 373.5 476.5 c 128,-1,5
 447 550 447 550 550 550 c 128,-1,6
 653 550 653 550 726.5 476.5 c 128,-1,7
 800 403 800 403 800 300 c 2,8,-1
 800 0 l 1,9,-1
 700 0 l 1,10,-1
 700 300 l 2,11,12
 700 362 700 362 656 406 c 128,-1,13
 612 450 612 450 550 450 c 128,-1,14
 488 450 488 450 444 406 c 128,-1,15
 400 362 400 362 400 300 c 2,16,-1
 400 0 l 1,17,-1
 300 0 l 1,18,-1
 150 260 l 1,0,-1
550 600 m 128,-1,20
 447 600 447 600 373.5 673.5 c 128,-1,21
 300 747 300 747 300 850 c 2,22,-1
 300 900 l 1,23,-1
 800 900 l 1,24,-1
 800 850 l 2,25,26
 800 747 800 747 726.5 673.5 c 128,-1,19
 653 600 653 600 550 600 c 128,-1,20
701 850 m 1,27,-1
 702 850 l 1,28,-1
 703 850 l 1,29,-1
 704 850 l 1,30,-1
 705 850 l 1,31,-1
 706 850 l 1,32,-1
 707 850 l 1,33,-1
 708 850 l 1,34,-1
 709 850 l 1,35,-1
 710 850 l 1,36,-1
 711 850 l 1,37,-1
 712 850 l 1,38,-1
 713 850 l 1,39,-1
 714 850 l 1,40,-1
 715 850 l 1,41,-1
 716 850 l 1,42,-1
 717 850 l 1,43,-1
 718 850 l 1,44,-1
 719 850 l 1,45,-1
 720 850 l 1,46,-1
 721 850 l 1,47,-1
 722 850 l 1,48,-1
 723 850 l 1,49,-1
 724 850 l 1,50,-1
 725 850 l 1,51,-1
 727 850 l 1,52,-1
 728 850 l 1,53,-1
 729 850 l 1,54,-1
 730 850 l 1,55,-1
 732 850 l 1,56,-1
 733 850 l 1,57,-1
 734 850 l 1,58,-1
 736 850 l 1,59,-1
 737 850 l 1,60,-1
 738 850 l 1,61,-1
 740 850 l 1,62,-1
 741 850 l 1,63,-1
 742 850 l 1,64,-1
 744 850 l 1,65,-1
 745 850 l 1,66,-1
 747 850 l 1,67,-1
 748 850 l 1,68,-1
 750 850 l 1025,69,-1
691.861540443 800 m 1,70,-1
 408.138459557 800 l 1,71,72
 418.923324774 769.076675226 418.923324774 769.076675226 444 744 c 0,73,74
 488 700 488 700 550 700 c 128,-1,75
 612 700 612 700 656 744 c 0,76,77
 681.076675226 769.076675226 681.076675226 769.076675226 691.861540443 800 c 1,70,-1
EndSplineSet
LCarets2: 4 0 0 0 0
Ligature2: "sitelen+-space" m o k u space
Substitution2: "cartouched sitelen" cart.moku
Ligature2: "sitelen" m o k u
EndChar

StartChar: moli.t
Encoding: 989495 989495 75
Width: 1100
GlyphClass: 1
Flags: MW
LayerCount: 2
Fore
SplineSet
634 616 m 1,0,-1
 704 546 l 1,1,-1
 775 616 l 1,2,-1
 846 546 l 1,3,-1
 775 475 l 1,4,-1
 846 404 l 1,5,-1
 775 334 l 1,6,-1
 704 404 l 1,7,-1
 634 334 l 1,8,-1
 563 404 l 1,9,-1
 634 475 l 1,10,-1
 563 546 l 1,11,-1
 634 616 l 1,0,-1
325 616 m 1,12,-1
 396 546 l 1,13,-1
 466 616 l 1,14,-1
 537 546 l 1,15,-1
 466 475 l 1,16,-1
 537 404 l 1,17,-1
 466 334 l 1,18,-1
 396 404 l 1,19,-1
 325 334 l 1,20,-1
 254 404 l 1,21,-1
 325 475 l 1,22,-1
 254 546 l 1,23,-1
 325 616 l 1,12,-1
550 800 m 128,-1,25
 455 800 455 800 374.5 753 c 128,-1,26
 294 706 294 706 247 625.5 c 128,-1,27
 200 545 200 545 200 450 c 128,-1,28
 200 355 200 355 247 274.5 c 128,-1,29
 294 194 294 194 374.5 147 c 128,-1,30
 455 100 455 100 550 100 c 128,-1,31
 645 100 645 100 725.5 147 c 128,-1,32
 806 194 806 194 853 274.5 c 128,-1,33
 900 355 900 355 900 450 c 128,-1,34
 900 545 900 545 853 625.5 c 128,-1,35
 806 706 806 706 725.5 753 c 128,-1,24
 645 800 645 800 550 800 c 128,-1,25
550 900 m 128,-1,37
 641 900 641 900 724.5 864.5 c 128,-1,38
 808 829 808 829 868.5 768.5 c 128,-1,39
 929 708 929 708 964.5 624.5 c 128,-1,40
 1000 541 1000 541 1000 450 c 128,-1,41
 1000 359 1000 359 964.5 275.5 c 128,-1,42
 929 192 929 192 868.5 131.5 c 128,-1,43
 808 71 808 71 724.5 35.5 c 128,-1,44
 641 0 641 0 550 0 c 128,-1,45
 459 0 459 0 375.5 35.5 c 128,-1,46
 292 71 292 71 231.5 131.5 c 128,-1,47
 171 192 171 192 135.5 275.5 c 128,-1,48
 100 359 100 359 100 450 c 128,-1,49
 100 541 100 541 135.5 624.5 c 128,-1,50
 171 708 171 708 231.5 768.5 c 128,-1,51
 292 829 292 829 375.5 864.5 c 128,-1,36
 459 900 459 900 550 900 c 128,-1,37
EndSplineSet
Ligature2: "sitelen+-space" m o l i space
Substitution2: "cartouched sitelen" cart.moli
Ligature2: "sitelen" m o l i
EndChar

StartChar: monsi.t
Encoding: 989496 989496 76
Width: 1100
GlyphClass: 1
Flags: MW
LayerCount: 2
Fore
SplineSet
225 450 m 128,-1,1
 225 481 225 481 247 503 c 128,-1,2
 269 525 269 525 300 525 c 128,-1,3
 331 525 331 525 353 503 c 128,-1,4
 375 481 375 481 375 450 c 128,-1,5
 375 419 375 419 353 397 c 128,-1,6
 331 375 331 375 300 375 c 128,-1,7
 269 375 269 375 247 397 c 128,-1,0
 225 419 225 419 225 450 c 128,-1,1
425.002929688 900.001953125 m 1,8,-1
 525.001953125 900.001953125 l 1,9,-1
 824.999023438 900.001953125 l 1,10,-1
 824.999023438 799.998046875 l 1,11,-1
 525.001953125 799.998046875 l 1,12,-1
 525.001953125 99.9990234375 l 1,13,-1
 824.999023438 99.9990234375 l 1,14,-1
 824.999023438 0 l 1,15,-1
 525.001953125 0 l 1,16,-1
 425.002929688 0 l 1,17,-1
 425.002929688 99.9990234375 l 1,18,-1
 425.002929688 799.998046875 l 1,19,-1
 425.002929688 900.001953125 l 1,8,-1
EndSplineSet
LCarets2: 5 0 0 0 0 0
Ligature2: "sitelen+-space" m o n s i space
Substitution2: "cartouched sitelen" cart.monsi
Ligature2: "sitelen" m o n s i
EndChar

StartChar: mu.t
Encoding: 989497 989497 77
Width: 1100
GlyphClass: 1
Flags: MW
LayerCount: 2
Fore
SplineSet
600 225 m 128,-1,1
 579 204 579 204 550 204 c 128,-1,2
 521 204 521 204 500 225 c 128,-1,3
 479 246 479 246 479 275 c 128,-1,4
 479 304 479 304 500 325 c 128,-1,5
 521 346 521 346 550 346 c 128,-1,6
 579 346 579 346 600 325 c 128,-1,7
 621 304 621 304 621 275 c 128,-1,0
 621 246 621 246 600 225 c 128,-1,1
825 775 m 128,-1,9
 794 775 794 775 772 753 c 128,-1,10
 750 731 750 731 750 700 c 128,-1,11
 750 669 750 669 772 647 c 128,-1,12
 794 625 794 625 825 625 c 128,-1,13
 856 625 856 625 878 647 c 128,-1,14
 900 669 900 669 900 700 c 128,-1,15
 900 731 900 731 878 753 c 128,-1,8
 856 775 856 775 825 775 c 128,-1,9
825 875 m 128,-1,17
 897 875 897 875 948.5 823.5 c 128,-1,18
 1000 772 1000 772 1000 700 c 128,-1,19
 1000 628 1000 628 948.5 576.5 c 0,20,21
 911.719991679 539.719991679 911.719991679 539.719991679 864.484044156 529.207342816 c 1,22,23
 900 457.582196512 900 457.582196512 900 375 c 0,24,25
 900 280 900 280 853 199.5 c 128,-1,26
 806 119 806 119 725.5 72 c 128,-1,27
 645 25 645 25 550 25 c 128,-1,28
 455 25 455 25 374.5 72 c 128,-1,29
 294 119 294 119 247 199.5 c 128,-1,30
 200 280 200 280 200 375 c 0,31,32
 200 457.582196512 200 457.582196512 235.515955844 529.207342816 c 1,33,34
 188.280008321 539.719991679 188.280008321 539.719991679 151.5 576.5 c 0,35,36
 100 628 100 628 100 700 c 128,-1,37
 100 772 100 772 151.5 823.5 c 128,-1,38
 203 875 203 875 275 875 c 128,-1,39
 347 875 347 875 398.5 823.5 c 0,40,41
 446.121139324 775.878860676 446.121139324 775.878860676 449.707853201 710.729454911 c 1,42,43
 497.652619113 725 497.652619113 725 550 725 c 128,-1,44
 602.347380887 725 602.347380887 725 650.292146799 710.729454911 c 1,45,46
 653.878860676 775.878860676 653.878860676 775.878860676 701.5 823.5 c 0,47,16
 753 875 753 875 825 875 c 128,-1,17
275 775 m 128,-1,49
 244 775 244 775 222 753 c 128,-1,50
 200 731 200 731 200 700 c 128,-1,51
 200 669 200 669 222 647 c 128,-1,52
 244 625 244 625 275 625 c 128,-1,53
 306 625 306 625 328 647 c 128,-1,54
 350 669 350 669 350 700 c 128,-1,55
 350 731 350 731 328 753 c 128,-1,48
 306 775 306 775 275 775 c 128,-1,49
549 625 m 128,-1,57
 446 625 446 625 373 552 c 128,-1,58
 300 479 300 479 300 376 c 128,-1,59
 300 273 300 273 373 200.5 c 128,-1,60
 446 128 446 128 549 128 c 128,-1,61
 652 128 652 128 724.5 200.5 c 128,-1,62
 797 273 797 273 797 376 c 128,-1,63
 797 479 797 479 724.5 552 c 128,-1,56
 652 625 652 625 549 625 c 128,-1,57
EndSplineSet
Ligature2: "sitelen+-space" m u space
Substitution2: "cartouched sitelen" cart.mu
Ligature2: "sitelen" m u
EndChar

StartChar: mun.t
Encoding: 989498 989498 78
Width: 1100
GlyphClass: 1
Flags: MW
LayerCount: 2
Fore
SplineSet
501 799 m 0,0,1
 492 799 492 799 483 798 c 1,2,3
 561 735 561 735 605.5 642 c 128,-1,4
 650 549 650 549 650 449.5 c 128,-1,5
 650 350 650 350 606 257 c 128,-1,6
 562 164 562 164 484 101 c 1,7,8
 555 97 555 97 623 122.5 c 128,-1,9
 691 148 691 148 742 196.5 c 128,-1,10
 793 245 793 245 821.5 312 c 128,-1,11
 850 379 850 379 850 449.5 c 128,-1,12
 850 520 850 520 821.5 587 c 128,-1,13
 793 654 793 654 742 702 c 0,14,15
 694 748 694 748 630.5 773 c 128,-1,16
 567 798 567 798 501 799 c 0,0,1
510 899 m 0,17,18
 607 897 607 897 694 855 c 0,19,20
 811 800 811 800 880.5 690 c 128,-1,21
 950 580 950 580 950 450 c 128,-1,22
 950 320 950 320 881 210 c 128,-1,23
 812 100 812 100 694.5 44 c 128,-1,24
 577 -12 577 -12 448 3 c 128,-1,25
 319 18 319 18 218 100 c 1,26,27
 284 103 284 103 346 131.5 c 128,-1,28
 408 160 408 160 454 208 c 128,-1,29
 500 256 500 256 525 319.5 c 128,-1,30
 550 383 550 383 550 449.5 c 128,-1,31
 550 516 550 516 524.5 579 c 128,-1,32
 499 642 499 642 453 690.5 c 128,-1,33
 407 739 407 739 345 767 c 128,-1,34
 283 795 283 795 217 798 c 1,35,36
 318 880 318 880 447 896 c 0,37,38
 478 899 478 899 510 899 c 0,17,18
EndSplineSet
Ligature2: "sitelen+-space" m u n space
Substitution2: "cartouched sitelen" cart.mun
Ligature2: "sitelen" m u n
EndChar

StartChar: musi.t
Encoding: 989499 989499 79
Width: 1100
GlyphClass: 1
Flags: MW
LayerCount: 2
Fore
SplineSet
825 800 m 128,-1,1
 794 800 794 800 772 778 c 128,-1,2
 750 756 750 756 750 725 c 128,-1,3
 750 694 750 694 772 672 c 128,-1,4
 794 650 794 650 825 650 c 128,-1,5
 856 650 856 650 878 672 c 128,-1,6
 900 694 900 694 900 725 c 128,-1,7
 900 756 900 756 878 778 c 128,-1,0
 856 800 856 800 825 800 c 128,-1,1
275 800 m 128,-1,9
 244 800 244 800 222 778 c 128,-1,10
 200 756 200 756 200 725 c 128,-1,11
 200 694 200 694 222 672 c 128,-1,12
 244 650 244 650 275 650 c 128,-1,13
 306 650 306 650 328 672 c 128,-1,14
 350 694 350 694 350 725 c 128,-1,15
 350 756 350 756 328 778 c 128,-1,8
 306 800 306 800 275 800 c 128,-1,9
275 900 m 128,-1,17
 347 900 347 900 398.5 848.5 c 128,-1,18
 450 797 450 797 450 725 c 128,-1,19
 450 653 450 653 398.5 601.5 c 128,-1,20
 347 550 347 550 275 550 c 0,21,22
 271 550 271 550 267 551 c 1,23,24
 252 520 252 520 244 490 c 0,25,26
 221 395 221 395 256 303 c 128,-1,27
 291 211 291 211 371.5 155.5 c 128,-1,28
 452 100 452 100 550 100 c 128,-1,29
 648 100 648 100 728.5 155.5 c 128,-1,30
 809 211 809 211 844 303 c 128,-1,31
 879 395 879 395 856 490 c 0,32,33
 848 520 848 520 833 551 c 1,34,35
 829 550 829 550 825 550 c 0,36,37
 753 550 753 550 701.5 601.5 c 128,-1,38
 650 653 650 653 650 725 c 128,-1,39
 650 797 650 797 701.5 848.5 c 128,-1,40
 753 900 753 900 825 900 c 128,-1,41
 897 900 897 900 948.5 848.5 c 128,-1,42
 1000 797 1000 797 1000 725 c 0,43,44
 1000 682 1000 682 980.5 645 c 128,-1,45
 961 608 961 608 928 584 c 1,46,47
 944 548 944 548 953 514 c 0,48,49
 984 388 984 388 938 267.5 c 128,-1,50
 892 147 892 147 785.5 73.5 c 128,-1,51
 679 0 679 0 550 0 c 128,-1,52
 421 0 421 0 314.5 73.5 c 128,-1,53
 208 147 208 147 162 267.5 c 128,-1,54
 116 388 116 388 147 514 c 0,55,56
 156 548 156 548 172 584 c 1,57,58
 139 608 139 608 119.5 645 c 128,-1,59
 100 682 100 682 100 725 c 0,60,61
 100 797 100 797 151.5 848.5 c 128,-1,16
 203 900 203 900 275 900 c 128,-1,17
EndSplineSet
Ligature2: "sitelen+-space" m u s i space
Substitution2: "cartouched sitelen" cart.musi
Ligature2: "sitelen" m u s i
EndChar

StartChar: mute.t
Encoding: 989500 989500 80
Width: 1100
GlyphClass: 1
Flags: MW
LayerCount: 2
Fore
SplineSet
750 850 m 1,0,-1
 850 850 l 1,1,-1
 850 50 l 1,2,-1
 750 50 l 1,3,-1
 750 850 l 1,0,-1
500 850 m 1,4,-1
 600 850 l 1,5,-1
 600 50 l 1,6,-1
 500 50 l 1,7,-1
 500 850 l 1,4,-1
250 850 m 1,8,-1
 350 850 l 1,9,-1
 350 50 l 1,10,-1
 250 50 l 1,11,-1
 250 850 l 1,8,-1
EndSplineSet
Ligature2: "sitelen+-space" m u t e space
Substitution2: "cartouched sitelen" cart.mute
Ligature2: "sitelen" m u t e
EndChar

StartChar: nanpa.t
Encoding: 989501 989501 81
Width: 1100
GlyphClass: 1
Flags: MW
LayerCount: 2
Fore
SplineSet
775 225 m 1,0,-1
 775 0 l 1,1,-1
 675 0 l 1,2,-1
 675 225 l 1,3,-1
 425 225 l 1,4,-1
 425 0 l 1,5,-1
 325 0 l 1,6,-1
 325 225 l 1,7,-1
 100 225 l 1,8,-1
 100 325 l 1,9,-1
 325 325 l 1,10,-1
 325 575 l 1,11,-1
 100 575 l 1,12,-1
 100 675 l 1,13,-1
 325 675 l 1,14,-1
 325 900 l 1,15,-1
 425 900 l 1,16,-1
 425 675 l 1,17,-1
 675 675 l 1,18,-1
 675 900 l 1,19,-1
 775 900 l 1,20,-1
 775 675 l 1,21,-1
 1000 675 l 1,22,-1
 1000 575 l 1,23,-1
 775 575 l 1,24,-1
 775 325 l 1,25,-1
 1000 325 l 1,26,-1
 1000 225 l 1,27,-1
 775 225 l 1,0,-1
675 325 m 1,28,-1
 675 575 l 1,29,-1
 425 575 l 1,30,-1
 425 325 l 1,31,-1
 675 325 l 1,28,-1
EndSplineSet
Ligature2: "sitelen+-space" n a n p a space
Substitution2: "cartouched sitelen" cart.nanpa
Ligature2: "sitelen" n a n p a
EndChar

StartChar: nasa.t
Encoding: 989502 989502 82
Width: 1100
GlyphClass: 1
Flags: MW
LayerCount: 2
Fore
SplineSet
553 900 m 0,0,1
 651 904 651 904 739.5 860.5 c 128,-1,2
 828 817 828 817 883.5 735 c 128,-1,3
 939 653 939 653 942 553 c 0,4,5
 944 470 944 470 906 396.5 c 128,-1,6
 868 323 868 323 797.5 277 c 128,-1,7
 727 231 727 231 643 232 c 0,8,9
 575 232 575 232 515.5 264.5 c 128,-1,10
 456 297 456 297 420.5 356 c 128,-1,11
 385 415 385 415 389 485 c 0,12,13
 393 565 393 565 450 621 c 0,14,15
 479 649 479 649 518 663 c 128,-1,16
 557 677 557 677 598 670 c 0,17,18
 655 662 655 662 692 617 c 0,19,20
 711 593 711 593 717 562 c 128,-1,21
 723 531 723 531 711 497 c 1,22,-1
 619 537 l 1,23,24
 622 544 622 544 614 553 c 0,25,26
 602 569 602 569 583 572 c 0,27,28
 548 577 548 577 520 550 c 0,29,30
 491 521 491 521 488 479 c 0,31,32
 485 419 485 419 532.5 375.5 c 128,-1,33
 580 332 580 332 643 332 c 0,34,35
 727 331 727 331 785.5 397.5 c 128,-1,36
 844 464 844 464 842 551 c 0,37,38
 840 622 840 622 799.5 681 c 128,-1,39
 759 740 759 740 694 771.5 c 128,-1,40
 629 803 629 803 558 800 c 0,41,42
 471 796 471 796 400 745.5 c 128,-1,43
 329 695 329 695 291 616 c 128,-1,44
 253 537 253 537 259 450 c 0,45,46
 265 352 265 352 320.5 271 c 128,-1,47
 376 190 376 190 463.5 144.5 c 128,-1,48
 551 99 551 99 649 100 c 1,49,-1
 650 0 l 1,50,51
 526 -1 526 -1 416 56 c 128,-1,52
 306 113 306 113 236 216 c 128,-1,53
 166 319 166 319 159 444 c 0,54,55
 154 529 154 529 182 610 c 128,-1,56
 210 691 210 691 262 753.5 c 128,-1,57
 314 816 314 816 390 856 c 128,-1,58
 466 896 466 896 553 900 c 0,0,1
EndSplineSet
Ligature2: "sitelen+-space" n a s a space
Substitution2: "cartouched sitelen" cart.nasa
Ligature2: "sitelen" n a s a
EndChar

StartChar: nasin.t
Encoding: 989503 989503 83
Width: 1100
GlyphClass: 1
Flags: MW
LayerCount: 2
Fore
SplineSet
500 484 m 1,0,-1
 291 275 l 1,1,-1
 221 346 l 1,2,-1
 500 625 l 1,3,-1
 500 900 l 1,4,-1
 600 900 l 1,5,-1
 600 625 l 1,6,-1
 879 346 l 1,7,-1
 809 275 l 1,8,-1
 600 484 l 1,9,-1
 600 0 l 1,10,-1
 500 0 l 1,11,-1
 500 484 l 1,0,-1
EndSplineSet
Ligature2: "sitelen+-space" n a s i n space
Substitution2: "cartouched sitelen" cart.nasin
Ligature2: "sitelen" n a s i n
EndChar

StartChar: nena.t
Encoding: 989504 989504 84
Width: 1100
GlyphClass: 1
Flags: MW
LayerCount: 2
Fore
SplineSet
550 900 m 128,-1,1
 674 900 674 900 762 812 c 128,-1,2
 850 724 850 724 850 600 c 2,3,-1
 850 0 l 1,4,-1
 750 0 l 1,5,-1
 750 600 l 2,6,7
 750 683 750 683 691.5 741.5 c 128,-1,8
 633 800 633 800 550 800 c 128,-1,9
 467 800 467 800 408.5 741.5 c 128,-1,10
 350 683 350 683 350 600 c 2,11,-1
 350 0 l 1,12,-1
 250 0 l 1,13,-1
 250 600 l 2,14,15
 250 724 250 724 338 812 c 128,-1,0
 426 900 426 900 550 900 c 128,-1,1
EndSplineSet
Ligature2: "sitelen+-space" n e n a space
Substitution2: "cartouched sitelen" cart.nena
Ligature2: "sitelen" n e n a
EndChar

StartChar: ni.t
Encoding: 989505 989505 85
Width: 1100
GlyphClass: 1
Flags: MW
LayerCount: 2
Fore
SplineSet
500 900 m 1,0,-1
 600 900 l 1,1,-1
 600 191 l 1,2,-1
 809 400 l 1,3,-1
 879 329 l 1,4,-1
 550 0 l 1,5,-1
 221 329 l 1,6,-1
 291 400 l 1,7,-1
 500 191 l 1,8,-1
 500 900 l 1,0,-1
EndSplineSet
Ligature2: "sitelen+-space" n i space
Substitution2: "cartouched sitelen" cart.ni
Ligature2: "sitelen" n i
EndChar

StartChar: nimi.t
Encoding: 989506 989506 86
Width: 1100
GlyphClass: 1
Flags: MW
LayerCount: 2
Fore
SplineSet
850 250 m 2,0,-1
 250 250 l 2,1,2
 188 250 188 250 144 294 c 128,-1,3
 100 338 100 338 100 400 c 2,4,-1
 100 500 l 2,5,6
 100 562 100 562 144 606 c 128,-1,7
 188 650 188 650 250 650 c 2,8,-1
 850 650 l 2,9,10
 912 650 912 650 956 606 c 128,-1,11
 1000 562 1000 562 1000 500 c 2,12,-1
 1000 499 l 1,13,-1
 1000 498 l 1,14,-1
 1000 497 l 1,15,-1
 1000 496 l 1,16,-1
 1000 495 l 1,17,-1
 1000 494 l 1,18,-1
 1000 493 l 1,19,-1
 1000 492 l 1,20,-1
 1000 491 l 1,21,-1
 1000 490 l 1,22,-1
 1000 489 l 1,23,-1
 1000 488 l 1,24,-1
 1000 487 l 1,25,-1
 1000 486 l 1,26,-1
 1000 485 l 1,27,-1
 1000 484 l 1,28,-1
 1000 483 l 1,29,-1
 1000 482 l 1,30,-1
 1000 481 l 1,31,-1
 1000 480 l 1,32,-1
 1000 479 l 1,33,-1
 1000 478 l 1,34,-1
 1000 477 l 1,35,-1
 1000 476 l 1,36,-1
 1000 475 l 1,37,-1
 1000 473 l 1,38,-1
 1000 472 l 1,39,-1
 1000 471 l 1,40,-1
 1000 470 l 1,41,-1
 1000 468 l 1,42,-1
 1000 467 l 1,43,-1
 1000 466 l 1,44,-1
 1000 464 l 1,45,-1
 1000 463 l 1,46,-1
 1000 462 l 1,47,-1
 1000 460 l 1,48,-1
 1000 459 l 1,49,-1
 1000 458 l 1,50,-1
 1000 456 l 1,51,-1
 1000 455 l 1,52,-1
 1000 453 l 1,53,-1
 1000 452 l 1,54,-1
 1000 450 l 1,55,-1
 1000 449 l 1,56,-1
 1000 447 l 1,57,-1
 1000 446 l 1,58,-1
 1000 444 l 1,59,-1
 1000 443 l 1,60,-1
 1000 441 l 1,61,-1
 1000 439 l 1,62,-1
 1000 438 l 1,63,-1
 1000 436 l 1,64,-1
 1000 435 l 1,65,-1
 1000 433 l 1,66,-1
 1000 431 l 1,67,-1
 1000 430 l 1,68,-1
 1000 428 l 1,69,-1
 1000 426 l 1,70,-1
 1000 425 l 1,71,-1
 1000 423 l 1,72,-1
 1000 421 l 1,73,-1
 1000 420 l 1,74,-1
 1000 418 l 1,75,-1
 1000 416 l 1,76,-1
 1000 414 l 1,77,-1
 1000 412 l 1,78,-1
 1000 411 l 1,79,-1
 1000 409 l 1,80,-1
 1000 400 l 2,81,82
 1000 338 1000 338 956 294 c 128,-1,83
 912 250 912 250 850 250 c 2,0,-1
850 350 m 2,84,85
 871 350 871 350 885.5 364.5 c 128,-1,86
 900 379 900 379 900 400 c 2,87,-1
 900 401 l 1,88,-1
 900 402 l 1,89,-1
 900 403 l 1,90,-1
 900 404 l 1,91,-1
 900 405 l 1,92,-1
 900 406 l 1,93,-1
 900 407 l 1,94,-1
 900 408 l 1,95,-1
 900 409 l 1,96,-1
 900 410 l 1,97,-1
 900 411 l 1,98,-1
 900 412 l 1,99,-1
 900 413 l 1,100,-1
 900 414 l 1,101,-1
 900 415 l 1,102,-1
 900 416 l 1,103,-1
 900 417 l 1,104,-1
 900 418 l 1,105,-1
 900 419 l 1,106,-1
 900 420 l 1,107,-1
 900 421 l 1,108,-1
 900 422 l 1,109,-1
 900 423 l 1,110,-1
 900 424 l 1,111,-1
 900 425 l 1,112,-1
 900 427 l 1,113,-1
 900 428 l 1,114,-1
 900 429 l 1,115,-1
 900 430 l 1,116,-1
 900 432 l 1,117,-1
 900 433 l 1,118,-1
 900 434 l 1,119,-1
 900 436 l 1,120,-1
 900 437 l 1,121,-1
 900 438 l 1,122,-1
 900 440 l 1,123,-1
 900 441 l 1,124,-1
 900 442 l 1,125,-1
 900 444 l 1,126,-1
 900 445 l 1,127,-1
 900 447 l 1,128,-1
 900 448 l 1,129,-1
 900 450 l 1,130,-1
 900 451 l 1,131,-1
 900 453 l 1,132,-1
 900 454 l 1,133,-1
 900 456 l 1,134,-1
 900 457 l 1,135,-1
 900 459 l 1,136,-1
 900 461 l 1,137,-1
 900 462 l 1,138,-1
 900 464 l 1,139,-1
 900 465 l 1,140,-1
 900 467 l 1,141,-1
 900 469 l 1,142,-1
 900 470 l 1,143,-1
 900 472 l 1,144,-1
 900 474 l 1,145,-1
 900 475 l 1,146,-1
 900 477 l 1,147,-1
 900 479 l 1,148,-1
 900 480 l 1,149,-1
 900 482 l 1,150,-1
 900 484 l 1,151,-1
 900 486 l 1,152,-1
 900 488 l 1,153,-1
 900 489 l 1,154,-1
 900 491 l 1,155,-1
 900 500 l 2,156,157
 900 521 900 521 885.5 535.5 c 128,-1,158
 871 550 871 550 850 550 c 2,159,-1
 250 550 l 2,160,161
 229 550 229 550 214.5 535.5 c 128,-1,162
 200 521 200 521 200 500 c 2,163,-1
 200 400 l 2,164,165
 200 379 200 379 214.5 364.5 c 128,-1,166
 229 350 229 350 250 350 c 2,167,-1
 850 350 l 2,84,85
EndSplineSet
Ligature2: "sitelen+-space" n i m i space
Substitution2: "cartouched sitelen" cart.nimi
Ligature2: "sitelen" n i m i
EndChar

StartChar: noka.t
Encoding: 989507 989507 87
Width: 1100
GlyphClass: 1
Flags: MW
LayerCount: 2
Fore
SplineSet
500 900 m 1,0,-1
 600 900 l 1,1,-1
 600 500 l 1,2,-1
 725 500 l 2,3,4
 828 500 828 500 901.5 426.5 c 128,-1,5
 975 353 975 353 975 250 c 128,-1,6
 975 147 975 147 901.5 73.5 c 128,-1,7
 828 0 828 0 725 0 c 2,8,-1
 250 0 l 1,9,-1
 150 0 l 1,10,-1
 150 900 l 1,11,-1
 250 900 l 1,12,-1
 250 100 l 1,13,-1
 725 100 l 2,14,15
 787 100 787 100 831 144 c 128,-1,16
 875 188 875 188 875 250 c 128,-1,17
 875 312 875 312 831 356 c 128,-1,18
 787 400 787 400 725 400 c 2,19,-1
 600 400 l 1,20,-1
 500 400 l 1,21,-1
 500 900 l 1,0,-1
EndSplineSet
Ligature2: "sitelen+-space" n o k a space
Substitution2: "cartouched sitelen" cart.noka
Ligature2: "sitelen" n o k a
EndChar

StartChar: o.t
Encoding: 989508 989508 88
Width: 1100
GlyphClass: 1
Flags: MW
LayerCount: 2
Fore
SplineSet
599 900 m 1,0,-1
 701 900 l 1,1,-1
 601 375 l 1,2,-1
 499 375 l 1,3,-1
 599 900 l 1,0,-1
550 200 m 128,-1,5
 529 200 529 200 514.5 185.5 c 128,-1,6
 500 171 500 171 500 150 c 128,-1,7
 500 129 500 129 514.5 114.5 c 128,-1,8
 529 100 529 100 550 100 c 128,-1,9
 571 100 571 100 585.5 114.5 c 128,-1,10
 600 129 600 129 600 150 c 128,-1,11
 600 171 600 171 585.5 185.5 c 128,-1,4
 571 200 571 200 550 200 c 128,-1,5
550 300 m 128,-1,13
 612 300 612 300 656 256 c 128,-1,14
 700 212 700 212 700 150 c 128,-1,15
 700 88 700 88 656 44 c 128,-1,16
 612 0 612 0 550 0 c 128,-1,17
 488 0 488 0 444 44 c 128,-1,18
 400 88 400 88 400 150 c 128,-1,19
 400 212 400 212 444 256 c 128,-1,12
 488 300 488 300 550 300 c 128,-1,13
EndSplineSet
Ligature2: "sitelen+-space" o space
Substitution2: "cartouched sitelen" cart.o
EndChar

StartChar: olin.t
Encoding: 989509 989509 89
Width: 1100
GlyphClass: 1
Flags: MW
LayerCount: 2
Fore
SplineSet
367.194335938 925 m 1,0,-1
 367.194335938 875 l 1025,1,-1
350 900 m 1,2,-1
 400 900 l 1025,3,-1
450 420.465820312 m 0,4,5
 425.712067998 420.432965484 425.712067998 420.432965484 407.450195312 403.505859375 c 0,6,7
 389.695954184 387.047810752 389.695954184 387.047810752 384.54296875 360.041015625 c 0,8,9
 379.443371297 333.312862308 379.443371297 333.312862308 388.564453125 303.14453125 c 0,10,11
 404.174531404 251.51178838 404.174531404 251.51178838 466.518554688 190.951171875 c 0,12,13
 501.308383581 157.157469846 501.308383581 157.157469846 550 121.760742188 c 1,14,15
 598.691616419 157.157469846 598.691616419 157.157469846 633.481445312 190.951171875 c 0,16,17
 695.825468596 251.51178838 695.825468596 251.51178838 711.435546875 303.14453125 c 0,18,19
 720.556628703 333.312862308 720.556628703 333.312862308 715.45703125 360.041015625 c 0,20,21
 710.304045816 387.047810752 710.304045816 387.047810752 692.549804688 403.505859375 c 0,22,23
 674.456895513 420.278041429 674.456895513 420.278041429 650 420.465820312 c 0,24,25
 620.587407196 420.692200226 620.587407196 420.692200226 594.696903892 389.393173521 c 128,-1,26
 568.806400588 358.094146816 568.806400588 358.094146816 550 300 c 1,27,28
 529.207645747 364.228881811 529.207645747 364.228881811 508.313603253 392.372665521 c 128,-1,29
 487.41956076 420.516449232 487.41956076 420.516449232 450 420.465820312 c 0,4,5
450 800 m 0,30,31
 425.712067998 799.967145171 425.712067998 799.967145171 407.450195312 783.040039062 c 0,32,33
 389.695954184 766.581990439 389.695954184 766.581990439 384.54296875 739.575195312 c 0,34,35
 379.443371297 712.847041996 379.443371297 712.847041996 388.564453125 682.678710938 c 0,36,37
 404.174531404 631.045968067 404.174531404 631.045968067 466.518554688 570.485351562 c 0,38,39
 501.303028768 536.695542253 501.303028768 536.695542253 550 501.294921875 c 1,40,41
 598.696971232 536.695542253 598.696971232 536.695542253 633.481445312 570.485351562 c 0,42,43
 695.825468596 631.045968067 695.825468596 631.045968067 711.435546875 682.678710938 c 0,44,45
 720.556628703 712.847041996 720.556628703 712.847041996 715.45703125 739.575195312 c 0,46,47
 710.304045816 766.581990439 710.304045816 766.581990439 692.549804688 783.040039062 c 0,48,49
 674.456895513 799.812221117 674.456895513 799.812221117 650 800 c 0,50,51
 591 800 591 800 550 675 c 1,52,53
 529 741 529 741 508 770.5 c 128,-1,54
 487 800 487 800 450 800 c 0,30,31
437.91796875 899.790039062 m 0,55,56
 456.366158637 901.313161524 456.366158637 901.313161524 474.689453125 898.717773438 c 0,57,58
 515.033821863 893.004358509 515.033821863 893.004358509 550 866.7890625 c 1,59,60
 584.964259473 893.004086795 584.964259473 893.004086795 625.310546875 898.717773438 c 0,61,62
 702.998562736 909.71874664 702.998562736 909.71874664 760.5390625 856.380859375 c 0,63,64
 802.369989711 817.604896491 802.369989711 817.604896491 813.682617188 758.3125 c 0,65,66
 823.390183169 707.432321244 823.390183169 707.432321244 807.15625 653.736328125 c 0,67,68
 785.491024396 582.073517407 785.491024396 582.073517407 712.979560964 508.497105078 c 1,69,70
 738.268644297 497.49111937 738.268644297 497.49111937 760.5390625 476.846679688 c 0,71,72
 802.369989711 438.070716804 802.369989711 438.070716804 813.682617188 378.778320312 c 0,73,74
 823.390344629 327.898675608 823.390344629 327.898675608 807.15625 274.202148438 c 0,75,76
 784.057628319 197.798044295 784.057628319 197.798044295 703.162109375 119.21875 c 0,77,78
 645.100002367 62.8194214052 645.100002367 62.8194214052 577.555664062 18.201171875 c 2,79,-1
 550 0 l 1,80,-1
 522.444335938 18.201171875 l 2,81,82
 454.899997633 62.8194214052 454.899997633 62.8194214052 396.837890625 119.21875 c 0,83,84
 315.942371681 197.798044295 315.942371681 197.798044295 292.84375 274.202148438 c 0,85,86
 276.609655371 327.898675608 276.609655371 327.898675608 286.317382812 378.778320312 c 0,87,88
 297.630010289 438.070716804 297.630010289 438.070716804 339.4609375 476.846679688 c 0,89,90
 361.381044746 497.166007756 361.381044746 497.166007756 387.399502529 508.112813212 c 1,91,92
 314.565552753 581.886375229 314.565552753 581.886375229 292.84375 653.736328125 c 0,93,94
 276.609816831 707.432321244 276.609816831 707.432321244 286.317382812 758.3125 c 0,95,96
 297.630010289 817.604896491 297.630010289 817.604896491 339.4609375 856.380859375 c 128,-1,97
 381.243960063 895.112555968 381.243960063 895.112555968 437.91796875 899.790039062 c 0,55,56
EndSplineSet
Ligature2: "sitelen+-space" o l i n space
Substitution2: "cartouched sitelen" cart.olin
Ligature2: "sitelen" o l i n
EndChar

StartChar: ona.t
Encoding: 989510 989510 90
Width: 1100
GlyphClass: 1
Flags: MW
LayerCount: 2
Fore
SplineSet
900 450 m 128,-1,1
 900 491 900 491 870.5 520.5 c 128,-1,2
 841 550 841 550 800 550 c 128,-1,3
 759 550 759 550 729.5 520.5 c 128,-1,4
 700 491 700 491 700 450 c 128,-1,5
 700 409 700 409 729.5 379.5 c 128,-1,6
 759 350 759 350 800 350 c 128,-1,7
 841 350 841 350 870.5 379.5 c 128,-1,0
 900 409 900 409 900 450 c 128,-1,1
1000 450 m 0,8,9
 1000 382 1000 382 958 327.5 c 128,-1,10
 916 273 916 273 850 256 c 0,11,12
 702 218 702 218 550 218 c 128,-1,13
 398 218 398 218 250 256 c 0,14,15
 174 276 174 276 100 306 c 1,16,-1
 138 399 l 1,17,18
 206 371 206 371 275 353 c 0,19,20
 410 318 410 318 550 318 c 0,21,22
 597 318 597 318 646 323 c 1,23,24
 600 378 600 378 600 450 c 0,25,26
 600 533 600 533 658.5 591.5 c 128,-1,27
 717 650 717 650 800 650 c 128,-1,28
 883 650 883 650 941.5 591.5 c 128,-1,29
 1000 533 1000 533 1000 450 c 0,8,9
EndSplineSet
Ligature2: "sitelen+-space" o n a space
Substitution2: "cartouched sitelen" cart.ona
Ligature2: "sitelen" o n a
EndChar

StartChar: open.t
Encoding: 989511 989511 91
Width: 1100
GlyphClass: 1
Flags: MW
LayerCount: 2
Fore
SplineSet
250 250 m 1,0,-1
 250 100 l 1,1,-1
 850 100 l 1,2,-1
 850 250 l 1,3,-1
 250 250 l 1,0,-1
150 900 m 1,4,-1
 250 900 l 1,5,-1
 250 350 l 1,6,-1
 850 350 l 1,7,-1
 850 900 l 1,8,-1
 950 900 l 1,9,-1
 950 0 l 1,10,-1
 850 0 l 1,11,-1
 250 0 l 1,12,-1
 150 0 l 1,13,-1
 150 900 l 1,4,-1
EndSplineSet
Ligature2: "sitelen+-space" o p e n space
Substitution2: "cartouched sitelen" cart.open
Ligature2: "sitelen" o p e n
EndChar

StartChar: pakala.t
Encoding: 989512 989512 92
Width: 1100
GlyphClass: 1
Flags: MW
LayerCount: 2
Fore
SplineSet
607 800 m 1,0,-1
 494 500 l 1,1,-1
 675 500 l 1,2,-1
 750 500 l 1,3,-1
 600 100 l 1,4,-1
 850 100 l 1,5,-1
 850 800 l 1,6,-1
 607 800 l 1,0,-1
250 800 m 1,7,-1
 250 100 l 1,8,-1
 493 100 l 1,9,-1
 606 400 l 1,10,-1
 457 400 l 1,11,-1
 350 400 l 1,12,-1
 500 800 l 1,13,-1
 250 800 l 1,7,-1
150 900 m 1,14,-1
 200 900 l 1,15,-1
 250 900 l 1,16,-1
 900 900 l 1,17,-1
 950 900 l 1,18,-1
 950 0 l 1,19,-1
 875 0 l 1,20,-1
 250 0 l 1,21,-1
 200 0 l 1,22,-1
 150 0 l 1,23,-1
 150 900 l 1,14,-1
EndSplineSet
LCarets2: 6 0 0 0 0 0 0
Ligature2: "sitelen+-space" p a k a l a space
Substitution2: "cartouched sitelen" cart.pakala
Ligature2: "sitelen" p a k a l a
EndChar

StartChar: pali.t
Encoding: 989513 989513 93
Width: 1100
GlyphClass: 1
Flags: MW
LayerCount: 2
Fore
SplineSet
550 800 m 128,-1,1
 509 800 509 800 479.5 770.5 c 128,-1,2
 450 741 450 741 450 700 c 128,-1,3
 450 659 450 659 479.5 629.5 c 128,-1,4
 509 600 509 600 550 600 c 128,-1,5
 591 600 591 600 620.5 629.5 c 128,-1,6
 650 659 650 659 650 700 c 128,-1,7
 650 741 650 741 620.5 770.5 c 128,-1,0
 591 800 591 800 550 800 c 128,-1,1
550 900 m 128,-1,9
 633 900 633 900 691.5 841.5 c 128,-1,10
 750 783 750 783 750 700 c 128,-1,11
 750 617 750 617 691.5 558.5 c 0,12,13
 690.811171753 557.811171753 690.811171753 557.811171753 690.118946658 557.130454352 c 1,14,15
 709.132981436 543.867018561 709.132981436 543.867018561 726.5 526.5 c 0,16,17
 800 453 800 453 800 350 c 2,18,-1
 800 0 l 1,19,-1
 700 0 l 1,20,-1
 700 350 l 2,21,22
 700 412 700 412 656 456 c 128,-1,23
 612 500 612 500 550 500 c 128,-1,24
 488 500 488 500 444 456 c 128,-1,25
 400 412 400 412 400 350 c 2,26,-1
 400 0 l 1,27,-1
 300 0 l 1,28,-1
 150 260 l 1,29,-1
 237 310 l 1,30,-1
 300 200.8 l 1,31,-1
 300 350 l 2,32,33
 300 453 300 453 373.5 526.5 c 0,34,35
 390.867018563 543.867018563 390.867018563 543.867018563 409.88105334 557.130454353 c 1,36,37
 409.188828245 557.811171755 409.188828245 557.811171755 408.5 558.5 c 0,38,39
 350 617 350 617 350 700 c 128,-1,40
 350 783 350 783 408.5 841.5 c 128,-1,8
 467 900 467 900 550 900 c 128,-1,9
EndSplineSet
Ligature2: "sitelen+-space" p a l i space
Substitution2: "cartouched sitelen" cart.pali
Ligature2: "sitelen" p a l i
EndChar

StartChar: palisa.t
Encoding: 989514 989514 94
Width: 1100
GlyphClass: 1
Flags: MW
LayerCount: 2
Fore
SplineSet
550 800 m 128,-1,1
 529 800 529 800 514.5 785.5 c 128,-1,2
 500 771 500 771 500 750 c 2,3,-1
 500 609 l 1,4,-1
 500 150 l 2,5,6
 500 129 500 129 514.5 114.5 c 128,-1,7
 529 100 529 100 550 100 c 128,-1,8
 571 100 571 100 585.5 114.5 c 128,-1,9
 600 129 600 129 600 150 c 2,10,-1
 600 609 l 2,11,12
 600 618 600 618 600 632.5 c 128,-1,13
 600 647 600 647 600 678 c 128,-1,14
 600 709 600 709 600 729.5 c 2,15,-1
 600 750 l 2,16,17
 600 771 600 771 585.5 785.5 c 128,-1,0
 571 800 571 800 550 800 c 128,-1,1
550 900 m 128,-1,19
 612 900 612 900 656 856 c 128,-1,20
 700 812 700 812 700 750 c 2,21,-1
 700 150 l 2,22,23
 700 88 700 88 656 44 c 128,-1,24
 612 0 612 0 550 0 c 128,-1,25
 488 0 488 0 444 44 c 128,-1,26
 400 88 400 88 400 150 c 2,27,-1
 400 750 l 2,28,29
 400 812 400 812 444 856 c 128,-1,18
 488 900 488 900 550 900 c 128,-1,19
EndSplineSet
Ligature2: "sitelen+-space" p a l i s a space
Substitution2: "cartouched sitelen" cart.palisa
Ligature2: "sitelen" p a l i s a
EndChar

StartChar: pan.t
Encoding: 989515 989515 95
Width: 1100
GlyphClass: 1
Flags: MW
LayerCount: 2
Fore
SplineSet
373 322 m 1,0,-1
 550 145 l 1,1,-1
 727 322 l 1,2,-1
 797 251 l 1,3,-1
 621 74 l 1,4,-1
 550 3 l 1,5,-1
 479 74 l 1,6,-1
 303 251 l 1,7,-1
 373 322 l 1,0,-1
373 597 m 1,8,-1
 550 420 l 1,9,-1
 727 597 l 1,10,-1
 797 526 l 1,11,-1
 621 349 l 1,12,-1
 550 278 l 1,13,-1
 479 349 l 1,14,-1
 303 526 l 1,15,-1
 373 597 l 1,8,-1
373 897 m 1,16,-1
 550 720 l 1,17,-1
 727 897 l 1,18,-1
 797 826 l 1,19,-1
 621 649 l 1,20,-1
 550 578 l 1,21,-1
 479 649 l 1,22,-1
 303 826 l 1,23,-1
 373 897 l 1,16,-1
EndSplineSet
Ligature2: "sitelen+-space" p a n space
Substitution2: "cartouched sitelen" cart.pan
Ligature2: "sitelen" p a n
EndChar

StartChar: pana.t
Encoding: 989516 989516 96
Width: 1100
GlyphClass: 1
Flags: MW
LayerCount: 2
Fore
SplineSet
350 900 m 1,0,-1
 425 675 l 1,1,-1
 320 675 l 1,2,-1
 245 900 l 1,3,-1
 350 900 l 1,0,-1
750 900 m 1,4,-1
 855 900 l 1,5,-1
 780 675 l 1,6,-1
 675 675 l 1,7,-1
 750 900 l 1,4,-1
500 900 m 1,8,-1
 600 900 l 1,9,-1
 600 675 l 1,10,-1
 500 675 l 1,11,-1
 500 900 l 1,8,-1
150 260 m 1,12,-1
 237 310 l 1,13,-1
 300 200.8 l 1,14,-1
 300 350 l 2,15,16
 300 453 300 453 373.5 526.5 c 128,-1,17
 447 600 447 600 550 600 c 128,-1,18
 653 600 653 600 726.5 526.5 c 128,-1,19
 800 453 800 453 800 350 c 2,20,-1
 800 0 l 1,21,-1
 700 0 l 1,22,-1
 700 350 l 2,23,24
 700 412 700 412 656 456 c 128,-1,25
 612 500 612 500 550 500 c 128,-1,26
 488 500 488 500 444 456 c 128,-1,27
 400 412 400 412 400 350 c 2,28,-1
 400 0 l 1,29,-1
 300 0 l 1,30,-1
 150 260 l 1,12,-1
EndSplineSet
Ligature2: "sitelen+-space" p a n a space
Substitution2: "cartouched sitelen" cart.pana
Ligature2: "sitelen" p a n a
EndChar

StartChar: pi.t
Encoding: 989517 989517 97
Width: 1100
GlyphClass: 1
Flags: MW
LayerCount: 2
Fore
SplineSet
200 800 m 1,0,-1
 300 800 l 1,1,-1
 300 200 l 1,2,-1
 900 200 l 1,3,-1
 900 100 l 1,4,-1
 300 100 l 1,5,-1
 200 100 l 1,6,-1
 200 200 l 1,7,-1
 200 800 l 1,0,-1
EndSplineSet
Ligature2: "sitelen+-space" p i space
Substitution2: "cartouched sitelen" cart.pi
Ligature2: "sitelen" p i
EndChar

StartChar: pilin.t
Encoding: 989518 989518 98
Width: 1100
GlyphClass: 1
Flags: MW
LayerCount: 2
Fore
SplineSet
367.194335938 1025 m 1,0,-1
 367.194335938 975 l 1025,1,-1
350 1000 m 1,2,-1
 400 1000 l 1025,3,-1
388.69140625 804.12109375 m 128,-1,5
 361.911585015 807.665770466 361.911585015 807.665770466 337.0703125 801.484375 c 0,6,7
 305.17823148 793.547852435 305.17823148 793.547852435 277.244043777 769.964270244 c 128,-1,8
 249.309856073 746.380688052 249.309856073 746.380688052 233.06640625 714.31640625 c 0,9,10
 200.165454711 649.372840074 200.165454711 649.372840074 213.96484375 566.953125 c 0,11,12
 226.184023957 493.963463902 226.184023957 493.963463902 275.625 418.0859375 c 0,13,14
 313.240108331 360.357971462 313.240108331 360.357971462 386.03515625 284.66796875 c 0,15,16
 458.13182923 209.704884819 458.13182923 209.704884819 550 130.99609375 c 1,17,18
 641.86817077 209.704884819 641.86817077 209.704884819 713.96484375 284.66796875 c 0,19,20
 786.759891669 360.357971462 786.759891669 360.357971462 824.375 418.0859375 c 0,21,22
 873.815976043 493.963463902 873.815976043 493.963463902 886.03515625 566.953125 c 0,23,24
 899.834545289 649.372840074 899.834545289 649.372840074 866.93359375 714.31640625 c 0,25,26
 850.690143927 746.380688052 850.690143927 746.380688052 822.755956223 769.964270244 c 128,-1,27
 794.82176852 793.547852435 794.82176852 793.547852435 762.9296875 801.484375 c 0,28,29
 709.91162374 814.679113757 709.91162374 814.679113757 662.1484375 788.14453125 c 0,30,31
 629.375630915 769.937773939 629.375630915 769.937773939 600 725 c 0,32,33
 589 708 589 708 576.5 677 c 128,-1,34
 564 646 564 646 557 623 c 2,35,-1
 550 600 l 1,36,37
 525 688 525 688 500 725 c 0,38,39
 470.624369085 769.937773939 470.624369085 769.937773939 437.8515625 788.14453125 c 0,40,4
 415.475472321 800.575855172 415.475472321 800.575855172 388.69140625 804.12109375 c 128,-1,5
357.3046875 905.1953125 m 0,41,42
 426.251485969 908.977039045 426.251485969 908.977039045 486.42578125 875.546875 c 0,43,44
 521.488581257 856.067228955 521.488581257 856.067228955 550 823.33984375 c 1,45,46
 578.511418743 856.067228955 578.511418743 856.067228955 613.57421875 875.546875 c 0,47,48
 695.801683107 921.228799643 695.801683107 921.228799643 787.0703125 898.515625 c 0,49,50
 842.232192259 884.788188841 842.232192259 884.788188841 886.21678772 847.762856164 c 128,-1,51
 930.20138318 810.737523487 930.20138318 810.737523487 956.15234375 759.51171875 c 0,52,53
 1003.89456606 665.270334889 1003.89456606 665.270334889 984.66796875 550.4296875 c 0,54,55
 968.999771229 456.841847694 968.999771229 456.841847694 908.1640625 363.4765625 c 0,56,57
 865.413753733 297.866874677 865.413753733 297.866874677 786.03515625 215.33203125 c 0,58,59
 689.405002273 114.859948424 689.405002273 114.859948424 581.8359375 26.03515625 c 2,60,-1
 550 -0.25390625 l 1,61,-1
 518.1640625 26.03515625 l 2,62,63
 410.594997727 114.859948424 410.594997727 114.859948424 313.96484375 215.33203125 c 0,64,65
 234.586246267 297.866874677 234.586246267 297.866874677 191.8359375 363.4765625 c 0,66,67
 131.000228771 456.841847694 131.000228771 456.841847694 115.33203125 550.4296875 c 0,68,69
 96.1054339352 665.270334889 96.1054339352 665.270334889 143.84765625 759.51171875 c 0,70,71
 169.79861682 810.737523487 169.79861682 810.737523487 213.78321228 847.762856164 c 128,-1,72
 257.767807741 884.788188841 257.767807741 884.788188841 312.9296875 898.515625 c 0,73,74
 334.815842479 903.962319685 334.815842479 903.962319685 357.3046875 905.1953125 c 0,41,42
EndSplineSet
Ligature2: "sitelen+-space" p i l i n space
Substitution2: "cartouched sitelen" cart.pilin
Ligature2: "sitelen" p i l i n
EndChar

StartChar: pimeja.t
Encoding: 989519 989519 99
Width: 1100
GlyphClass: 1
Flags: MW
LayerCount: 2
Fore
SplineSet
550 232 m 1,0,-1
 465 100 l 1,1,-1
 635 100 l 1,2,-1
 550 232 l 1,0,-1
425 426 m 1,3,-1
 262 100 l 1,4,-1
 346 100 l 1,5,-1
 490 324 l 1,6,-1
 425 426 l 1,3,-1
675 426 m 1,7,-1
 610 324 l 1,8,-1
 754 100 l 1,9,-1
 838 100 l 1,10,-1
 675 426 l 1,7,-1
550 676 m 1,11,-1
 477 529 l 1,12,-1
 550 416 l 1,13,-1
 623 529 l 1,14,-1
 550 676 l 1,11,-1
100 0 m 1,15,-1
 550 900 l 1,16,-1
 1000 0 l 1,17,-1
 700 0 l 1,18,-1
 400 0 l 1,19,-1
 100 0 l 1,15,-1
EndSplineSet
LCarets2: 6 0 0 0 0 0 0
Ligature2: "sitelen+-space" p i m e j a space
Substitution2: "cartouched sitelen" cart.pimeja
Ligature2: "sitelen" p i m e j a
EndChar

StartChar: pini.t
Encoding: 989520 989520 100
Width: 1100
GlyphClass: 1
Flags: MW
LayerCount: 2
Fore
SplineSet
250 900 m 1,0,-1
 850 900 l 1,1,-1
 850 800 l 1,2,-1
 600 800 l 1,3,-1
 600 100 l 1,4,-1
 850 100 l 1,5,-1
 850 0 l 1,6,-1
 250 0 l 1,7,-1
 250 100 l 1,8,-1
 500 100 l 1,9,-1
 500 800 l 1,10,-1
 250 800 l 1,11,-1
 250 900 l 1,0,-1
EndSplineSet
Ligature2: "sitelen+-space" p i n i space
Substitution2: "cartouched sitelen" cart.pini
Ligature2: "sitelen" p i n i
EndChar

StartChar: pipi.t
Encoding: 989521 989521 101
Width: 1100
GlyphClass: 1
Flags: MW
LayerCount: 2
Fore
SplineSet
500 750 m 1,0,-1
 600 750 l 1,1,-1
 600 625 l 1,2,-1
 750 625 l 1,3,-1
 750 525 l 1,4,-1
 600 525 l 1,5,-1
 600 425 l 1,6,-1
 750 425 l 1,7,-1
 750 325 l 1,8,-1
 600 325 l 1,9,-1
 600 225 l 1,10,-1
 750 225 l 1,11,-1
 750 125 l 1,12,-1
 600 125 l 1,13,-1
 600 0 l 1,14,-1
 500 0 l 1,15,-1
 500 125 l 1,16,-1
 350 125 l 1,17,-1
 350 225 l 1,18,-1
 500 225 l 1,19,-1
 500 325 l 1,20,-1
 350 325 l 1,21,-1
 350 425 l 1,22,-1
 500 425 l 1,23,-1
 500 525 l 1,24,-1
 350 525 l 1,25,-1
 350 625 l 1,26,-1
 500 625 l 1,27,-1
 500 750 l 1,0,-1
425 900 m 128,-1,29
 454 900 454 900 475 879.5 c 128,-1,30
 496 859 496 859 496 829.5 c 128,-1,31
 496 800 496 800 475 779.5 c 128,-1,32
 454 759 454 759 425 759 c 128,-1,33
 396 759 396 759 375 779.5 c 128,-1,34
 354 800 354 800 354 829.5 c 128,-1,35
 354 859 354 859 375 879.5 c 128,-1,28
 396 900 396 900 425 900 c 128,-1,29
675 900 m 128,-1,37
 704 900 704 900 725 879.5 c 128,-1,38
 746 859 746 859 746 829.5 c 128,-1,39
 746 800 746 800 725 779.5 c 128,-1,40
 704 759 704 759 675 759 c 128,-1,41
 646 759 646 759 625 779.5 c 128,-1,42
 604 800 604 800 604 829.5 c 128,-1,43
 604 859 604 859 625 879.5 c 128,-1,36
 646 900 646 900 675 900 c 128,-1,37
EndSplineSet
LCarets2: 4 0 0 0 0
Ligature2: "sitelen+-space" p i p i space
Substitution2: "cartouched sitelen" cart.pipi
Ligature2: "sitelen" p i p i
EndChar

StartChar: poka.t
Encoding: 989522 989522 102
Width: 1100
GlyphClass: 1
Flags: MW
LayerCount: 2
Fore
SplineSet
850 450 m 128,-1,1
 850 481 850 481 872 503 c 128,-1,2
 894 525 894 525 925 525 c 128,-1,3
 956 525 956 525 978 503 c 128,-1,4
 1000 481 1000 481 1000 450 c 128,-1,5
 1000 419 1000 419 978 397 c 128,-1,6
 956 375 956 375 925 375 c 128,-1,7
 894 375 894 375 872 397 c 128,-1,0
 850 419 850 419 850 450 c 128,-1,1
100 650 m 1,8,-1
 199.999023438 650 l 1,9,-1
 199.999023438 349.998046875 l 1,10,-1
 700.000976562 349.998046875 l 1,11,-1
 700.000976562 650 l 1,12,-1
 800 650 l 1,13,-1
 800 249.999023438 l 1,14,-1
 100 249.999023438 l 1,15,-1
 100 650 l 1,8,-1
EndSplineSet
LCarets2: 4 0 0 0 0
Ligature2: "sitelen+-space" p o k a space
Substitution2: "cartouched sitelen" cart.poka
Ligature2: "sitelen" p o k a
EndChar

StartChar: poki.t
Encoding: 989523 989523 103
Width: 1100
GlyphClass: 1
Flags: MW
LayerCount: 2
Fore
SplineSet
150 900 m 1,0,-1
 250 900 l 1,1,-1
 250 100 l 1,2,-1
 850 100 l 1,3,-1
 850 900 l 1,4,-1
 950 900 l 1,5,-1
 950 0 l 1,6,-1
 850 0 l 1,7,-1
 250 0 l 1,8,-1
 150 0 l 1,9,-1
 150 900 l 1,0,-1
EndSplineSet
Ligature2: "sitelen+-space" p o k i space
Substitution2: "cartouched sitelen" cart.poki
Ligature2: "sitelen" p o k i
EndChar

StartChar: pona.t
Encoding: 989524 989524 104
Width: 1100
GlyphClass: 1
Flags: MW
LayerCount: 2
Fore
SplineSet
550 225 m 128,-1,1
 459 225 459 225 375.5 260.5 c 128,-1,2
 292 296 292 296 231.5 356.5 c 128,-1,3
 171 417 171 417 135.5 500.5 c 128,-1,4
 100 584 100 584 100 675 c 1,5,-1
 200 675 l 1,6,7
 200 580 200 580 247 499.5 c 128,-1,8
 294 419 294 419 374.5 372 c 128,-1,9
 455 325 455 325 550 325 c 128,-1,10
 645 325 645 325 725.5 372 c 128,-1,11
 806 419 806 419 853 499.5 c 128,-1,12
 900 580 900 580 900 675 c 1,13,-1
 901 675 l 1,14,-1
 902 675 l 1,15,-1
 903 675 l 1,16,-1
 904 675 l 1,17,-1
 905 675 l 1,18,-1
 906 675 l 1,19,-1
 907 675 l 1,20,-1
 908 675 l 1,21,-1
 909 675 l 1,22,-1
 910 675 l 1,23,-1
 911 675 l 1,24,-1
 912 675 l 1,25,-1
 913 675 l 1,26,-1
 914 675 l 1,27,-1
 915 675 l 1,28,-1
 916 675 l 1,29,-1
 917 675 l 1,30,-1
 918 675 l 1,31,-1
 919 675 l 1,32,-1
 920 675 l 1,33,-1
 921 675 l 1,34,-1
 922 675 l 1,35,-1
 923 675 l 1,36,-1
 924 675 l 1,37,-1
 925 675 l 1,38,-1
 927 675 l 1,39,-1
 928 675 l 1,40,-1
 929 675 l 1,41,-1
 930 675 l 1,42,-1
 932 675 l 1,43,-1
 933 675 l 1,44,-1
 934 675 l 1,45,-1
 936 675 l 1,46,-1
 937 675 l 1,47,-1
 938 675 l 1,48,-1
 940 675 l 1,49,-1
 941 675 l 1,50,-1
 942 675 l 1,51,-1
 944 675 l 1,52,-1
 945 675 l 1,53,-1
 947 675 l 1,54,-1
 948 675 l 1,55,-1
 950 675 l 1,56,-1
 951 675 l 1,57,-1
 953 675 l 1,58,-1
 954 675 l 1,59,-1
 956 675 l 1,60,-1
 957 675 l 1,61,-1
 959 675 l 1,62,-1
 961 675 l 1,63,-1
 962 675 l 1,64,-1
 964 675 l 1,65,-1
 965 675 l 1,66,-1
 967 675 l 1,67,-1
 969 675 l 1,68,-1
 970 675 l 1,69,-1
 972 675 l 1,70,-1
 974 675 l 1,71,-1
 975 675 l 1,72,-1
 977 675 l 1,73,-1
 979 675 l 1,74,-1
 980 675 l 1,75,-1
 982 675 l 1,76,-1
 984 675 l 1,77,-1
 986 675 l 1,78,-1
 987 675 l 1,79,-1
 989 675 l 1,80,-1
 991 675 l 1,81,-1
 1000 675 l 1,82,83
 1000 584 1000 584 964.5 500.5 c 128,-1,84
 929 417 929 417 868.5 356.5 c 128,-1,85
 808 296 808 296 724.5 260.5 c 128,-1,0
 641 225 641 225 550 225 c 128,-1,1
EndSplineSet
Ligature2: "sitelen+-space" p o n a space
Substitution2: "cartouched sitelen" cart.pona
Ligature2: "sitelen" p o n a
EndChar

StartChar: pu.t
Encoding: 989525 989525 105
Width: 1100
GlyphClass: 1
Flags: MW
LayerCount: 2
Fore
SplineSet
450 362 m 1,0,-1
 500 362 l 1,1,2
 500 342 500 342 514.5 327.5 c 128,-1,3
 529 313 529 313 550 313 c 128,-1,4
 571 313 571 313 585.5 327.5 c 128,-1,5
 600 342 600 342 600 362 c 1,6,-1
 650 362 l 1,7,8
 650 321 650 321 620.5 292 c 128,-1,9
 591 263 591 263 550 263 c 128,-1,10
 509 263 509 263 479.5 292 c 128,-1,11
 450 321 450 321 450 362 c 1,0,-1
550 500 m 128,-1,13
 493 500 493 500 452.5 459.5 c 128,-1,14
 412 419 412 419 412 362.5 c 128,-1,15
 412 306 412 306 452.5 265.5 c 128,-1,16
 493 225 493 225 550 225 c 128,-1,17
 607 225 607 225 647 265.5 c 128,-1,18
 687 306 687 306 687 362.5 c 128,-1,19
 687 419 687 419 647 459.5 c 128,-1,12
 607 500 607 500 550 500 c 128,-1,13
550 550 m 128,-1,21
 628 550 628 550 682.5 495 c 128,-1,22
 737 440 737 440 737 362.5 c 128,-1,23
 737 285 737 285 682.5 230 c 128,-1,24
 628 175 628 175 550 175 c 128,-1,25
 472 175 472 175 417 230 c 128,-1,26
 362 285 362 285 362 362.5 c 128,-1,27
 362 440 362 440 417 495 c 128,-1,20
 472 550 472 550 550 550 c 128,-1,21
675 725 m 1,28,-1
 729 725 l 1,29,-1
 679 600 l 1,30,-1
 625 600 l 1,31,-1
 675 725 l 1,28,-1
525 725 m 1,32,-1
 575 725 l 1,33,-1
 575 600 l 1,34,-1
 525 600 l 1,35,-1
 525 725 l 1,32,-1
371 725 m 1,36,-1
 425 725 l 1,37,-1
 475 600 l 1,38,-1
 421 600 l 1,39,-1
 371 725 l 1,36,-1
300 800 m 1,40,-1
 300 100 l 1,41,-1
 800 100 l 1,42,-1
 800 800 l 1,43,-1
 300 800 l 1,40,-1
200 900 m 1,44,-1
 900 900 l 1,45,-1
 900 0 l 1,46,-1
 200 0 l 1,47,-1
 200 900 l 1,44,-1
EndSplineSet
Ligature2: "sitelen+-space" p u space
Substitution2: "cartouched sitelen" cart.pu
Ligature2: "sitelen" p u
EndChar

StartChar: sama.t
Encoding: 989526 989526 106
Width: 1100
GlyphClass: 1
Flags: MW
LayerCount: 2
Fore
SplineSet
200 350 m 1,0,-1
 900 350 l 1,1,-1
 900 250 l 1,2,-1
 200 250 l 1,3,-1
 200 350 l 1,0,-1
200 650 m 1,4,-1
 900 650 l 1,5,-1
 900 550 l 1,6,-1
 200 550 l 1,7,-1
 200 650 l 1,4,-1
EndSplineSet
Ligature2: "sitelen+-space" s a m a space
Substitution2: "cartouched sitelen" cart.sama
Ligature2: "sitelen" s a m a
EndChar

StartChar: seli.t
Encoding: 989527 989527 107
Width: 1100
GlyphClass: 1
Flags: MW
LayerCount: 2
Fore
SplineSet
475 150 m 128,-1,1
 475 181 475 181 497 203 c 128,-1,2
 519 225 519 225 550 225 c 128,-1,3
 581 225 581 225 603 203 c 128,-1,4
 625 181 625 181 625 150 c 128,-1,5
 625 119 625 119 603 97 c 128,-1,6
 581 75 581 75 550 75 c 128,-1,7
 519 75 519 75 497 97 c 128,-1,0
 475 119 475 119 475 150 c 128,-1,1
909.53125 780.759765625 m 1,8,-1
 1000 738.15234375 l 1,9,-1
 765.662109375 240.573242188 l 1,10,-1
 675.193359375 283.1796875 l 1,11,-1
 909.53125 780.759765625 l 1,8,-1
100 738.15234375 m 1,12,-1
 190.46875 780.759765625 l 1,13,-1
 424.806640625 283.1796875 l 1,14,-1
 334.337890625 240.573242188 l 1,15,-1
 100 738.15234375 l 1,12,-1
500 850 m 1,16,-1
 600 850 l 1,17,-1
 600 300 l 1,18,-1
 500 300 l 1,19,-1
 500 850 l 1,16,-1
EndSplineSet
Ligature2: "sitelen+-space" s e l i space
Substitution2: "cartouched sitelen" cart.seli
Ligature2: "sitelen" s e l i
EndChar

StartChar: selo.t
Encoding: 989528 989528 108
Width: 1100
GlyphClass: 1
Flags: MW
LayerCount: 2
Fore
SplineSet
100 700 m 1,0,-1
 1000 700 l 1,1,-1
 1000 200 l 1,2,-1
 900 200 l 1,3,-1
 900 600 l 1,4,-1
 775 600 l 1,5,-1
 775 200 l 1,6,-1
 675 200 l 1,7,-1
 675 600 l 1,8,-1
 425 600 l 1,9,-1
 425 201 l 1,10,-1
 325 201 l 1,11,-1
 325 600 l 1,12,-1
 200 600 l 1,13,-1
 200 200 l 1,14,-1
 100 200 l 1,15,-1
 100 700 l 1,0,-1
EndSplineSet
Ligature2: "sitelen+-space" s e l o space
Substitution2: "cartouched sitelen" cart.selo
Ligature2: "sitelen" s e l o
EndChar

StartChar: seme.t
Encoding: 989529 989529 109
Width: 1100
GlyphClass: 1
Flags: MW
LayerCount: 2
Fore
SplineSet
475 75 m 128,-1,1
 475 106 475 106 497 128 c 128,-1,2
 519 150 519 150 550 150 c 128,-1,3
 581 150 581 150 603 128 c 128,-1,4
 625 106 625 106 625 75 c 128,-1,5
 625 44 625 44 603 22 c 128,-1,6
 581 0 581 0 550 0 c 128,-1,7
 519 0 519 0 497 22 c 128,-1,0
 475 44 475 44 475 75 c 128,-1,1
549.997070312 900.000976562 m 0,8,9
 556.120434123 900.000976562 556.120434123 900.000976562 562.254882812 899.69140625 c 0,10,11
 563.034322991 899.653809314 563.034322991 899.653809314 568.771484375 899.225585938 c 0,12,13
 571.501159085 899.048128226 571.501159085 899.048128226 574.310546875 898.802734375 c 0,14,15
 577.369520062 898.507241727 577.369520062 898.507241727 582.86328125 897.784179688 c 0,16,17
 584.389544043 897.599855178 584.389544043 897.599855178 586.0625 897.375976562 c 0,18,19
 590.32572445 896.759410081 590.32572445 896.759410081 595.9375 895.717773438 c 0,20,21
 596.812011719 895.5625 596.812011719 895.5625 597.684570312 895.40234375 c 0,22,23
 602.767396032 894.420247715 602.767396032 894.420247715 608.479492188 893.05078125 c 0,24,25
 608.583007813 893.02734375 608.583007813 893.02734375 608.789550781 892.980957031 c 0,26,27
 614.548971011 891.590331465 614.548971011 891.590331465 620.329101562 889.8984375 c 2,28,-1
 620.479492188 889.856445312 l 2,29,30
 626.051753073 888.221973361 626.051753073 888.221973361 631.641601562 886.291015625 c 2,31,-1
 631.83203125 886.223632812 l 2,32,33
 637.165712493 884.376414207 637.165712493 884.376414207 642.534179688 882.234375 c 0,34,35
 648.160530863 879.980107463 648.160530863 879.980107463 653.319335938 877.635742188 c 0,36,37
 653.774902344 877.432128906 653.774902344 877.432128906 654.228515625 877.227539062 c 0,38,39
 658.929656769 875.066507474 658.929656769 875.066507474 663.706054688 872.623046875 c 0,40,41
 664.461914062 872.237792969 664.461914062 872.237792969 665.21484375 871.84765625 c 0,42,43
 669.416538676 869.661803398 669.416538676 869.661803398 673.7265625 867.202148438 c 0,44,45
 674.975672223 866.492604213 674.975672223 866.492604213 676.067382812 865.858398438 c 0,46,47
 679.839122147 863.650410413 679.839122147 863.650410413 683.642578125 861.23828125 c 0,48,49
 685.064941406 860.340332031 685.064941406 860.340332031 686.474609375 859.424804688 c 0,50,51
 689.703645943 857.316103415 689.703645943 857.316103415 693.130859375 854.91796875 c 0,52,53
 695.009633023 853.6074754 695.009633023 853.6074754 696.779296875 852.32421875 c 0,54,55
 699.491645401 850.353124505 699.491645401 850.353124505 702.407226562 848.107421875 c 0,56,57
 704.466796875 846.523925781 704.466796875 846.523925781 706.494140625 844.8984375 c 0,58,59
 709.00177965 842.883266045 709.00177965 842.883266045 711.465820312 840.794921875 c 0,60,61
 713.671625867 838.928138103 713.671625867 838.928138103 715.899414062 836.950195312 c 128,-1,62
 718.127621223 834.971414326 718.127621223 834.971414326 720.172851562 833.069335938 c 0,63,64
 722.537286208 830.870277628 722.537286208 830.870277628 724.767578125 828.6875 c 0,65,66
 726.747306513 826.7502362 726.747306513 826.7502362 728.684570312 824.770507812 c 0,67,68
 730.903808594 822.501464844 730.903808594 822.501464844 733.06640625 820.176757812 c 0,69,70
 734.977292478 818.12063284 734.977292478 818.12063284 736.947265625 815.90234375 c 128,-1,71
 738.895507812 813.708007812 738.895507812 813.708007812 740.791992188 811.46875 c 0,72,73
 742.878992381 809.004563414 742.878992381 809.004563414 744.895507812 806.497070312 c 0,74,75
 746.516385956 804.475722727 746.516385956 804.475722727 748.104492188 802.41015625 c 0,76,77
 750.350194817 799.494575088 750.350194817 799.494575088 752.321289062 796.782226562 c 0,78,79
 753.64177041 794.959195952 753.64177041 794.959195952 754.915039062 793.133789062 c 0,80,81
 757.300598202 789.726064087 757.300598202 789.726064087 759.420898438 786.478515625 c 0,82,83
 760.337890625 785.067871094 760.337890625 785.067871094 761.235351562 783.646484375 c 0,84,85
 763.651391085 779.835372062 763.651391085 779.835372062 765.85546875 776.0703125 c 0,86,87
 766.533691406 774.904296875 766.533691406 774.904296875 767.198242188 773.729492188 c 0,88,89
 769.634547204 769.462987304 769.634547204 769.462987304 771.844726562 765.21875 c 0,90,91
 772.183892752 764.565823329 772.183892752 764.565823329 772.620117188 763.709960938 c 0,92,93
 775.050425275 758.962175194 775.050425275 758.962175194 777.224609375 754.232421875 c 0,94,95
 777.4296875 753.778320312 777.4296875 753.778320312 777.6328125 753.322265625 c 0,96,97
 779.984278176 748.149342414 779.984278176 748.149342414 781.994140625 743.147460938 c 0,98,99
 784.373844258 737.167231437 784.373844258 737.167231437 786.221679688 731.8359375 c 2,100,-1
 786.288085938 731.64453125 l 2,101,102
 788.216166812 726.064490591 788.216166812 726.064490591 789.853515625 720.482421875 c 2,103,-1
 789.89453125 720.33203125 l 2,104,105
 791.583902579 714.56051895 791.583902579 714.56051895 792.908203125 709.102539062 c 0,106,107
 793.02161137 708.596376974 793.02161137 708.596376974 793.046875 708.482421875 c 0,108,109
 794.416149095 702.772689419 794.416149095 702.772689419 795.3984375 697.6875 c 0,110,111
 795.532714844 696.959960938 795.532714844 696.959960938 795.713867188 695.94140625 c 0,112,113
 796.755307141 690.33802467 796.755307141 690.33802467 797.373046875 686.065429688 c 0,114,115
 797.596925491 684.392473731 797.596925491 684.392473731 797.78125 682.866210938 c 0,116,117
 798.50903717 677.323978277 798.50903717 677.323978277 798.798828125 674.314453125 c 0,118,119
 799.041992188 671.547363281 799.041992188 671.547363281 799.22265625 668.774414062 c 0,120,121
 799.649518666 663.058057734 799.649518666 663.058057734 799.688476562 662.2578125 c 0,122,123
 799.993657349 656.124852471 799.993657349 656.124852471 799.998046875 650 c 0,124,125
 799.996636369 634.420965454 799.996636369 634.420965454 797.869140625 617.971679688 c 0,126,127
 797.710939603 616.85363717 797.710939603 616.85363717 797.5078125 615.51171875 c 0,128,129
 795.439240504 600.679431584 795.439240504 600.679431584 791.584960938 586.118164062 c 0,130,131
 791.196777344 584.629882812 791.196777344 584.629882812 790.7890625 583.146484375 c 0,132,133
 786.650752906 568.251531061 786.650752906 568.251531061 780.8671875 554.305664062 c 0,134,135
 780.609619141 553.648925781 780.609619141 553.648925781 780.2421875 552.729492188 c 0,136,137
 774.032610185 538.037541524 774.032610185 538.037541524 765.974609375 524.204101562 c 0,138,139
 765.516664404 523.45080446 765.516664404 523.45080446 765.0703125 522.7265625 c 0,140,141
 757.369736841 509.716497304 757.369736841 509.716497304 747.939453125 497.477539062 c 0,142,143
 747.018066406 496.291015625 747.018066406 496.291015625 746.083984375 495.116210938 c 0,144,145
 736.780609311 483.337531429 736.780609311 483.337531429 726.15234375 472.776367188 c 0,146,147
 725.23828125 471.840332031 725.23828125 471.840332031 724.3125 470.916015625 c 0,148,149
 712.477420809 459.398462948 712.477420809 459.398462948 700.030273438 450.059570312 c 2,150,-1
 699.983398438 450.0234375 l 1,151,-1
 660.295898438 419.606445312 l 2,152,153
 631.967150022 398.469381594 631.967150022 398.469381594 616.056084431 366.9077022 c 128,-1,154
 600.145018839 335.346022806 600.145018839 335.346022806 600 300.000976562 c 2,155,-1
 600 225 l 1,156,-1
 500.000976562 225 l 1,157,-1
 500.000976562 300.000976562 l 2,158,159
 500.187743918 358.934500133 500.187743918 358.934500133 526.677828221 411.578801332 c 128,-1,160
 553.167912525 464.223102532 553.167912525 464.223102532 600.3828125 499.4921875 c 2,161,-1
 639.966796875 530.043945312 l 2,162,163
 668.294945366 551.277788498 668.294945366 551.277788498 684.139294045 582.937523392 c 128,-1,164
 699.983642723 614.597258285 699.983642723 614.597258285 699.999023438 650 c 0,165,166
 699.999023438 655.8917356 699.999023438 655.8917356 699.317382812 663.5234375 c 0,167,168
 699.181152344 665.124511719 699.181152344 665.124511719 699.01171875 666.72265625 c 0,169,170
 698.30879256 673.054923825 698.30879256 673.054923825 697.125976562 679.073242188 c 0,171,172
 696.745117188 680.88671875 696.745117188 680.88671875 696.319335938 682.690429688 c 0,173,174
 695.326501145 687.153271229 695.326501145 687.153271229 693.953125 691.883789062 c 0,175,176
 693.394597073 693.912206346 693.394597073 693.912206346 692.810546875 695.827148438 c 0,177,178
 691.136329701 701.048153777 691.136329701 701.048153777 688.84765625 706.653320312 c 0,179,180
 687.961992464 708.780401911 687.961992464 708.780401911 687.043945312 710.8125 c 0,181,182
 685.099790188 715.187220905 685.099790188 715.187220905 682.9609375 719.283203125 c 0,183,184
 682.258203591 720.703311234 682.258203591 720.703311234 681.524414062 722.109375 c 0,185,186
 678.891894149 726.900507844 678.891894149 726.900507844 675.313476562 732.3359375 c 0,187,188
 674.269042969 733.915039062 674.269042969 733.915039062 673.184570312 735.467773438 c 0,189,190
 669.446426058 740.845426082 669.446426058 740.845426082 666.135742188 744.893554688 c 0,191,192
 665.791153673 745.341934923 665.791153673 745.341934923 665.649414062 745.524414062 c 0,193,194
 662.066107506 749.85882933 662.066107506 749.85882933 657.09765625 754.928710938 c 0,195,196
 656.022460938 756.025878906 656.022460938 756.025878906 654.926757812 757.099609375 c 0,197,198
 649.864236953 762.060847145 649.864236953 762.060847145 645.521484375 765.65234375 c 0,199,200
 645.206542969 765.895507812 645.206542969 765.895507812 644.891601562 766.137695312 c 0,201,202
 640.863299225 769.433461177 640.863299225 769.433461177 635.465820312 773.186523438 c 0,203,204
 633.913085938 774.270507812 633.913085938 774.270507812 632.333984375 775.315429688 c 0,205,206
 626.889586691 778.89975138 626.889586691 778.89975138 622.107421875 781.52734375 c 0,207,208
 620.663594396 782.279337229 620.663594396 782.279337229 619.280273438 782.963867188 c 0,209,210
 615.191267259 785.099077104 615.191267259 785.099077104 610.810546875 787.045898438 c 0,211,212
 608.743652344 787.979003906 608.743652344 787.979003906 606.650390625 788.849609375 c 0,213,214
 601.041278604 791.140524585 601.041278604 791.140524585 595.82421875 792.813476562 c 0,215,216
 593.861328125 793.411132812 593.861328125 793.411132812 591.881835938 793.955078125 c 0,217,218
 587.15287554 795.329084355 587.15287554 795.329084355 582.688476562 796.322265625 c 0,219,220
 580.885253906 796.747070312 580.885253906 796.747070312 579.071289062 797.127929688 c 0,221,222
 573.038218648 798.313359829 573.038218648 798.313359829 566.720703125 799.014648438 c 0,223,224
 565.053578932 799.190376469 565.053578932 799.190376469 563.521484375 799.319335938 c 0,225,226
 555.892689743 800.002237449 555.892689743 800.002237449 549.998046875 800.000976562 c 0,227,228
 537.754241851 799.929083639 537.754241851 799.929083639 525.68359375 797.872070312 c 0,229,230
 524.616018921 797.690565195 524.616018921 797.690565195 522.586629815 797.243737449 c 128,-1,231
 520.557240709 796.796909704 520.557240709 796.796909704 520.3359375 796.750976562 c 0,232,233
 511.122566027 794.891275805 511.122566027 794.891275805 502.233398438 791.903320312 c 0,234,235
 498.866691825 790.751011299 498.866691825 790.751011299 493.711914062 788.627929688 c 0,236,237
 486.852497328 785.831398249 486.852497328 785.831398249 480.301757812 782.375 c 0,238,239
 470.185436957 776.985972928 470.185436957 776.985972928 460.891601562 770.024414062 c 0,240,241
 460.391380228 769.685025599 460.391380228 769.685025599 460.29296875 769.610351562 c 0,242,243
 431.964569581 748.472083596 431.964569581 748.472083596 416.055039239 716.909149012 c 128,-1,244
 400.145508898 685.346214429 400.145508898 685.346214429 400.001953125 650 c 1,245,-1
 300.002929688 650 l 1,246,247
 300.190429967 708.933681502 300.190429967 708.933681502 326.680089001 761.578073064 c 128,-1,248
 353.169748036 814.222464626 353.169748036 814.222464626 400.383789062 849.4921875 c 2,249,-1
 400.456054688 849.543945312 l 2,250,251
 412.104390536 858.327840153 412.104390536 858.327840153 424.697265625 865.698242188 c 0,252,253
 429.411849409 868.459588547 429.411849409 868.459588547 436.102539062 871.924804688 c 0,254,255
 445.418748739 876.735250061 445.418748739 876.735250061 455.114257812 880.750976562 c 0,256,257
 464.284860279 884.564854909 464.284860279 884.564854909 473.06640625 887.448242188 c 0,258,259
 479.673220883 889.588333099 479.673220883 889.588333099 486.352539062 891.350585938 c 0,260,261
 499.766568037 894.947511959 499.766568037 894.947511959 511.596679688 896.837890625 c 0,262,263
 514.352050781 897.272949219 514.352050781 897.272949219 517.116210938 897.64453125 c 0,264,265
 533.811116589 899.932307146 533.811116589 899.932307146 549.997070312 900.000976562 c 0,8,9
596.1796875 897.0234375 m 0,266,267
 520.599891178 910.934366875 520.599891178 910.934366875 451.478502911 881.119370336 c 128,-1,268
 382.357114645 851.304373796 382.357114645 851.304373796 340.478202818 788.581476018 c 128,-1,269
 298.599290991 725.85857824 298.599290991 725.85857824 298.676757812 648.676757812 c 1,270,-1
 401.317382812 648.676757812 l 1,271,272
 401.317382812 711.782000624 401.317382812 711.782000624 445.471322401 755.048828737 c 128,-1,273
 489.62526199 798.31565685 489.62526199 798.31565685 550 798.676757812 c 0,274,275
 611.422856182 798.676757812 611.422856182 798.676757812 655.049806997 755.03003086 c 128,-1,276
 698.676757812 711.383303907 698.676757812 711.383303907 698.676757812 650.000976562 c 0,277,278
 698.662844534 614.915350334 698.662844534 614.915350334 682.951251797 583.528839913 c 128,-1,279
 667.23965906 552.142329492 667.23965906 552.142329492 639.1640625 531.086914062 c 2,280,-1
 629.276584201 523.458143446 l 2,281,282
 619.383029514 515.824598524 619.383029514 515.824598524 609.486436632 508.18866645 c 2,283,-1
 599.58984375 500.552734375 l 2,284,285
 552.127959894 465.099684861 552.127959894 465.099684861 525.49831161 412.172875729 c 128,-1,286
 498.868663327 359.246066597 498.868663327 359.246066597 498.676757812 300 c 2,287,-1
 498.676757812 223.676757812 l 1,288,-1
 601.323242188 223.676757812 l 1,289,-1
 601.323242188 299.994140625 l 2,290,291
 601.468259251 335.02821241 601.468259251 335.02821241 617.24353426 366.318859585 c 128,-1,292
 633.018809268 397.609506761 633.018809268 397.609506761 661.096679688 418.55859375 c 0,293,294
 716.959226273 461.383225863 716.959226273 461.383225863 727.083984375 471.834960938 c 0,295,296
 786.805028713 531.145190221 786.805028713 531.145190221 799.182617188 617.797851562 c 0,297,298
 800.858371166 630.734794913 800.858371166 630.734794913 801.236806377 645.97030747 c 128,-1,299
 801.615241589 661.205820026 801.615241589 661.205820026 797.39099831 689.946684718 c 128,-1,300
 793.166755031 718.68754941 793.166755031 718.68754941 783.172790752 744.92765122 c 128,-1,301
 773.178826474 771.167753029 773.178826474 771.167753029 750.16346706 801.881137843 c 128,-1,302
 727.148107647 832.594522656 727.148107647 832.594522656 693.890625 856.0078125 c 0,303,304
 649.092982358 887.26645345 649.092982358 887.26645345 596.1796875 897.0234375 c 0,266,267
550.005859375 898.676757812 m 0,305,306
 652.877485898 898.676757812 652.877485898 898.676757812 725.777121855 825.739365591 c 128,-1,307
 798.676757812 752.80197337 798.676757812 752.80197337 798.676757812 650 c 0,308,309
 798.676757812 592.928563678 798.676757812 592.928563678 772.897724745 540.034049481 c 128,-1,310
 747.118691677 487.139535284 747.118691677 487.139535284 699.0546875 450.959960938 c 0,311,312
 659.50290288 420.669902727 659.50290288 420.669902727 659.489257812 420.66015625 c 0,313,314
 630.909926513 399.336057114 630.909926513 399.336057114 614.867325662 367.502446536 c 128,-1,315
 598.824724811 335.668835957 598.824724811 335.668835957 598.676757812 300.005859375 c 2,316,-1
 598.676757812 226.323242188 l 1,317,-1
 501.323242188 226.323242188 l 1,318,-1
 501.323242188 300 l 2,319,320
 501.512209369 358.61937746 501.512209369 358.61937746 527.862718349 410.987151761 c 128,-1,321
 554.21322733 463.354926062 554.21322733 463.354926062 601.171875 498.431640625 c 0,322,323
 640.763698683 528.980489813 640.763698683 528.980489813 640.77734375 528.991210938 c 0,324,325
 669.353803042 550.421174951 669.353803042 550.421174951 685.33083246 582.351727645 c 128,-1,326
 701.307861877 614.28228034 701.307861877 614.28228034 701.323242188 649.999023438 c 0,327,328
 701.323242188 712.483170581 701.323242188 712.483170581 656.917840551 756.903206384 c 128,-1,329
 612.512438915 801.323242188 612.512438915 801.323242188 550 801.323242188 c 0,330,331
 488.568842806 800.954878182 488.568842806 800.954878182 444.02881861 757.352183283 c 128,-1,332
 399.488794414 713.749488383 399.488794414 713.749488383 398.688476562 651.323242188 c 1,333,-1
 301.331054688 651.323242188 l 1,334,335
 302.212386114 754.384526222 302.212386114 754.384526222 375.494417015 826.307225629 c 128,-1,336
 448.776447916 898.229925037 448.776447916 898.229925037 550.005859375 898.676757812 c 0,305,306
EndSplineSet
Ligature2: "sitelen+-space" s e m e space
Substitution2: "cartouched sitelen" cart.seme
Ligature2: "sitelen" s e m e
EndChar

StartChar: sewi.t
Encoding: 989530 989530 110
Width: 1100
GlyphClass: 1
Flags: MW
LayerCount: 2
Fore
SplineSet
850 900 m 1,0,-1
 950 900 l 1,1,-1
 950 0 l 1,2,-1
 850 0 l 1,3,-1
 850 900 l 1,0,-1
625 700 m 1,4,-1
 725 700 l 1,5,-1
 725 163 l 2,6,7
 725 95 725 95 677.5 47.5 c 128,-1,8
 630 0 630 0 562 0 c 0,9,10
 497 0 497 0 450 46 c 1,11,12
 403 0 403 0 338 0 c 0,13,14
 272 0 272 0 225 46 c 1,15,16
 178 0 178 0 112 0 c 1,17,18
 112 6 112 6 112 16.5 c 128,-1,19
 112 27 112 27 112 49 c 128,-1,20
 112 71 112 71 112 85.5 c 2,21,-1
 112 100 l 1,22,23
 138 100 138 100 156.5 118.5 c 128,-1,24
 175 137 175 137 175 163 c 2,25,-1
 175 300 l 1,26,-1
 275 300 l 1,27,-1
 275 163 l 2,28,29
 275 137 275 137 293.5 118.5 c 128,-1,30
 312 100 312 100 337.5 100 c 128,-1,31
 363 100 363 100 381.5 118.5 c 128,-1,32
 400 137 400 137 400 162 c 2,33,-1
 400 500 l 1,34,-1
 500 500 l 1,35,-1
 500 163 l 2,36,37
 500 137 500 137 518.5 118.5 c 128,-1,38
 537 100 537 100 562.5 100 c 128,-1,39
 588 100 588 100 606.5 118.5 c 128,-1,40
 625 137 625 137 625 163 c 2,41,-1
 625 700 l 1,4,-1
EndSplineSet
Ligature2: "sitelen+-space" s e w i space
Substitution2: "cartouched sitelen" cart.sewi
Ligature2: "sitelen" s e w i
EndChar

StartChar: sijelo.t
Encoding: 989531 989531 111
Width: 1100
GlyphClass: 1
Flags: MW
LayerCount: 2
Fore
SplineSet
150 900 m 1,0,-1
 950 900 l 1,1,-1
 950 0 l 1,2,-1
 850 0 l 1,3,-1
 850 800 l 1,4,-1
 600 800 l 1,5,-1
 600 0 l 1,6,-1
 500 0 l 1,7,-1
 500 800 l 1,8,-1
 250 800 l 1,9,-1
 250 0 l 1,10,-1
 150 0 l 1,11,-1
 150 900 l 1,0,-1
EndSplineSet
Ligature2: "sitelen+-space" s i j e l o space
Substitution2: "cartouched sitelen" cart.sijelo
Ligature2: "sitelen" s i j e l o
EndChar

StartChar: sike.t
Encoding: 989532 989532 112
Width: 1100
GlyphClass: 1
Flags: MW
LayerCount: 2
Fore
SplineSet
550 550 m 128,-1,1
 509 550 509 550 479.5 520.5 c 128,-1,2
 450 491 450 491 450 450 c 128,-1,3
 450 409 450 409 479.5 379.5 c 128,-1,4
 509 350 509 350 550 350 c 128,-1,5
 591 350 591 350 620.5 379.5 c 128,-1,6
 650 409 650 409 650 450 c 128,-1,7
 650 491 650 491 620.5 520.5 c 128,-1,0
 591 550 591 550 550 550 c 128,-1,1
550 650 m 128,-1,9
 633 650 633 650 691.5 591.5 c 128,-1,10
 750 533 750 533 750 450 c 128,-1,11
 750 367 750 367 691.5 308.5 c 128,-1,12
 633 250 633 250 550 250 c 128,-1,13
 467 250 467 250 408.5 308.5 c 128,-1,14
 350 367 350 367 350 450 c 128,-1,15
 350 533 350 533 408.5 591.5 c 128,-1,8
 467 650 467 650 550 650 c 128,-1,9
550 800 m 128,-1,17
 455 800 455 800 374.5 753 c 128,-1,18
 294 706 294 706 247 625.5 c 128,-1,19
 200 545 200 545 200 450 c 128,-1,20
 200 355 200 355 247 274.5 c 128,-1,21
 294 194 294 194 374.5 147 c 128,-1,22
 455 100 455 100 550 100 c 128,-1,23
 645 100 645 100 725.5 147 c 128,-1,24
 806 194 806 194 853 274.5 c 128,-1,25
 900 355 900 355 900 450 c 128,-1,26
 900 545 900 545 853 625.5 c 128,-1,27
 806 706 806 706 725.5 753 c 128,-1,16
 645 800 645 800 550 800 c 128,-1,17
550 900 m 128,-1,29
 641 900 641 900 724.5 864.5 c 128,-1,30
 808 829 808 829 868.5 768.5 c 128,-1,31
 929 708 929 708 964.5 624.5 c 128,-1,32
 1000 541 1000 541 1000 450 c 128,-1,33
 1000 359 1000 359 964.5 275.5 c 128,-1,34
 929 192 929 192 868.5 131.5 c 128,-1,35
 808 71 808 71 724.5 35.5 c 128,-1,36
 641 0 641 0 550 0 c 128,-1,37
 459 0 459 0 375.5 35.5 c 128,-1,38
 292 71 292 71 231.5 131.5 c 128,-1,39
 171 192 171 192 135.5 275.5 c 128,-1,40
 100 359 100 359 100 450 c 128,-1,41
 100 541 100 541 135.5 624.5 c 128,-1,42
 171 708 171 708 231.5 768.5 c 128,-1,43
 292 829 292 829 375.5 864.5 c 128,-1,28
 459 900 459 900 550 900 c 128,-1,29
EndSplineSet
LCarets2: 4 0 0 0 0
Ligature2: "sitelen+-space" s i k e space
Substitution2: "cartouched sitelen" cart.sike
Ligature2: "sitelen" s i k e
EndChar

StartChar: sin.t
Encoding: 989533 989533 113
Width: 1100
GlyphClass: 1
Flags: MW
LayerCount: 2
Fore
SplineSet
100 400 m 1,0,-1
 425 400 l 1,1,-1
 425 300 l 1,2,-1
 100 300 l 1,3,-1
 100 400 l 1,0,-1
675 400 m 1,4,-1
 1000 400 l 1,5,-1
 1000 300 l 1,6,-1
 675 300 l 1,7,-1
 675 400 l 1,4,-1
500 750 m 1,8,-1
 600 750 l 1,9,-1
 600 475 l 1,10,-1
 500 475 l 1,11,-1
 500 750 l 1,8,-1
EndSplineSet
Ligature2: "sitelen+-space" s i n space
Substitution2: "cartouched sitelen" cart.sin
Ligature2: "sitelen" s i n
EndChar

StartChar: sina.t
Encoding: 989534 989534 114
Width: 1100
GlyphClass: 1
Flags: MW
LayerCount: 2
Fore
SplineSet
550 100 m 128,-1,1
 591 100 591 100 620.5 129.5 c 128,-1,2
 650 159 650 159 650 200 c 128,-1,3
 650 241 650 241 620.5 270.5 c 128,-1,4
 591 300 591 300 550 300 c 128,-1,5
 509 300 509 300 479.5 270.5 c 128,-1,6
 450 241 450 241 450 200 c 128,-1,7
 450 159 450 159 479.5 129.5 c 128,-1,0
 509 100 509 100 550 100 c 128,-1,1
550 0 m 0,8,9
 482 0 482 0 427.5 42 c 128,-1,10
 373 84 373 84 356 150 c 0,11,12
 318 298 318 298 318 450 c 128,-1,13
 318 602 318 602 356 750 c 0,14,15
 376 826 376 826 406 900 c 1,16,-1
 499 862 l 1,17,18
 471 794 471 794 453 725 c 0,19,20
 418 590 418 590 418 450 c 0,21,22
 418 403 418 403 423 354 c 1,23,24
 478 400 478 400 550 400 c 0,25,26
 633 400 633 400 691.5 341.5 c 128,-1,27
 750 283 750 283 750 200 c 128,-1,28
 750 117 750 117 691.5 58.5 c 128,-1,29
 633 0 633 0 550 0 c 0,8,9
EndSplineSet
Ligature2: "sitelen+-space" s i n a space
Substitution2: "cartouched sitelen" cart.sina
Ligature2: "sitelen" s i n a
EndChar

StartChar: sinpin.t
Encoding: 989535 989535 115
Width: 1100
GlyphClass: 1
Flags: MW
LayerCount: 2
Fore
SplineSet
712.5 450 m 128,-1,1
 712.5 481.065673828 712.5 481.065673828 734.467163086 503.032836914 c 128,-1,2
 756.434326172 525 756.434326172 525 787.5 525 c 128,-1,3
 818.565673828 525 818.565673828 525 840.532836914 503.032836914 c 128,-1,4
 862.5 481.065673828 862.5 481.065673828 862.5 450 c 128,-1,5
 862.5 418.934326172 862.5 418.934326172 840.532836914 396.967163086 c 128,-1,6
 818.565673828 375 818.565673828 375 787.5 375 c 128,-1,7
 756.434326172 375 756.434326172 375 734.467163086 396.967163086 c 128,-1,0
 712.5 418.934326172 712.5 418.934326172 712.5 450 c 128,-1,1
262.499023438 900 m 1,8,-1
 662.5 900 l 1,9,-1
 662.5 -0.001953125 l 1,10,-1
 262.499023438 -0.001953125 l 1,11,-1
 262.499023438 99.9970703125 l 1,12,-1
 562.49609375 99.9970703125 l 1,13,-1
 562.49609375 800.000976562 l 1,14,-1
 262.499023438 800.000976562 l 1,15,-1
 262.499023438 900 l 1,8,-1
EndSplineSet
Ligature2: "sitelen+-space" s i n p i n space
Substitution2: "cartouched sitelen" cart.sinpin
Ligature2: "sitelen" s i n p i n
EndChar

StartChar: sitelen.t
Encoding: 989536 989536 116
Width: 1100
GlyphClass: 1
Flags: MW
LayerCount: 2
Fore
SplineSet
746 521 m 0,0,1
 749 521 749 521 751 521 c 0,2,3
 780 521 780 521 801 500 c 128,-1,4
 822 479 822 479 822 450 c 128,-1,5
 822 421 822 421 801 400 c 128,-1,6
 780 379 780 379 751 379 c 128,-1,7
 722 379 722 379 701 400 c 128,-1,8
 680 421 680 421 680 450 c 128,-1,9
 680 479 680 479 701 500 c 0,10,11
 720 519 720 519 746 521 c 0,0,1
545 521 m 0,12,13
 548 521 548 521 550 521 c 0,14,15
 579 521 579 521 600 500 c 128,-1,16
 621 479 621 479 621 450 c 128,-1,17
 621 421 621 421 600 400 c 128,-1,18
 579 379 579 379 550 379 c 128,-1,19
 521 379 521 379 500 400 c 128,-1,20
 479 421 479 421 479 450 c 128,-1,21
 479 479 479 479 500 500 c 0,22,23
 519 519 519 519 545 521 c 0,12,13
346 521 m 0,24,25
 349 521 349 521 351 521 c 0,26,27
 380 521 380 521 401 500.5 c 128,-1,28
 422 480 422 480 422 450.5 c 128,-1,29
 422 421 422 421 401 400.5 c 128,-1,30
 380 380 380 380 351 380 c 128,-1,31
 322 380 322 380 301 400.5 c 128,-1,32
 280 421 280 421 280 450.5 c 128,-1,33
 280 480 280 480 301 501 c 0,34,35
 320 519 320 519 346 521 c 0,24,25
225 800 m 1,36,-1
 225 100 l 1,37,-1
 875 100 l 1,38,-1
 875 800 l 1,39,-1
 225 800 l 1,36,-1
125 900 m 1,40,-1
 975 900 l 1,41,-1
 975 100 l 1,42,-1
 975 0 l 1,43,-1
 125 0 l 1,44,-1
 125 100 l 1,45,-1
 125 800 l 1,46,-1
 125 900 l 1,40,-1
EndSplineSet
Ligature2: "sitelen+-space" s i t e l e n space
Substitution2: "cartouched sitelen" cart.sitelen
Ligature2: "sitelen" s i t e l e n
EndChar

StartChar: sona.t
Encoding: 989537 989537 117
Width: 1100
GlyphClass: 1
Flags: MW
LayerCount: 2
Fore
SplineSet
375 500 m 1,0,-1
 375 100 l 1,1,-1
 725 100 l 1,2,-1
 725 500 l 1,3,-1
 375 500 l 1,0,-1
275 600 m 1,4,-1
 825 600 l 1,5,-1
 825 100 l 1,6,-1
 825 0 l 1,7,-1
 275 0 l 1,8,-1
 275 600 l 1,4,-1
750 900 m 1,9,-1
 855 900 l 1,10,-1
 780 675 l 1,11,-1
 675 675 l 1,12,-1
 750 900 l 1,9,-1
500 900 m 1,13,-1
 600 900 l 1,14,-1
 600 675 l 1,15,-1
 500 675 l 1,16,-1
 500 900 l 1,13,-1
245 900 m 1,17,-1
 350 900 l 1,18,-1
 425 675 l 1,19,-1
 320 675 l 1,20,-1
 245 900 l 1,17,-1
EndSplineSet
Ligature2: "sitelen+-space" s o n a space
Substitution2: "cartouched sitelen" cart.sona
Ligature2: "sitelen" s o n a
EndChar

StartChar: soweli.t
Encoding: 989538 989538 118
Width: 1100
GlyphClass: 1
Flags: MW
LayerCount: 2
Fore
SplineSet
600 554.5 m 128,-1,1
 579 534 579 534 550 534 c 128,-1,2
 521 534 521 534 500 554.5 c 128,-1,3
 479 575 479 575 479 604.5 c 128,-1,4
 479 634 479 634 500 654.5 c 128,-1,5
 521 675 521 675 550 675 c 128,-1,6
 579 675 579 675 600 654.5 c 128,-1,7
 621 634 621 634 621 604.5 c 128,-1,0
 621 575 621 575 600 554.5 c 128,-1,1
800 554.5 m 128,-1,9
 779 534 779 534 750 534 c 128,-1,10
 721 534 721 534 700 554.5 c 128,-1,11
 679 575 679 575 679 604.5 c 128,-1,12
 679 634 679 634 700 654.5 c 128,-1,13
 721 675 721 675 750 675 c 128,-1,14
 779 675 779 675 800 654.5 c 128,-1,15
 821 634 821 634 821 604.5 c 128,-1,8
 821 575 821 575 800 554.5 c 128,-1,9
150 375 m 1,16,-1
 250 375 l 1,17,-1
 250 25 l 1,18,-1
 150 25 l 1,19,-1
 150 375 l 1,16,-1
325 375 m 1,20,-1
 425 375 l 1,21,-1
 425 25 l 1,22,-1
 325 25 l 1,23,-1
 325 375 l 1,20,-1
500 375 m 1,24,-1
 600 375 l 1,25,-1
 600 25 l 1,26,-1
 500 25 l 1,27,-1
 500 375 l 1,24,-1
725 775 m 2,28,-1
 150 775 l 1,29,-1
 150 875 l 1,30,-1
 725 875 l 2,31,32
 849 875 849 875 937 787 c 128,-1,33
 1025 699 1025 699 1025 575 c 128,-1,34
 1025 451 1025 451 937 363 c 0,35,36
 867.293994133 293.293994133 867.293994133 293.293994133 775 278.803070697 c 1,37,-1
 775 25 l 1,38,-1
 675 25 l 1,39,-1
 675 375 l 1,40,-1
 725 375 l 2,41,42
 808 375 808 375 866.5 433.5 c 128,-1,43
 925 492 925 492 925 575 c 128,-1,44
 925 658 925 658 866.5 716.5 c 128,-1,45
 808 775 808 775 725 775 c 2,28,-1
EndSplineSet
Ligature2: "sitelen+-space" s o w e l i space
Substitution2: "cartouched sitelen" cart.soweli
Ligature2: "sitelen" s o w e l i
EndChar

StartChar: suli.t
Encoding: 989539 989539 119
Width: 1100
GlyphClass: 1
Flags: MW
LayerCount: 2
Fore
SplineSet
199 900 m 1,0,1
 351 772 351 772 449 600 c 0,2,3
 512 491 512 491 550 368 c 1,4,5
 587 491 587 491 650 600 c 0,6,7
 749 772 749 772 900 900 c 1,8,-1
 965 823 l 1,9,10
 827 707 827 707 737 550 c 0,11,12
 666 426 666 426 631 286 c 128,-1,13
 596 146 596 146 601 3 c 1,14,-1
 601 2 l 2,15,16
 601 1 601 1 601 0 c 1,17,-1
 599 0 l 1,18,-1
 500 0 l 1,19,-1
 499 0 l 1,20,21
 499 1 499 1 499 2 c 2,22,-1
 499 3 l 1,23,24
 503 146 503 146 468 286 c 128,-1,25
 433 426 433 426 362 550 c 0,26,27
 272 707 272 707 134 823 c 1,28,-1
 199 900 l 1,0,1
EndSplineSet
Ligature2: "sitelen+-space" s u l i space
Substitution2: "cartouched sitelen" cart.suli
Ligature2: "sitelen" s u l i
EndChar

StartChar: suno.t
Encoding: 989540 989540 120
Width: 1100
GlyphClass: 1
Flags: MW
LayerCount: 2
Fore
SplineSet
1000 500 m 1,0,-1
 1000 400 l 1,1,-1
 846.196929303 400 l 1,2,3
 831.706005867 307.706005867 831.706005867 307.706005867 762 238 c 128,-1,4
 692.293994133 168.293994133 692.293994133 168.293994133 600 153.803070697 c 1,5,-1
 600 0 l 1,6,-1
 500 0 l 1,7,-1
 500 153.803070697 l 1,8,9
 407.706005867 168.293994133 407.706005867 168.293994133 338 238 c 128,-1,10
 268.293994133 307.706005867 268.293994133 307.706005867 253.803070697 400 c 1,11,-1
 100 400 l 1,12,-1
 100 500 l 1,13,-1
 253.803070697 500 l 1,14,15
 268.293994133 592.293994133 268.293994133 592.293994133 338 662 c 128,-1,16
 407.706005867 731.706005867 407.706005867 731.706005867 500 746.196929303 c 1,17,-1
 500 900 l 1,18,-1
 600 900 l 1,19,-1
 600 746.196929303 l 1,20,21
 692.293994133 731.706005867 692.293994133 731.706005867 762 662 c 128,-1,22
 831.706005867 592.293994133 831.706005867 592.293994133 846.196929303 500 c 1,23,-1
 1000 500 l 1,0,-1
350 450 m 128,-1,25
 350 367 350 367 408.5 308.5 c 128,-1,26
 467 250 467 250 550 250 c 128,-1,27
 633 250 633 250 691.5 308.5 c 128,-1,28
 750 367 750 367 750 450 c 128,-1,29
 750 533 750 533 691.5 591.5 c 128,-1,30
 633 650 633 650 550 650 c 128,-1,31
 467 650 467 650 408.5 591.5 c 128,-1,24
 350 533 350 533 350 450 c 128,-1,25
EndSplineSet
Ligature2: "sitelen+-space" s u n o space
Substitution2: "cartouched sitelen" cart.suno
Ligature2: "sitelen" s u n o
EndChar

StartChar: supa.t
Encoding: 989541 989541 121
Width: 1100
GlyphClass: 1
Flags: MW
LayerCount: 2
Fore
SplineSet
100 625 m 1,0,-1
 1000 625 l 1,1,-1
 1000 525 l 1,2,-1
 850.364963504 525 l 1,3,-1
 875 275 l 1,4,-1
 774 275 l 1,5,-1
 749.378787879 525 l 1,6,-1
 350.621212121 525 l 1,7,-1
 326 275 l 1,8,-1
 225 275 l 1,9,-1
 249.635036496 525 l 1,10,-1
 100 525 l 1,11,-1
 100 625 l 1,0,-1
EndSplineSet
Ligature2: "sitelen+-space" s u p a space
Substitution2: "cartouched sitelen" cart.supa
Ligature2: "sitelen" s u p a
EndChar

StartChar: suwi.t
Encoding: 989542 989542 122
Width: 1100
GlyphClass: 1
Flags: MW
LayerCount: 2
Fore
SplineSet
475 250 m 128,-1,1
 475 281 475 281 497 303 c 128,-1,2
 519 325 519 325 550 325 c 128,-1,3
 581 325 581 325 603 303 c 128,-1,4
 625 281 625 281 625 250 c 128,-1,5
 625 219 625 219 603 197 c 128,-1,6
 581 175 581 175 550 175 c 128,-1,7
 519 175 519 175 497 197 c 128,-1,0
 475 219 475 219 475 250 c 128,-1,1
800.001953125 750.001953125 m 1,8,-1
 1000 450 l 1,9,-1
 879.810546875 450 l 1,10,-1
 799.997070312 569.723632812 l 1,11,-1
 720.182617188 450 l 1,12,-1
 600.00390625 450 l 1,13,-1
 800.001953125 750.001953125 l 1,8,-1
300.001953125 750.000976562 m 1,14,-1
 500.000976562 449.998046875 l 1,15,-1
 379.811523438 449.998046875 l 1,16,-1
 299.997070312 569.72265625 l 1,17,-1
 220.182617188 449.998046875 l 1,18,-1
 100.00390625 449.998046875 l 1,19,-1
 300.001953125 750.000976562 l 1,14,-1
EndSplineSet
Ligature2: "sitelen+-space" s u w i space
Substitution2: "cartouched sitelen" cart.suwi
Ligature2: "sitelen" s u w i
EndChar

StartChar: tan.t
Encoding: 989543 989543 123
Width: 1100
GlyphClass: 1
Flags: MW
LayerCount: 2
Fore
SplineSet
100 675 m 1,0,-1
 200 675 l 1,1,-1
 200 507 l 1,2,3
 264 586 264 586 356 630.5 c 128,-1,4
 448 675 448 675 550 675 c 0,5,6
 642 675 642 675 725 639.5 c 128,-1,7
 808 604 808 604 868.5 543.5 c 128,-1,8
 929 483 929 483 964.5 400 c 128,-1,9
 1000 317 1000 317 1000 225 c 1,10,-1
 900 225 l 1,11,12
 900 320 900 320 853 400.5 c 128,-1,13
 806 481 806 481 725.5 528 c 128,-1,14
 645 575 645 575 550 575 c 0,15,16
 464 575 464 575 388.5 535 c 128,-1,17
 313 495 313 495 264 425 c 1,18,-1
 450 425 l 1,19,-1
 450 325 l 1,20,-1
 100 325 l 1,21,-1
 100 425 l 1,22,-1
 100 675 l 1,0,-1
EndSplineSet
Ligature2: "sitelen+-space" t a n space
Substitution2: "cartouched sitelen" cart.tan
Ligature2: "sitelen" t a n
EndChar

StartChar: taso.t
Encoding: 989544 989544 124
Width: 1100
GlyphClass: 1
Flags: MW
LayerCount: 2
Fore
SplineSet
600 900 m 1,0,-1
 700 900 l 1,1,-1
 700 500 l 1,2,-1
 700 400 l 1,3,-1
 700 0 l 1,4,-1
 600 0 l 1,5,-1
 600 400 l 1,6,-1
 400 400 l 1,7,-1
 400 500 l 1,8,-1
 600 500 l 1,9,-1
 600 900 l 1,0,-1
EndSplineSet
Ligature2: "sitelen+-space" t a s o space
Substitution2: "cartouched sitelen" cart.taso
Ligature2: "sitelen" t a s o
EndChar

StartChar: tawa.t
Encoding: 989545 989545 125
Width: 1100
GlyphClass: 1
Flags: MW
LayerCount: 2
Fore
SplineSet
550 900 m 1,0,-1
 770 129 l 1,1,-1
 968 195 l 1,2,-1
 1000 100 l 1,3,-1
 797 32 l 1,4,-1
 700 0 l 1,5,-1
 673 96 l 1,6,-1
 520 642 l 1,7,-1
 247 157 l 1,8,-1
 432 95 l 1,9,-1
 400 0 l 1,10,-1
 197 68 l 1,11,-1
 100 100 l 1,12,-1
 150 189 l 1,13,-1
 550 900 l 1,0,-1
EndSplineSet
Ligature2: "sitelen+-space" t a w a space
LCarets2: 3 0 0 0
Substitution2: "cartouched sitelen" cart.tawa
Ligature2: "sitelen" t a w a
EndChar

StartChar: telo.t
Encoding: 989546 989546 126
Width: 1100
GlyphClass: 1
Flags: MW
LayerCount: 2
Fore
SplineSet
440 670 m 2,0,1
 400 700 400 700 350 700 c 0,2,3
 288 700 288 700 244 656 c 128,-1,4
 200 612 200 612 200 550 c 1,5,-1
 100 550 l 1,6,7
 100 654 100 654 173 727 c 128,-1,8
 246 800 246 800 350 800 c 0,9,10
 433 800 433 800 500 750 c 2,11,-1
 660 630 l 2,12,13
 700 600 700 600 750 600 c 0,14,15
 812 600 812 600 856 644 c 128,-1,16
 900 688 900 688 900 750 c 1,17,-1
 1000 750 l 1,18,19
 1000 646 1000 646 927 573 c 128,-1,20
 854 500 854 500 750 500 c 0,21,22
 667 500 667 500 600 550 c 2,23,-1
 440 670 l 2,0,1
440 270 m 2,24,25
 400 300 400 300 350 300 c 0,26,27
 288 300 288 300 244 256 c 128,-1,28
 200 212 200 212 200 150 c 1,29,-1
 100 150 l 1,30,31
 100 254 100 254 173 327 c 128,-1,32
 246 400 246 400 350 400 c 0,33,34
 433 400 433 400 500 350 c 2,35,-1
 660 230 l 2,36,37
 700 200 700 200 750 200 c 0,38,39
 812 200 812 200 856 244 c 128,-1,40
 900 288 900 288 900 350 c 1,41,-1
 1000 350 l 1,42,43
 1000 246 1000 246 927 173 c 128,-1,44
 854 100 854 100 750 100 c 0,45,46
 667 100 667 100 600 150 c 2,47,-1
 440 270 l 2,24,25
EndSplineSet
Ligature2: "sitelen+-space" t e l o space
Substitution2: "cartouched sitelen" cart.telo
Ligature2: "sitelen" t e l o
EndChar

StartChar: tenpo.t
Encoding: 989547 989547 127
Width: 1100
GlyphClass: 1
Flags: MW
LayerCount: 2
Fore
SplineSet
500 725 m 1,0,-1
 600 725 l 1,1,-1
 600 475 l 1,2,-1
 750 475 l 1,3,-1
 750 375 l 1,4,-1
 500 375 l 1,5,-1
 500 725 l 1,0,-1
550 800 m 128,-1,7
 455 800 455 800 374.5 753 c 128,-1,8
 294 706 294 706 247 625.5 c 128,-1,9
 200 545 200 545 200 450 c 128,-1,10
 200 355 200 355 247 274.5 c 128,-1,11
 294 194 294 194 374.5 147 c 128,-1,12
 455 100 455 100 550 100 c 128,-1,13
 645 100 645 100 725.5 147 c 128,-1,14
 806 194 806 194 853 274.5 c 128,-1,15
 900 355 900 355 900 450 c 128,-1,16
 900 545 900 545 853 625.5 c 128,-1,17
 806 706 806 706 725.5 753 c 128,-1,6
 645 800 645 800 550 800 c 128,-1,7
550 900 m 128,-1,19
 642 900 642 900 725 864.5 c 128,-1,20
 808 829 808 829 868.5 768.5 c 128,-1,21
 929 708 929 708 964.5 625 c 128,-1,22
 1000 542 1000 542 1000 450 c 128,-1,23
 1000 358 1000 358 964.5 275 c 128,-1,24
 929 192 929 192 868.5 131.5 c 128,-1,25
 808 71 808 71 725 35.5 c 128,-1,26
 642 0 642 0 550 0 c 128,-1,27
 458 0 458 0 375 35.5 c 128,-1,28
 292 71 292 71 231.5 131.5 c 128,-1,29
 171 192 171 192 135.5 275 c 128,-1,30
 100 358 100 358 100 450 c 128,-1,31
 100 542 100 542 135.5 625 c 128,-1,32
 171 708 171 708 231.5 768.5 c 128,-1,33
 292 829 292 829 375 864.5 c 128,-1,18
 458 900 458 900 550 900 c 128,-1,19
EndSplineSet
Ligature2: "sitelen+-space" t e n p o space
Substitution2: "cartouched sitelen" cart.tenpo
Ligature2: "sitelen" t e n p o
EndChar

StartChar: toki.t
Encoding: 989548 989548 128
Width: 1100
GlyphClass: 1
Flags: MW
LayerCount: 2
Fore
SplineSet
550 500 m 128,-1,1
 467 500 467 500 408.5 441.5 c 128,-1,2
 350 383 350 383 350 300 c 128,-1,3
 350 217 350 217 408.5 158.5 c 128,-1,4
 467 100 467 100 550 100 c 128,-1,5
 633 100 633 100 691.5 158.5 c 128,-1,6
 750 217 750 217 750 300 c 128,-1,7
 750 383 750 383 691.5 441.5 c 128,-1,0
 633 500 633 500 550 500 c 128,-1,1
550 600 m 128,-1,9
 674 600 674 600 762 512 c 128,-1,10
 850 424 850 424 850 300 c 128,-1,11
 850 176 850 176 762 88 c 128,-1,12
 674 0 674 0 550 0 c 128,-1,13
 426 0 426 0 338 88 c 128,-1,14
 250 176 250 176 250 300 c 128,-1,15
 250 424 250 424 338 512 c 128,-1,8
 426 600 426 600 550 600 c 128,-1,9
350 900 m 1,16,-1
 425 675 l 1,17,-1
 320 675 l 1,18,-1
 245 900 l 1,19,-1
 350 900 l 1,16,-1
750 900 m 1,20,-1
 855 900 l 1,21,-1
 780 675 l 1,22,-1
 675 675 l 1,23,-1
 750 900 l 1,20,-1
500 900 m 1,24,-1
 600 900 l 1,25,-1
 600 675 l 1,26,-1
 500 675 l 1,27,-1
 500 900 l 1,24,-1
EndSplineSet
Ligature2: "sitelen+-space" t o k i space
Substitution2: "cartouched sitelen" cart.toki
Ligature2: "sitelen" t o k i
EndChar

StartChar: tomo.t
Encoding: 989549 989549 129
Width: 1100
GlyphClass: 1
Flags: MW
LayerCount: 2
Fore
SplineSet
550 767 m 1,0,-1
 250 505 l 1,1,-1
 250 100 l 1,2,-1
 850 100 l 1,3,-1
 850 505 l 1,4,-1
 550 767 l 1,0,-1
550 900 m 1,5,-1
 950 550 l 1,6,-1
 950 0 l 1,7,-1
 150 0 l 1,8,-1
 150 550 l 1,9,-1
 550 900 l 1,5,-1
EndSplineSet
Ligature2: "sitelen+-space" t o m o space
Substitution2: "cartouched sitelen" cart.tomo
Ligature2: "sitelen" t o m o
EndChar

StartChar: tu.t
Encoding: 989550 989550 130
Width: 1100
GlyphClass: 1
Flags: MW
LayerCount: 2
Fore
SplineSet
650 850 m 1,0,-1
 750 850 l 1,1,-1
 750 50 l 1,2,-1
 650 50 l 1,3,-1
 650 850 l 1,0,-1
350 850 m 1,4,-1
 450 850 l 1,5,-1
 450 50 l 1,6,-1
 350 50 l 1,7,-1
 350 850 l 1,4,-1
EndSplineSet
Ligature2: "sitelen+-space" t u space
Substitution2: "cartouched sitelen" cart.tu
Ligature2: "sitelen" t u
EndChar

StartChar: unpa.t
Encoding: 989551 989551 131
Width: 1100
GlyphClass: 1
Flags: MW
LayerCount: 2
Fore
SplineSet
318 470 m 1,0,1
 272 496 272 496 245 530.5 c 128,-1,2
 218 565 218 565 211 598.5 c 128,-1,3
 204 632 204 632 211.5 665.5 c 128,-1,4
 219 699 219 699 239 724.5 c 128,-1,5
 259 750 259 750 289 765.5 c 128,-1,6
 319 781 319 781 354 781 c 0,7,8
 412 781 412 781 479 723 c 1,9,10
 361 595 361 595 318 470 c 1,0,1
690 432 m 1,11,12
 550 392 550 392 410 432 c 1,13,14
 446 539 446 539 550 653 c 1,15,16
 654 539 654 539 690 432 c 1,11,12
550 125 m 128,-1,18
 486 125 486 125 437.5 182 c 128,-1,19
 389 239 389 239 392 334 c 1,20,21
 550 291 550 291 708 334 c 1,22,23
 711 239 711 239 662.5 182 c 128,-1,17
 614 125 614 125 550 125 c 128,-1,18
550 25 m 128,-1,25
 604 25 604 25 654 50 c 128,-1,26
 704 75 704 75 740.5 119 c 128,-1,27
 777 163 777 163 795.5 229 c 128,-1,28
 814 295 814 295 805 370 c 1,29,30
 927 429 927 429 971 530 c 0,31,32
 992 579 992 579 992 632 c 0,33,34
 992 735 992 735 920 808 c 128,-1,35
 848 881 848 881 746 881 c 0,36,37
 646 881 646 881 550 794 c 1,38,39
 454 881 454 881 354 881 c 0,40,41
 252 881 252 881 180 808 c 128,-1,42
 108 735 108 735 108 632 c 0,43,44
 108 554 108 554 154.5 484.5 c 128,-1,45
 201 415 201 415 295 370 c 1,46,47
 286 295 286 295 304.5 229 c 128,-1,48
 323 163 323 163 359.5 119 c 128,-1,49
 396 75 396 75 446 50 c 128,-1,24
 496 25 496 25 550 25 c 128,-1,25
621 723 m 1,50,51
 688 781 688 781 746 781 c 0,52,53
 781 781 781 781 811 765.5 c 128,-1,54
 841 750 841 750 861 724.5 c 128,-1,55
 881 699 881 699 888.5 665.5 c 128,-1,56
 896 632 896 632 889 598.5 c 128,-1,57
 882 565 882 565 855 530.5 c 128,-1,58
 828 496 828 496 782 470 c 1,59,60
 739 595 739 595 621 723 c 1,50,51
EndSplineSet
Ligature2: "sitelen+-space" u n p a space
Substitution2: "cartouched sitelen" cart.unpa
Ligature2: "sitelen" u n p a
EndChar

StartChar: uta.t
Encoding: 989552 989552 132
Width: 1100
GlyphClass: 1
Flags: MW
LayerCount: 2
Fore
SplineSet
304.660059825 550 m 1,0,1
 318.50714449 478.49285551 318.50714449 478.49285551 373.5 423.5 c 0,2,3
 447 350 447 350 550 350 c 128,-1,4
 653 350 653 350 726.5 423.5 c 0,5,6
 781.49285551 478.49285551 781.49285551 478.49285551 795.339940175 550 c 1,7,-1
 304.660059825 550 l 1,0,1
200 600 m 2,8,-1
 200 650 l 1,9,-1
 300 650 l 1,10,-1
 800 650 l 1,11,-1
 900 650 l 1,12,-1
 900 600 l 2,13,14
 900 505 900 505 853 424.5 c 128,-1,15
 806 344 806 344 725.5 297 c 128,-1,16
 645 250 645 250 550 250 c 128,-1,17
 455 250 455 250 374.5 297 c 128,-1,18
 294 344 294 344 247 424.5 c 128,-1,19
 200 505 200 505 200 600 c 2,8,-1
EndSplineSet
Ligature2: "sitelen+-space" u t a space
Substitution2: "cartouched sitelen" cart.uta
Ligature2: "sitelen" u t a
EndChar

StartChar: utala.t
Encoding: 989553 989553 133
Width: 1100
GlyphClass: 1
Flags: MW
LayerCount: 2
Fore
SplineSet
783 900 m 1,0,-1
 868 848 l 1,1,-1
 608.406389595 423.028220804 l 1,2,-1
 741 206 l 1,3,-1
 861 445 l 1,4,-1
 950 400 l 1,5,-1
 750 0 l 1,6,-1
 550 327.413127413 l 1,7,-1
 350 0 l 1,8,-1
 150 400 l 1,9,-1
 239 445 l 1,10,-1
 359 206 l 1,11,-1
 491.593610405 423.028220804 l 1,12,-1
 232 848 l 1,13,-1
 317 900 l 1,14,-1
 550 518.627358491 l 1,15,-1
 783 900 l 1,0,-1
EndSplineSet
Ligature2: "sitelen+-space" u t a l a space
Substitution2: "cartouched sitelen" cart.utala
Ligature2: "sitelen" u t a l a
EndChar

StartChar: walo.t
Encoding: 989554 989554 134
Width: 1100
GlyphClass: 1
Flags: MW
LayerCount: 2
Fore
SplineSet
838 101 m 1,0,-1
 550 676 l 1,1,-1
 262 101 l 1,2,-1
 838 101 l 1,0,-1
550 900 m 1,3,-1
 735 529 l 1,4,-1
 955 639 l 1,5,-1
 1000 550 l 1,6,-1
 780 440 l 1,7,-1
 1000 0 l 1,8,-1
 100 0 l 1,9,-1
 320 440 l 1,10,-1
 100 550 l 1,11,-1
 145 639 l 1,12,-1
 365 529 l 1,13,-1
 550 900 l 1,3,-1
EndSplineSet
Ligature2: "sitelen+-space" w a l o space
Substitution2: "cartouched sitelen" cart.walo
Ligature2: "sitelen" w a l o
EndChar

StartChar: wan.t
Encoding: 989555 989555 135
Width: 1100
GlyphClass: 1
Flags: MW
LayerCount: 2
Fore
SplineSet
525 900 m 1,0,-1
 625 900 l 1,1,-1
 625 0 l 1,2,-1
 525 0 l 1,3,-1
 525 700 l 1,4,5
 458 650 458 650 375 650 c 1,6,7
 375 656 375 656 375 666.5 c 128,-1,8
 375 677 375 677 375 699 c 128,-1,9
 375 721 375 721 375 735.5 c 2,10,-1
 375 750 l 1,11,12
 437 750 437 750 481 794 c 128,-1,13
 525 838 525 838 525 900 c 1,0,-1
EndSplineSet
Ligature2: "sitelen+-space" w a n space
Substitution2: "cartouched sitelen" cart.wan
Ligature2: "sitelen" w a n
EndChar

StartChar: waso.t
Encoding: 989556 989556 136
Width: 1100
GlyphClass: 1
Flags: MW
LayerCount: 2
Fore
SplineSet
625 900 m 1,0,-1
 875 300 l 1,1,-1
 767 300 l 1,2,-1
 450 300 l 1,3,-1
 450 0 l 1,4,-1
 350 0 l 1,5,-1
 350 300 l 1,6,-1
 350 400 l 1,7,-1
 450 400 l 1,8,-1
 725 400 l 1,9,-1
 533 862 l 1,10,-1
 625 900 l 1,0,-1
575 495.5 m 128,-1,12
 554 475 554 475 525 475 c 128,-1,13
 496 475 496 475 475 495.5 c 128,-1,14
 454 516 454 516 454 545.5 c 128,-1,15
 454 575 454 575 475 595.5 c 128,-1,16
 496 616 496 616 525 616 c 128,-1,17
 554 616 554 616 575 595.5 c 128,-1,18
 596 575 596 575 596 545.5 c 128,-1,11
 596 516 596 516 575 495.5 c 128,-1,12
375 495.5 m 128,-1,20
 354 475 354 475 325 475 c 128,-1,21
 296 475 296 475 275 495.5 c 128,-1,22
 254 516 254 516 254 545.5 c 128,-1,23
 254 575 254 575 275 595.5 c 128,-1,24
 296 616 296 616 325 616 c 128,-1,25
 354 616 354 616 375 595.5 c 128,-1,26
 396 575 396 575 396 545.5 c 128,-1,19
 396 516 396 516 375 495.5 c 128,-1,20
EndSplineSet
Ligature2: "sitelen+-space" w a s o space
Substitution2: "cartouched sitelen" cart.waso
Ligature2: "sitelen" w a s o
EndChar

StartChar: wawa.t
Encoding: 989557 989557 137
Width: 1100
GlyphClass: 1
Flags: MW
LayerCount: 2
Fore
SplineSet
550 500 m 128,-1,1
 488 500 488 500 444 456 c 128,-1,2
 400 412 400 412 400 350 c 128,-1,3
 400 288 400 288 444 244 c 128,-1,4
 488 200 488 200 550 200 c 128,-1,5
 612 200 612 200 656 244 c 128,-1,6
 700 288 700 288 700 350 c 128,-1,7
 700 412 700 412 656 456 c 128,-1,0
 612 500 612 500 550 500 c 128,-1,1
550 600 m 128,-1,9
 653 600 653 600 726.5 526.5 c 128,-1,10
 800 453 800 453 800 350 c 128,-1,11
 800 247 800 247 726.5 173.5 c 128,-1,12
 653 100 653 100 550 100 c 128,-1,13
 447 100 447 100 373.5 173.5 c 128,-1,14
 300 247 300 247 300 350 c 128,-1,15
 300 453 300 453 373.5 526.5 c 128,-1,8
 447 600 447 600 550 600 c 128,-1,9
201 800 m 1,16,-1
 276 300 l 1,17,-1
 174 300 l 1,18,-1
 99 800 l 1,19,-1
 201 800 l 1,16,-1
899 800 m 1,20,-1
 1000 800 l 1,21,-1
 925 300 l 1,22,-1
 824 300 l 1,23,-1
 899 800 l 1,20,-1
EndSplineSet
Ligature2: "sitelen+-space" w a w a space
Substitution2: "cartouched sitelen" cart.wawa
Ligature2: "sitelen" w a w a
EndChar

StartChar: weka.t
Encoding: 989558 989558 138
Width: 1100
GlyphClass: 1
Flags: MW
LayerCount: 2
Fore
SplineSet
671 400 m 1,0,-1
 1000 71 l 1,1,-1
 929 0 l 1,2,-1
 600 329 l 1,3,-1
 671 400 l 1,0,-1
171 900 m 1,4,-1
 500 571 l 1,5,-1
 429 500 l 1,6,-1
 100 829 l 1,7,-1
 171 900 l 1,4,-1
429 400 m 1,8,-1
 500 329 l 1,9,-1
 171 0 l 1,10,-1
 100 71 l 1,11,-1
 429 400 l 1,8,-1
929 900 m 1,12,-1
 1000 829 l 1,13,-1
 671 500 l 1,14,-1
 600 571 l 1,15,-1
 929 900 l 1,12,-1
EndSplineSet
Ligature2: "sitelen+-space" w e k a space
Substitution2: "cartouched sitelen" cart.weka
Ligature2: "sitelen" w e k a
EndChar

StartChar: wile.t
Encoding: 989559 989559 139
Width: 1100
GlyphClass: 1
Flags: MW
LayerCount: 2
Fore
SplineSet
367.194335938 925 m 1,0,-1
 367.194335938 875 l 1025,1,-1
350 900 m 1,2,-1
 400 900 l 1025,3,-1
292.25390625 810.646484375 m 1,4,-1
 358.26953125 735.529296875 l 1,5,6
 295.358451517 680.256156913 295.358451517 680.256156913 255.731426633 603.515362698 c 128,-1,7
 216.104401749 526.774568482 216.104401749 526.774568482 204.2265625 441.212890625 c 0,8,9
 196.346056604 384.437854806 196.346056604 384.437854806 203.93359375 337.970703125 c 0,10,11
 213.692103444 278.212601689 213.692103444 278.212601689 234.01171875 249.162109375 c 0,12,13
 262.437182352 208.525519552 262.437182352 208.525519552 302.0390625 194.533203125 c 0,14,15
 339.928235744 181.145506868 339.928235744 181.145506868 381.19921875 194.318359375 c 0,16,17
 397.46077524 199.508637721 397.46077524 199.508637721 422.4296875 223.791015625 c 0,18,19
 450.955684507 251.53044051 450.955684507 251.53044051 462.44140625 276.588867188 c 0,20,21
 482.198430867 319.691080821 482.198430867 319.691080821 491.069918558 358.75137117 c 128,-1,22
 499.94140625 397.81166152 499.94140625 397.81166152 499.94140625 451.588867188 c 1,23,-1
 599.94140625 451.588867188 l 1,24,25
 599.94140625 397.621745326 599.94140625 397.621745326 608.787215909 358.495316836 c 128,-1,26
 617.633025568 319.368888346 617.633025568 319.368888346 637.44140625 276.588867188 c 0,27,28
 648.795406596 252.065367069 648.795406596 252.065367069 678.09375 223.791015625 c 0,29,30
 703.350662551 199.416715298 703.350662551 199.416715298 719.32421875 194.318359375 c 0,31,32
 760.595983136 181.145257468 760.595983136 181.145257468 798.484375 194.533203125 c 0,33,34
 838.290515337 208.599107339 838.290515337 208.599107339 866.51171875 249.162109375 c 0,35,36
 886.420350602 277.775858147 886.420350602 277.775858147 896.094726562 337.970703125 c 0,37,38
 903.628363102 384.83738465 903.628363102 384.83738465 895.801757812 441.212890625 c 0,39,40
 883.901262438 526.937771233 883.901262438 526.937771233 844.482637617 603.641637641 c 128,-1,41
 805.064012795 680.345504049 805.064012795 680.345504049 742.25390625 735.529296875 c 1,42,-1
 808.26953125 810.646484375 l 1,43,44
 884.970225087 743.258868305 884.970225087 743.258868305 932.694484903 651.142007533 c 128,-1,45
 980.418744719 559.025146762 980.418744719 559.025146762 994.864257812 454.962890625 c 0,46,47
 1005.08102126 381.373381164 1005.08102126 381.373381164 994.786132812 321.916015625 c 0,48,49
 979.855065211 235.672995913 979.855065211 235.672995913 948.42578125 191.798828125 c 0,50,51
 899.595343979 123.6332428 899.595343979 123.6332428 833.6796875 100.919921875 c 0,52,53
 761.741827685 76.1302476576 761.741827685 76.1302476576 681.19921875 101.857421875 c 0,54,55
 648.444710132 112.320259192 648.444710132 112.320259192 605.515625 155.001953125 c 0,56,57
 580.691328106 179.682302483 580.691328106 179.682302483 556.39453125 224.103515625 c 0,58,59
 555.125021302 226.424296914 555.125021302 226.424296914 553.163588544 230.916825996 c 128,-1,60
 551.202155786 235.409355078 551.202155786 235.409355078 550.26171875 237.267578125 c 1,61,62
 549.323222373 235.412362172 549.323222373 235.412362172 547.36114914 230.918932547 c 128,-1,63
 545.399075907 226.425502922 545.399075907 226.425502922 544.12890625 224.103515625 c 0,64,65
 519.832109394 179.682302483 519.832109394 179.682302483 495.0078125 155.001953125 c 0,66,67
 452.078727368 112.320259192 452.078727368 112.320259192 419.32421875 101.857421875 c 0,68,69
 338.781609815 76.1302476576 338.781609815 76.1302476576 266.84375 100.919921875 c 0,70,71
 201.158377543 123.553891168 201.158377543 123.553891168 152.09765625 191.798828125 c 0,72,73
 120.247496769 236.102846147 120.247496769 236.102846147 105.2421875 321.916015625 c 0,74,75
 94.9032802934 381.044202148 94.9032802934 381.044202148 105.1640625 454.962890625 c 0,76,77
 119.587952305 558.864030775 119.587952305 558.864030775 167.519023533 651.015833271 c 128,-1,78
 215.450094761 743.167635767 215.450094761 743.167635767 292.25390625 810.646484375 c 1,4,-1
EndSplineSet
Ligature2: "sitelen+-space" w i l e space
Substitution2: "cartouched sitelen" cart.wile
LCarets2: 3 0 0 0
Ligature2: "sitelen" w i l e
EndChar

StartChar: namako.t
Encoding: 989560 989560 140
Width: 1100
GlyphClass: 1
Flags: MW
LayerCount: 2
Fore
SplineSet
674.998046875 599.999023438 m 1,0,-1
 775.001953125 599.999023438 l 1,1,2
 774.951416585 491.226079609 774.951416585 491.226079609 735.860389356 387.263891827 c 128,-1,3
 696.769362126 283.301704046 696.769362126 283.301704046 625.140625 201.439453125 c 128,-1,4
 553.511432047 119.578250749 553.511432047 119.578250749 455.657904457 67.0334564538 c 128,-1,5
 357.804376867 14.488662159 357.804376867 14.488662159 250 -0 c 1,6,7
 324.998046875 295.302600974 324.998046875 295.302600974 324.998046875 599.999023438 c 1,8,-1
 425.002929688 599.999023438 l 1,9,10
 425.002929688 370.703472089 425.002929688 370.703472089 382.709343494 142.013306292 c 1,11,12
 478.842644317 186.116605865 478.842644317 186.116605865 549.883789062 267.306640625 c 0,13,14
 609.673896038 335.638086825 609.673896038 335.638086825 642.308505107 422.418876019 c 128,-1,15
 674.943114175 509.199665213 674.943114175 509.199665213 674.998046875 599.999023438 c 1,0,-1
244.595703125 900 m 1,16,-1
 350.004882812 900 l 1,17,-1
 425.002929688 674.99609375 l 1,18,-1
 319.598632812 674.99609375 l 1,19,-1
 244.595703125 900 l 1,16,-1
500.000976562 900 m 1,20,-1
 600 900 l 1,21,-1
 600 674.99609375 l 1,22,-1
 500.000976562 674.99609375 l 1,23,-1
 500.000976562 900 l 1,20,-1
750.000976562 900 m 1,24,-1
 855.411132812 900 l 1,25,-1
 780.407226562 674.99609375 l 1,26,-1
 675.002929688 674.99609375 l 1,27,-1
 750.000976562 900 l 1,24,-1
EndSplineSet
Substitution2: "cartouched sitelen" cart.namako
Ligature2: "sitelen" n a m a k o
Ligature2: "sitelen+-space" n a m a k o space
EndChar

StartChar: kin.t
Encoding: 989561 989561 141
Width: 1100
GlyphClass: 1
Flags: MW
LayerCount: 2
Fore
SplineSet
500.000976562 300.001953125 m 1,0,-1
 600 300.001953125 l 1,1,-1
 600 236.600585938 l 1,2,-1
 676.552734375 280.799804688 l 1,3,-1
 726.5546875 194.200195312 l 1,4,-1
 650.001953125 150.000976562 l 1,5,-1
 726.5546875 105.802734375 l 1,6,-1
 676.552734375 19.1982421875 l 1,7,-1
 600 63.396484375 l 1,8,-1
 600 0 l 1,9,-1
 500.000976562 0 l 1,10,-1
 500.000976562 63.396484375 l 1,11,-1
 423.447265625 19.1982421875 l 1,12,-1
 373.4453125 105.802734375 l 1,13,-1
 449.998046875 150.000976562 l 1,14,-1
 373.4453125 194.200195312 l 1,15,-1
 423.447265625 280.799804688 l 1,16,-1
 500.000976562 236.600585938 l 1,17,-1
 500.000976562 300.001953125 l 1,0,-1
600 900.001953125 m 1,18,-1
 701.801757812 900.001953125 l 1,19,-1
 601.797851562 375 l 1,20,-1
 500 375 l 1,21,-1
 600 900.001953125 l 1,18,-1
EndSplineSet
Substitution2: "cartouched sitelen" cart.kin
Ligature2: "sitelen+-space" k i n space
Ligature2: "sitelen" k i n
EndChar

StartChar: oko.t
Encoding: 989562 989562 142
Width: 1100
GlyphClass: 1
Flags: MW
LayerCount: 2
Fore
SplineSet
798.401367188 696.412109375 m 1,0,-1
 318.8125 449.998046875 l 1,1,-1
 798.401367188 203.583984375 l 1,2,3
 847.18206098 252.72649407 847.18206098 252.72649407 873.57625996 316.741006443 c 128,-1,4
 899.970458941 380.755518815 899.970458941 380.755518815 900.001953125 449.998046875 c 128,-1,5
 899.970458859 519.240754725 899.970458859 519.240754725 873.576196591 583.25560721 c 128,-1,6
 847.181934324 647.270459695 847.181934324 647.270459695 798.401367188 696.412109375 c 1,0,-1
953.952148438 887.899414062 m 1,7,-1
 1000.00097656 799.998046875 l 1,8,-1
 890.6640625 743.8203125 l 1,9,10
 943.5295314 682.568614656 943.5295314 682.568614656 971.747309642 606.73866039 c 128,-1,11
 999.965087884 530.908706123 999.965087884 530.908706123 1000.00097656 449.998046875 c 128,-1,12
 999.980468765 369.086727625 999.980468765 369.086727625 971.775775691 293.249562415 c 128,-1,13
 943.571082617 217.412397206 943.571082617 217.412397206 890.715820312 156.150390625 c 1,14,-1
 1000.00097656 99.9990234375 l 1,15,-1
 953.952148438 12.1025390625 l 1,16,-1
 99.9990234375 449.998046875 l 1,17,-1
 953.952148438 887.899414062 l 1,7,-1
825.1796875 665.96484375 m 1,18,19
 856.26383709 626.387452305 856.26383709 626.387452305 874.892578125 579.825195312 c 1,20,21
 840.135716891 559.718876598 840.135716891 559.718876598 820.071886782 524.937933853 c 128,-1,22
 800.008056673 490.156991108 800.008056673 490.156991108 800.002929688 450.00390625 c 128,-1,23
 800.005859379 409.846619493 800.005859379 409.846619493 820.071315117 375.062454833 c 128,-1,24
 840.136770855 340.278290174 840.136770855 340.278290174 874.897460938 320.171875 c 1,25,26
 856.266806316 273.607050558 856.266806316 273.607050558 825.189453125 234.037109375 c 1,27,28
 767.246631281 267.422475573 767.246631281 267.422475573 733.709619059 325.277146146 c 128,-1,29
 700.172606838 383.131816719 700.172606838 383.131816719 699.999023438 450.00390625 c 0,30,31
 700.172607916 516.872748946 700.172607916 516.872748946 733.706747751 574.725850703 c 128,-1,32
 767.240887586 632.578952459 767.240887586 632.578952459 825.1796875 665.96484375 c 1,18,19
EndSplineSet
Substitution2: "cartouched sitelen" cart.oko
Ligature2: "sitelen+-space" o k o space
Ligature2: "sitelen" o k o
EndChar

StartChar: kipisi.t
Encoding: 989563 989563 143
Width: 1100
GlyphClass: 1
Flags: MW
LayerCount: 2
Fore
SplineSet
750 250 m 128,-1,1
 771 271 771 271 800 271 c 128,-1,2
 829 271 829 271 850 250 c 128,-1,3
 871 229 871 229 871 200 c 128,-1,4
 871 171 871 171 850 150 c 128,-1,5
 829 129 829 129 800 129 c 128,-1,6
 771 129 771 129 750 150 c 128,-1,7
 729 171 729 171 729 200 c 128,-1,0
 729 229 729 229 750 250 c 128,-1,1
250 750 m 128,-1,9
 271 771 271 771 300 771 c 128,-1,10
 329 771 329 771 350 750 c 128,-1,11
 371 729 371 729 371 700 c 128,-1,12
 371 671 371 671 350 650 c 128,-1,13
 329 629 329 629 300 629 c 128,-1,14
 271 629 271 629 250 650 c 128,-1,15
 229 671 229 671 229 700 c 128,-1,8
 229 729 229 729 250 750 c 128,-1,9
829.2890625 800 m 1,16,-1
 900 729.2890625 l 1,17,-1
 270.7109375 100 l 1,18,-1
 200 170.7109375 l 1,19,-1
 829.2890625 800 l 1,16,-1
EndSplineSet
Substitution2: "cartouched sitelen" cart.kipisi
Ligature2: "sitelen+-space" k i p i s i space
Ligature2: "sitelen" k i p i s i
EndChar

StartChar: leko.t
Encoding: 989564 989564 144
Width: 1100
GlyphClass: 1
Flags: MW
LayerCount: 2
Fore
SplineSet
450 550 m 1,0,-1
 450 350 l 1,1,-1
 650 350 l 1,2,-1
 650 550 l 1,3,-1
 450 550 l 1,0,-1
350 650 m 1,4,-1
 750 650 l 1,5,-1
 750 250 l 1,6,-1
 350 250 l 1,7,-1
 350 650 l 1,4,-1
200 800 m 1,8,-1
 200 100 l 1,9,-1
 900 100 l 1,10,-1
 900 800 l 1,11,-1
 200 800 l 1,8,-1
100 900 m 1,12,-1
 1000 900 l 1,13,-1
 1000 0 l 1,14,-1
 100 0 l 1,15,-1
 100 900 l 1,12,-1
EndSplineSet
Ligature2: "sitelen+-space" l e k o space
Substitution2: "cartouched sitelen" cart.leko
Ligature2: "sitelen" l e k o
EndChar

StartChar: monsuta.t
Encoding: 989565 989565 145
Width: 1100
GlyphClass: 1
Flags: MW
LayerCount: 2
Fore
SplineSet
437.5 650 m 1,0,-1
 550 424.223632812 l 1,1,-1
 662.5 650 l 1,2,-1
 791.418945312 455.98046875 l 1,3,-1
 887.5 550 l 1,4,-1
 1000 450 l 1,5,-1
 933.563476562 375.258789062 l 1,6,-1
 890.776367188 413.29296875 l 1,7,-1
 775 300 l 1,8,-1
 674.896484375 450.653320312 l 1,9,-1
 550 200 l 1,10,-1
 425.103515625 450.653320312 l 1,11,-1
 325 300 l 1,12,-1
 209.223632812 413.29296875 l 1,13,-1
 166.436523438 375.258789062 l 1,14,-1
 100 450 l 1,15,-1
 212.5 550 l 1,16,-1
 308.581054688 455.98046875 l 1,17,-1
 437.5 650 l 1,0,-1
EndSplineSet
Substitution2: "cartouched sitelen" cart.monsuta
Ligature2: "sitelen+-space" m o n s u t a space
Ligature2: "sitelen" m o n s u t a
EndChar

StartChar: tonsi.t
Encoding: 989566 989566 146
Width: 1100
GlyphClass: 1
Flags: MW
LayerCount: 2
Fore
SplineSet
835.125 702.811523438 m 1,0,1
 836.834300466 700.411578114 836.834300466 700.411578114 837.850585938 698.942382812 c 1,2,3
 836.474641492 700.923742814 836.474641492 700.923742814 835.125 702.811523438 c 1,0,1
803.497070312 741.17578125 m 1,4,5
 803.539260007 741.131451896 803.539260007 741.131451896 804.421621709 740.208982844 c 0,6,7
 804.607515467 740.014639369 804.607515467 740.014639369 804.773954367 739.8401563 c 1,8,9
 804.161340682 740.484190674 804.161340682 740.484190674 803.497070312 741.17578125 c 1,4,5
550 750 m 128,-1,11
 447 750 447 750 373.5 676.5 c 128,-1,12
 300 603 300 603 300 500 c 128,-1,13
 300 397 300 397 373.5 323.5 c 128,-1,14
 447 250 447 250 550 250 c 128,-1,15
 653 250 653 250 726.5 323.5 c 128,-1,16
 800 397 800 397 800 500 c 128,-1,17
 800 603 800 603 726.5 676.5 c 128,-1,10
 653 750 653 750 550 750 c 128,-1,11
550 150 m 1,18,19
 525.427685749 150.007279392 525.427685749 150.007279392 500.7421875 153.5234375 c 1,20,21
 525.240432209 150.020102879 525.240432209 150.020102879 550 150 c 1,18,19
313.5 757.212890625 m 1,22,23
 413.680266598 849.664111214 413.680266598 849.664111214 550 850 c 0,24,25
 686.45356257 849.969340215 686.45356257 849.969340215 786.877929688 757.588867188 c 1,26,-1
 929.286132812 899.999023438 l 1,27,-1
 1000 829.28515625 l 1,28,29
 990.55060759 819.798039754 990.55060759 819.798039754 975.074973091 804.272909376 c 128,-1,30
 959.599338592 788.747778998 959.599338592 788.747778998 926.842659965 755.906869676 c 128,-1,31
 894.085981339 723.065960354 894.085981339 723.065960354 872.264365181 701.294210646 c 2,32,-1
 850.366210938 679.651367188 l 1,33,34
 899.995675873 596.681716018 899.995675873 596.681716018 900 500 c 0,35,36
 899.994906633 368.813781196 899.994906633 368.813781196 813.933538597 270.436186179 c 128,-1,37
 727.872170561 172.058591161 727.872170561 172.058591161 599.99609375 153.602539062 c 1,38,-1
 600 0 l 1,39,-1
 500 0 l 1,40,-1
 500 153.603515625 l 1,41,42
 372.127984574 172.058603286 372.127984574 172.058603286 286.066538969 270.435868736 c 128,-1,43
 200.005093364 368.813134186 200.005093364 368.813134186 200 500 c 0,44,45
 200.338868996 596.505564046 200.338868996 596.505564046 250.087890625 679.19921875 c 1,46,-1
 100 829.28515625 l 1,47,-1
 170.713867188 899.999023438 l 1,48,-1
 313.5 757.212890625 l 1,22,23
EndSplineSet
Substitution2: "cartouched sitelen" cart.tonsi
Ligature2: "sitelen+-space" t o n s i space
Ligature2: "sitelen" t o n s i
EndChar

StartChar: jasima.t
Encoding: 989567 989567 147
Width: 1100
GlyphClass: 1
Flags: MW
LayerCount: 2
Fore
SplineSet
500.000976562 900.001953125 m 1,0,-1
 600 900.001953125 l 1,1,-1
 600 675.048828125 l 1,2,-1
 660.09375 630.131835938 l 2,3,4
 700.029623825 600.089286892 700.029623825 600.089286892 750.000976562 599.999023438 c 0,5,6
 812.133864565 599.999023438 812.133864565 599.999023438 856.068275055 643.933631501 c 128,-1,7
 900.002685546 687.868239564 900.002685546 687.868239564 900.001953125 750.000976562 c 1,8,-1
 1000.00097656 750.000976562 l 1,9,10
 1000.00097656 646.447416629 1000.00097656 646.447416629 926.777663393 573.223708315 c 128,-1,11
 853.554350223 500 853.554350223 500 750.000976562 500 c 0,12,13
 666.696887512 500.091771101 666.696887512 500.091771101 600.09765625 550.131835938 c 1,14,-1
 600 275.047851562 l 1,15,-1
 660.09375 230.130859375 l 2,16,17
 700.027619219 200.08831395 700.027619219 200.08831395 750.000976562 199.998046875 c 0,18,19
 812.133789063 199.997314453 812.133789063 199.997314453 856.068237305 243.931762695 c 128,-1,20
 900.002685547 287.866210938 900.002685547 287.866210938 900.001953125 349.999023438 c 1,21,-1
 1000.00097656 349.999023438 l 1,22,23
 1000.00097656 246.445556641 1000.00097656 246.445556641 926.777709961 173.222290039 c 128,-1,24
 853.554443359 99.9990234375 853.554443359 99.9990234375 750.000976562 99.9990234375 c 0,25,26
 666.697591094 100.089289332 666.697591094 100.089289332 600.09765625 150.129882812 c 1,27,-1
 600 0 l 1,28,-1
 500.000976562 0 l 1,29,-1
 500.000976562 224.953125 l 1,30,-1
 439.90625 269.870117188 l 2,31,32
 399.969672866 299.913195311 399.969672866 299.913195311 349.999023438 300.001953125 c 0,33,34
 287.866210938 300.002685547 287.866210938 300.002685547 243.931762695 256.068237305 c 128,-1,35
 199.997314453 212.133789063 199.997314453 212.133789063 199.998046875 150.000976562 c 1,36,-1
 99.9990234375 150.000976562 l 1,37,38
 99.9990234375 253.554611998 99.9990234375 253.554611998 173.222374358 326.778160491 c 128,-1,39
 246.445725278 400.001708983 246.445725278 400.001708983 349.999023438 400.000976562 c 0,40,41
 433.302408906 399.910710668 433.302408906 399.910710668 499.90234375 349.870117188 c 1,42,-1
 500.000976562 624.954101562 l 1,43,-1
 439.90625 669.87109375 l 2,44,45
 399.972380781 699.913639175 399.972380781 699.913639175 349.999023438 700.00390625 c 0,46,47
 287.866210938 700.00390625 287.866210938 700.00390625 243.931762695 656.069458008 c 128,-1,48
 199.997314453 612.135009766 199.997314453 612.135009766 199.998046875 550.002929688 c 1,49,-1
 99.9990234375 550.002929688 l 1,50,51
 99.9990234375 653.556396484 99.9990234375 653.556396484 173.222290039 726.779663086 c 128,-1,52
 246.445556641 800.002929688 246.445556641 800.002929688 349.999023438 800.002929688 c 0,53,54
 433.303112488 799.911158586 433.303112488 799.911158586 499.90234375 749.87109375 c 1,55,-1
 500.000976562 900.001953125 l 1,0,-1
EndSplineSet
Substitution2: "cartouched sitelen" cart.jasima
Ligature2: "sitelen+-space" j a s i m a space
Ligature2: "sitelen" j a s i m a
EndChar

